M48
;Layer_Color=9474304
;FILE_FORMAT=4:4
METRIC,LZ
;TYPE=PLATED
T01F00S00C0.3000
T02F00S00C0.8000
T04F00S00C0.9000
T05F00S00C1.0000
T06F00S00C1.0200
T07F00S00C1.1000
T08F00S00C1.6000
T09F00S00C3.2000
;TYPE=NON_PLATED
T10F00S00C1.1000
T11F00S00C1.7000
%
T01
X0002667Y0011303
X0009144Y0010541
X0014478Y0047117
X0015875Y004699
X0038608Y0042164
X0040132Y0053594
X004318
X0046609
X0051435Y0039751
X0011811Y0041656
X0010668Y0046609
X0010795Y0053213
X0005461Y0039751
X0007239Y0034925
X0002159Y0034798
X0006223Y0029845
X0010287Y0025908
X0012319Y0016637
X0005588Y0015494
X0004953Y0058039
X0009398
X0002667Y0089408
X0026797Y0057404
X0031369
X0035687Y0056007
X0044958Y0061087
X0047117Y006096
X0050546
X0053848Y0060833
X0121031Y008128
Y0090043
T02
X0103926Y0095377
X0108926
T04
X0020066Y0005334
Y0007874
Y0010414
Y0012954
X0022606
Y0010414
Y0007874
Y0005334
X0070866
Y0007874
Y0010414
Y0012954
X0073406
Y0010414
Y0007874
Y0005334
Y0015494
Y0018034
Y0020574
X0070866
Y0023114
Y0025654
Y0028194
Y0030734
Y0033274
Y0035814
Y0038354
Y0040894
X0073406
Y0043434
Y0045974
Y0048514
Y0051054
Y0053594
X0070866
Y0051054
Y0048514
Y0045974
Y0043434
X0073406Y0038354
Y0035814
Y0033274
Y0030734
Y0028194
Y0025654
Y0023114
X0070866Y0018034
Y0015494
X0022606
Y0018034
Y0020574
Y0023114
Y0025654
Y0028194
Y0030734
Y0033274
Y0035814
Y0038354
Y0040894
X0020066
Y0043434
Y0045974
Y0048514
Y0051054
Y0053594
X0022606
Y0051054
Y0048514
Y0045974
Y0043434
X0020066Y0038354
Y0035814
Y0033274
Y0030734
Y0028194
Y0025654
Y0023114
Y0020574
Y0018034
Y0015494
Y0056134
Y0058674
Y0061214
Y0063754
Y0066294
X0022606
Y0063754
Y0061214
Y0058674
Y0056134
X0070866
Y0058674
Y0061214
Y0063754
Y0066294
X0073406
Y0063754
Y0061214
Y0058674
Y0056134
Y0081534
Y0084074
X0020066Y0094234
Y0096774
T05
X00858521Y00314961
X00883921
X0088392Y0034036
X00858521Y00340361
X0085852Y0036957
X00883921Y00369571
Y00398781
X00858521
Y00427991
X0088392Y0042799
Y004572
X0085852
X00078739Y00468631
Y00494031
Y00519431
Y00443231
X0007874Y0041783
X00078739Y00275591
X0007874Y0025019
Y0022479
Y0019939
X00078741Y00173991
X0007874Y0060198
X00078739Y00627381
X0007874Y0065278
Y0069977
X00078739Y00725171
Y00750571
X0007874Y0077597
Y0080264
X00078739Y00828041
Y00853441
Y00878841
X008763Y0080264
X009017
Y0077216
X00876301Y00772161
Y00742951
X009017Y0074295
Y0071374
X00876301Y00713741
Y00684531
Y00659131
X00901701
Y00684531
T06
X0098679Y002794
Y003048
Y003302
Y003556
Y00381
Y004064
Y004318
Y004572
X0111379
Y004318
Y004064
Y00381
Y003556
Y003302
Y003048
Y002794
Y0061976
Y0064516
Y0067056
Y0069596
Y0072136
Y0074676
Y0077216
Y0079756
X0098679
Y0077216
Y0074676
Y0072136
Y0069596
Y0067056
Y0064516
Y0061976
T07
X0117475Y0032004
Y0034544
X0117602Y0040005
Y0042545
X0117856Y0066294
Y0068834
Y0073406
Y0075946
X0084709Y0096901
X0082169
T08
X0102746Y0083771
Y0087171
X0112646
Y0083771
T09
X000508Y000508
X0117475
X011684Y0095885
X000508Y009652
T10
X0120015Y0032004
Y0034544
X0120142Y0040005
Y0042545
X0120396Y0066294
Y0068834
Y0073406
Y0075946
X0084709Y0099441
X0082169
T11
X0092202Y0091488
Y0096988
M30
