<?xml version="1.0" encoding="UTF-8" standalone="no"?>
<!-- Created with Inkscape (http://www.inkscape.org/) -->

<svg
   width="420mm"
   height="297mm"
   viewBox="0 0 420 297"
   version="1.1"
   id="svg1"
   inkscape:version="1.3.2 (091e20e, 2023-11-25)"
   sodipodi:docname="consturction_blocks.svg"
   xmlns:inkscape="http://www.inkscape.org/namespaces/inkscape"
   xmlns:sodipodi="http://sodipodi.sourceforge.net/DTD/sodipodi-0.dtd"
   xmlns="http://www.w3.org/2000/svg"
   xmlns:svg="http://www.w3.org/2000/svg">
  <sodipodi:namedview
     id="namedview1"
     pagecolor="#ffffff"
     bordercolor="#000000"
     borderopacity="0.25"
     inkscape:showpageshadow="2"
     inkscape:pageopacity="0.0"
     inkscape:pagecheckerboard="0"
     inkscape:deskcolor="#d1d1d1"
     inkscape:document-units="mm"
     inkscape:zoom="0.39680338"
     inkscape:cx="255.79419"
     inkscape:cy="410.78279"
     inkscape:window-width="1280"
     inkscape:window-height="697"
     inkscape:window-x="260"
     inkscape:window-y="1113"
     inkscape:window-maximized="0"
     inkscape:current-layer="layer1" />
  <defs
     id="defs1" />
  <g
     inkscape:label="Layer 1"
     inkscape:groupmode="layer"
     id="layer1">
    <rect
       style="vector-effect:non-scaling-stroke;fill:none;fill-opacity:1;stroke:#ff0000;stroke-width:0.354975;stroke-opacity:1;-inkscape-stroke:hairline"
       id="rect12"
       width="106"
       height="90"
       x="102.7923"
       y="2.165251" />
    <circle
       style="vector-effect:non-scaling-stroke;fill:none;stroke:#ff0000;stroke-width:0.253914;stroke-dasharray:none;stroke-opacity:1;-inkscape-stroke:hairline"
       id="path9-4"
       cx="13.699284"
       cy="35.439762"
       r="2.9749999" />
    <path
       id="path9"
       style="vector-effect:non-scaling-stroke;fill:#000000;fill-opacity:1;stroke:none;stroke-width:0.264583;stroke-dasharray:none;stroke-opacity:1;-inkscape-stroke:hairline"
       d="M 13.699378,25.439762 A 10,10 0 0 0 3.6989687,35.439666 10,10 0 0 0 13.699378,45.44009 a 10,10 0 0 0 9.99991,-10.000424 10,10 0 0 0 -9.99991,-9.999904 z m 0,2.90008 a 7.0999999,7.0999999 0 0 1 7.09983,7.099824 7.0999999,7.0999999 0 0 1 -7.09983,7.10034 7.0999999,7.0999999 0 0 1 -7.1003293,-7.10034 7.0999999,7.0999999 0 0 1 7.1003293,-7.099824 z" />
    <circle
       style="vector-effect:non-scaling-stroke;fill:none;fill-opacity:1;stroke:#ff0000;stroke-width:0.264583;stroke-dasharray:none;stroke-opacity:1;-inkscape-stroke:hairline"
       id="path29-5-5"
       cx="13.699284"
       cy="35.439762"
       r="10" />
    <circle
       style="vector-effect:non-scaling-stroke;fill:none;stroke:#ff0000;stroke-width:0.253915;stroke-dasharray:none;stroke-opacity:1;-inkscape-stroke:hairline"
       id="path9-4-9"
       cx="13.699284"
       cy="12.906341"
       r="2.9749999" />
    <path
       id="path9-1"
       style="vector-effect:non-scaling-stroke;fill:#000000;fill-opacity:1;stroke:none;stroke-width:0.264583;stroke-dasharray:none;stroke-opacity:1;-inkscape-stroke:hairline"
       d="M 13.699401,2.9063412 A 10,10 0 0 0 3.6989914,12.906245 10,10 0 0 0 13.699401,22.906669 10,10 0 0 0 23.699311,12.906245 10,10 0 0 0 13.699401,2.9063412 Z m 0,2.90008 a 7.0999999,7.0999999 0 0 1 7.09983,7.0998238 7.0999999,7.0999999 0 0 1 -7.09983,7.10034 7.0999999,7.0999999 0 0 1 -7.1003296,-7.10034 7.0999999,7.0999999 0 0 1 7.1003296,-7.0998238 z" />
    <circle
       style="vector-effect:non-scaling-stroke;fill:none;fill-opacity:1;stroke:#ff0000;stroke-width:0.264583;stroke-dasharray:none;stroke-opacity:1;-inkscape-stroke:hairline"
       id="path29-5-5-3"
       cx="13.699284"
       cy="12.906341"
       r="10" />
    <rect
       style="vector-effect:non-scaling-stroke;fill:none;fill-opacity:1;stroke:#ff0000;stroke-width:0.27326;stroke-opacity:1;-inkscape-stroke:hairline"
       id="rect4"
       width="48"
       height="100"
       x="118.37326"
       y="93.408234" />
    <rect
       style="vector-effect:non-scaling-stroke;fill:none;fill-opacity:1;stroke:#ff0000;stroke-width:0.27326;stroke-opacity:1;-inkscape-stroke:hairline"
       id="rect4-9"
       width="48"
       height="100"
       x="-262.77298"
       y="-95.267639"
       transform="rotate(-120)" />
    <rect
       style="vector-effect:non-scaling-stroke;fill:none;fill-opacity:1;stroke:#ff0000;stroke-width:0.27326;stroke-opacity:1;-inkscape-stroke:hairline"
       id="rect4-4"
       width="48"
       height="100"
       x="167.57637"
       y="93.408234" />
    <path
       id="path7"
       style="vector-effect:non-scaling-stroke;fill:none;stroke:#ff0000;stroke-width:0.264583;stroke-dasharray:none;stroke-opacity:1;-inkscape-stroke:hairline"
       d="m 17.521699,86.887168 v 47.999662 h -2.99981 V 86.887168 Z" />
    <path
       id="path8"
       style="vector-effect:non-scaling-stroke;fill:none;stroke:#ff0000;stroke-width:0.264583;stroke-dasharray:none;stroke-opacity:1;-inkscape-stroke:hairline"
       d="M 83.972105,46.701938 16.915729,162.8473 l 51.02841,29.46177 v 13.1563 H 3.6989687 v -7.13238 H 51.698619 v -3.00033 H 3.6989687 V 62.440508 H 51.698619 v -2.99981 H 3.6989687 v -12.73876 z" />
    <path
       id="path7-9"
       style="vector-effect:non-scaling-stroke;fill:none;stroke:#ff0000;stroke-width:0.264583;stroke-dasharray:none;stroke-opacity:1;-inkscape-stroke:hairline"
       d="M 86.554452,121.02009 V 73.020448 h 2.99981 v 47.999642 z" />
    <path
       id="path8-4"
       style="vector-effect:non-scaling-stroke;fill:none;stroke:#ff0000;stroke-width:0.264583;stroke-dasharray:none;stroke-opacity:1;-inkscape-stroke:hairline"
       d="M 20.104042,161.20532 87.160422,45.059958 36.132012,15.598201 V 2.4419013 h 64.245168 v 7.13237 H 52.377532 V 12.574611 H 100.37718 V 145.46675 H 52.377532 v 2.99982 h 47.999648 v 12.73875 z" />
    <path
       id="path7-9-5"
       style="vector-effect:non-scaling-stroke;fill:none;stroke:#ff0000;stroke-width:0.264583;stroke-dasharray:none;stroke-opacity:1;-inkscape-stroke:hairline"
       d="M 123.91353,276.61155 H 75.913883 l 9e-6,2.99982 h 47.999638 z" />
    <path
       id="path8-4-5"
       style="vector-effect:non-scaling-stroke;fill:none;stroke:#ff0000;stroke-width:0.264583;stroke-dasharray:none;stroke-opacity:1;-inkscape-stroke:hairline"
       d="M 164.09876,210.16115 47.953393,277.21752 18.49163,226.18911 H 5.3353301 l 5.6e-6,64.24517 7.1323693,10e-6 3e-6,-47.99966 h 3.000338 l -10e-7,47.99966 H 148.36019 v -47.99965 h 2.99982 v 47.99965 h 12.73875 z" />
  </g>
</svg>
