G04*
G04 #@! TF.GenerationSoftware,Altium Limited,Altium Designer,24.6.1 (21)*
G04*
G04 Layer_Physical_Order=2*
G04 Layer_Color=32768*
%FSLAX44Y44*%
%MOMM*%
G71*
G04*
G04 #@! TF.SameCoordinates,00C63F76-EF1E-4721-A94C-C499BE19EED3*
G04*
G04*
G04 #@! TF.FilePolarity,Negative*
G04*
G01*
G75*
%ADD56C,1.0160*%
%ADD57C,2.0360*%
%ADD58C,1.8160*%
%ADD59C,2.6160*%
%ADD60O,2.5160X1.8160*%
%ADD61C,2.1160*%
G04:AMPARAMS|DCode=62|XSize=2.324mm|YSize=2.324mm|CornerRadius=0mm|HoleSize=0mm|Usage=FLASHONLY|Rotation=0.000|XOffset=0mm|YOffset=0mm|HoleType=Round|Shape=Relief|Width=0.254mm|Gap=0.254mm|Entries=4|*
%AMTHD62*
7,0,0,2.3240,1.8160,0.2540,45*
%
%ADD62THD62*%
%ADD63C,4.2160*%
%ADD64C,2.0160*%
G04:AMPARAMS|DCode=65|XSize=2.524mm|YSize=2.524mm|CornerRadius=0mm|HoleSize=0mm|Usage=FLASHONLY|Rotation=0.000|XOffset=0mm|YOffset=0mm|HoleType=Round|Shape=Relief|Width=0.254mm|Gap=0.254mm|Entries=4|*
%AMTHD65*
7,0,0,2.5240,2.0160,0.2540,45*
%
%ADD65THD65*%
G04:AMPARAMS|DCode=66|XSize=2.624mm|YSize=2.624mm|CornerRadius=0mm|HoleSize=0mm|Usage=FLASHONLY|Rotation=0.000|XOffset=0mm|YOffset=0mm|HoleType=Round|Shape=Relief|Width=0.254mm|Gap=0.254mm|Entries=4|*
%AMTHD66*
7,0,0,2.6240,2.1160,0.2540,45*
%
%ADD66THD66*%
%AMTHOVALD67*
21,1,1.2000,2.3240,0,0,90.0*
1,1,2.3240,0.0000,-0.6000*
1,1,2.3240,0.0000,0.6000*
21,0,1.2000,1.8160,0,0,90.0*
1,0,1.8160,0.0000,-0.6000*
1,0,1.8160,0.0000,0.6000*
4,0,4,0.0898,-0.5102,0.9115,-1.3319,0.7319,-1.5115,-0.0898,-0.6898,0.0898,-0.5102,0.0*
4,0,4,0.0898,0.6898,-0.7319,1.5115,-0.9115,1.3319,-0.0898,0.5102,0.0898,0.6898,0.0*
4,0,4,0.0898,-0.6898,-0.7319,-1.5115,-0.9115,-1.3319,-0.0898,-0.5102,0.0898,-0.6898,0.0*
4,0,4,0.0898,0.5102,0.9115,1.3319,0.7319,1.5115,-0.0898,0.6898,0.0898,0.5102,0.0*
%
%ADD67THOVALD67*%

G04:AMPARAMS|DCode=68|XSize=2.544mm|YSize=2.544mm|CornerRadius=0mm|HoleSize=0mm|Usage=FLASHONLY|Rotation=0.000|XOffset=0mm|YOffset=0mm|HoleType=Round|Shape=Relief|Width=0.254mm|Gap=0.254mm|Entries=4|*
%AMTHD68*
7,0,0,2.5440,2.0360,0.2540,45*
%
%ADD68THD68*%
%ADD69C,1.9160*%
%ADD70C,2.7160*%
G04:AMPARAMS|DCode=71|XSize=2.424mm|YSize=2.424mm|CornerRadius=0mm|HoleSize=0mm|Usage=FLASHONLY|Rotation=0.000|XOffset=0mm|YOffset=0mm|HoleType=Round|Shape=Relief|Width=0.254mm|Gap=0.254mm|Entries=4|*
%AMTHD71*
7,0,0,2.4240,1.9160,0.2540,45*
%
%ADD71THD71*%
%ADD72C,1.3160*%
D56*
X0Y0D02*
X1224000D01*
Y1016000D01*
X0D02*
X1224000D01*
X0Y0D02*
Y1016000D01*
D57*
X1113790Y457200D02*
D03*
Y797560D02*
D03*
X986790D02*
D03*
Y772160D02*
D03*
Y746760D02*
D03*
Y721360D02*
D03*
Y695960D02*
D03*
Y670560D02*
D03*
Y645160D02*
D03*
Y619760D02*
D03*
X1113790Y645160D02*
D03*
X986790Y457200D02*
D03*
Y431800D02*
D03*
Y406400D02*
D03*
Y381000D02*
D03*
Y355600D02*
D03*
Y330200D02*
D03*
Y304800D02*
D03*
Y279400D02*
D03*
X1113790Y304800D02*
D03*
Y695960D02*
D03*
Y670560D02*
D03*
Y721360D02*
D03*
Y746760D02*
D03*
Y355600D02*
D03*
Y330200D02*
D03*
Y381000D02*
D03*
Y406400D02*
D03*
D58*
X1039260Y953770D02*
D03*
D59*
X1027460Y871710D02*
D03*
Y837710D02*
D03*
X1126460D02*
D03*
Y871710D02*
D03*
D60*
X918210Y969730D02*
D03*
D61*
X847090Y969010D02*
D03*
X1203960Y734060D02*
D03*
Y759460D02*
D03*
X1178560D02*
D03*
Y734060D02*
D03*
X847090Y994410D02*
D03*
X821690D02*
D03*
X1178560Y688340D02*
D03*
Y662940D02*
D03*
X1174750Y345440D02*
D03*
Y320040D02*
D03*
X1176020Y400050D02*
D03*
Y425450D02*
D03*
X1203960Y662940D02*
D03*
Y688340D02*
D03*
X1200150Y320040D02*
D03*
Y345440D02*
D03*
X1201420Y400050D02*
D03*
Y425450D02*
D03*
D62*
X1089260Y953770D02*
D03*
D63*
X1168400Y958850D02*
D03*
X50800Y965200D02*
D03*
Y50800D02*
D03*
X1174750D02*
D03*
D64*
X78739Y468631D02*
D03*
Y494031D02*
D03*
Y443231D02*
D03*
Y750571D02*
D03*
X876301Y742951D02*
D03*
X901700Y742950D02*
D03*
Y772160D02*
D03*
X876301Y659131D02*
D03*
X901701D02*
D03*
X876301Y684531D02*
D03*
X901701D02*
D03*
X876300Y802640D02*
D03*
X901700D02*
D03*
X876301Y713741D02*
D03*
X901700Y713740D02*
D03*
X858520Y369570D02*
D03*
X883921Y369571D02*
D03*
X858521Y398781D02*
D03*
X883921D02*
D03*
X858521Y427991D02*
D03*
X883920Y427990D02*
D03*
X858521Y314961D02*
D03*
X883921D02*
D03*
X858521Y340361D02*
D03*
X883920Y340360D02*
D03*
X858520Y457200D02*
D03*
X883920D02*
D03*
X876301Y772161D02*
D03*
X78739Y519431D02*
D03*
Y878841D02*
D03*
Y853441D02*
D03*
Y828041D02*
D03*
X78740Y802640D02*
D03*
X78739Y725171D02*
D03*
Y627381D02*
D03*
X78740Y652780D02*
D03*
X78739Y275591D02*
D03*
X78740Y250190D02*
D03*
Y224790D02*
D03*
Y199390D02*
D03*
D65*
Y417830D02*
D03*
X78741Y173991D02*
D03*
X78740Y601980D02*
D03*
Y699770D02*
D03*
Y775970D02*
D03*
D66*
X821690Y969010D02*
D03*
D67*
X945710Y947730D02*
D03*
X890710Y955730D02*
D03*
D68*
X1113790Y619760D02*
D03*
Y772160D02*
D03*
Y279400D02*
D03*
Y431800D02*
D03*
D69*
X226060Y408940D02*
D03*
X200660Y535940D02*
D03*
Y408940D02*
D03*
X226060Y383540D02*
D03*
X708660Y535940D02*
D03*
X734060D02*
D03*
X708660Y408940D02*
D03*
X734060D02*
D03*
X708660Y383540D02*
D03*
X734060Y358140D02*
D03*
X708660Y205740D02*
D03*
X734060Y180340D02*
D03*
X200660Y561340D02*
D03*
X226060Y510540D02*
D03*
Y662940D02*
D03*
X200660D02*
D03*
X226060Y637540D02*
D03*
X200660Y612140D02*
D03*
X226060D02*
D03*
X200660Y586740D02*
D03*
X226060D02*
D03*
Y561340D02*
D03*
Y535940D02*
D03*
X200660Y510540D02*
D03*
Y485140D02*
D03*
X226060D02*
D03*
X200660Y459740D02*
D03*
X226060D02*
D03*
X200660Y434340D02*
D03*
X226060D02*
D03*
X200660Y383540D02*
D03*
Y358140D02*
D03*
X226060D02*
D03*
X200660Y332740D02*
D03*
X226060D02*
D03*
X200660Y307340D02*
D03*
X226060D02*
D03*
X200660Y281940D02*
D03*
X226060D02*
D03*
X200660Y256540D02*
D03*
X226060D02*
D03*
X200660Y231140D02*
D03*
X226060D02*
D03*
X200660Y205740D02*
D03*
X226060D02*
D03*
X200660Y180340D02*
D03*
X226060D02*
D03*
X200660Y154940D02*
D03*
X226060D02*
D03*
X200660Y129540D02*
D03*
X226060D02*
D03*
X200660Y104140D02*
D03*
X226060D02*
D03*
X200660Y78740D02*
D03*
X226060D02*
D03*
X708660Y662940D02*
D03*
X734060D02*
D03*
X708660Y637540D02*
D03*
X734060D02*
D03*
X708660Y612140D02*
D03*
X734060D02*
D03*
X708660Y586740D02*
D03*
X734060D02*
D03*
X708660Y561340D02*
D03*
X734060D02*
D03*
X708660Y510540D02*
D03*
X734060D02*
D03*
X708660Y485140D02*
D03*
X734060D02*
D03*
X708660Y459740D02*
D03*
X734060D02*
D03*
X708660Y434340D02*
D03*
X734060D02*
D03*
Y383540D02*
D03*
X708660Y358140D02*
D03*
Y332740D02*
D03*
X734060D02*
D03*
X708660Y307340D02*
D03*
X734060D02*
D03*
X708660Y281940D02*
D03*
X734060D02*
D03*
X708660Y256540D02*
D03*
X734060D02*
D03*
X708660Y231140D02*
D03*
X734060D02*
D03*
Y205740D02*
D03*
X708660Y180340D02*
D03*
Y154940D02*
D03*
X734060D02*
D03*
X708660Y129540D02*
D03*
X734060D02*
D03*
X708660Y104140D02*
D03*
X734060D02*
D03*
X708660Y78740D02*
D03*
X734060D02*
D03*
D70*
X918210Y887730D02*
D03*
Y942730D02*
D03*
D71*
X200660Y637540D02*
D03*
Y53340D02*
D03*
X226060D02*
D03*
X708660D02*
D03*
X734060D02*
D03*
X200660Y967740D02*
D03*
Y942340D02*
D03*
X734060Y840740D02*
D03*
Y815340D02*
D03*
D72*
X158750Y469900D02*
D03*
X144780Y471170D02*
D03*
X49530Y580390D02*
D03*
X107950Y532130D02*
D03*
X106680Y466090D02*
D03*
X54610Y397510D02*
D03*
X118110Y416560D02*
D03*
X72390Y349250D02*
D03*
X91440Y105410D02*
D03*
X62230Y298450D02*
D03*
X102870Y259080D02*
D03*
X55880Y154940D02*
D03*
X123190Y166370D02*
D03*
X401320Y535940D02*
D03*
X471170Y609600D02*
D03*
X466090Y535940D02*
D03*
X538480Y608330D02*
D03*
X431800Y535940D02*
D03*
X505460Y609600D02*
D03*
X386080Y421640D02*
D03*
X514350Y397510D02*
D03*
X26670Y894080D02*
D03*
X449580Y610870D02*
D03*
X356870Y560070D02*
D03*
X313690Y574040D02*
D03*
X267970D02*
D03*
M02*
