G04*
G04 #@! TF.GenerationSoftware,Altium Limited,Altium Designer,24.6.1 (21)*
G04*
G04 Layer_Physical_Order=1*
G04 Layer_Color=255*
%FSLAX44Y44*%
%MOMM*%
G71*
G04*
G04 #@! TF.SameCoordinates,00C63F76-EF1E-4721-A94C-C499BE19EED3*
G04*
G04*
G04 #@! TF.FilePolarity,Positive*
G04*
G01*
G75*
%ADD15C,0.2540*%
%ADD17R,1.8062X1.5544*%
%ADD18R,1.1055X1.6582*%
%ADD19R,1.1500X1.4500*%
%ADD21C,0.4500*%
%ADD22C,0.5000*%
%ADD23R,0.6000X0.7000*%
%ADD26C,1.3000*%
%ADD31C,1.7000*%
%ADD33R,1.3000X1.3000*%
%ADD35R,1.6000X1.6000*%
%ADD36R,1.6000X1.6000*%
%ADD42C,2.0000*%
%ADD43C,1.5300*%
%ADD44R,2.1000X2.1000*%
%ADD45C,2.1000*%
%ADD46R,2.5000X1.5000*%
%ADD47C,1.6000*%
%ADD48C,7.2000*%
%ADD49R,1.5000X1.5000*%
%ADD50R,1.5000X1.5000*%
%ADD51R,1.5000X3.0000*%
%ADD52R,1.5300X1.5300*%
%ADD53C,1.4080*%
%ADD54R,1.4080X1.4080*%
%ADD55C,0.6000*%
G36*
X1218902Y5098D02*
X5098D01*
Y1010902D01*
X1218902D01*
Y5098D01*
D02*
G37*
%LPC*%
G36*
X847090Y1001470D02*
X845263Y1001230D01*
X843560Y1000525D01*
X842098Y999402D01*
X840975Y997940D01*
X840270Y996237D01*
X840030Y994410D01*
X840270Y992583D01*
X840975Y990880D01*
X842098Y989418D01*
X843560Y988296D01*
X845263Y987590D01*
X847090Y987350D01*
X848917Y987590D01*
X850620Y988296D01*
X852082Y989418D01*
X853204Y990880D01*
X853910Y992583D01*
X854150Y994410D01*
X853910Y996237D01*
X853204Y997940D01*
X852082Y999402D01*
X850620Y1000525D01*
X848917Y1001230D01*
X847090Y1001470D01*
D02*
G37*
G36*
X821690D02*
X819863Y1001230D01*
X818160Y1000525D01*
X816698Y999402D01*
X815575Y997940D01*
X814870Y996237D01*
X814630Y994410D01*
X814870Y992583D01*
X815575Y990880D01*
X816698Y989418D01*
X818160Y988296D01*
X819863Y987590D01*
X821690Y987350D01*
X823517Y987590D01*
X825220Y988296D01*
X826682Y989418D01*
X827804Y990880D01*
X828510Y992583D01*
X828750Y994410D01*
X828510Y996237D01*
X827804Y997940D01*
X826682Y999402D01*
X825220Y1000525D01*
X823517Y1001230D01*
X821690Y1001470D01*
D02*
G37*
G36*
X1005840Y999659D02*
X1005840Y999659D01*
X936540D01*
X933538Y999264D01*
X930740Y998105D01*
X928338Y996262D01*
X928338Y996262D01*
X918210Y986134D01*
X909352Y994992D01*
X906950Y996835D01*
X904152Y997994D01*
X901150Y998389D01*
X901150Y998389D01*
X877570D01*
X874568Y997994D01*
X871770Y996835D01*
X869368Y994992D01*
X869368Y994992D01*
X854985Y980609D01*
X847090D01*
X844088Y980214D01*
X841290Y979055D01*
X840580Y978510D01*
X837590D01*
Y975520D01*
X837045Y974810D01*
X835886Y972012D01*
X835491Y969010D01*
X835886Y966008D01*
X837045Y963210D01*
X837590Y962500D01*
Y959510D01*
X840580D01*
X841290Y958965D01*
X844088Y957806D01*
X847090Y957411D01*
X859790D01*
X859790Y957411D01*
X862792Y957806D01*
X865590Y958965D01*
X867992Y960808D01*
X882375Y975191D01*
X896345D01*
X904210Y967326D01*
Y960730D01*
X911048D01*
X912410Y959685D01*
X915208Y958526D01*
X918210Y958131D01*
X921212Y958526D01*
X924010Y959685D01*
X925372Y960730D01*
X932210D01*
Y967326D01*
X941345Y976461D01*
X1001035D01*
X1016170Y961326D01*
X993005Y938161D01*
X992590D01*
Y937746D01*
X991415Y936572D01*
X989572Y934170D01*
X988413Y931372D01*
X988018Y928370D01*
X988018Y928370D01*
Y899553D01*
X988018Y899553D01*
X988413Y896551D01*
X989572Y893753D01*
X991415Y891351D01*
X1015460Y867306D01*
Y859710D01*
X1015861D01*
Y841065D01*
X1015769Y840843D01*
X1015356Y837710D01*
X1015769Y834577D01*
X1016978Y831658D01*
X1018902Y829152D01*
X1021408Y827228D01*
X1024327Y826019D01*
X1027460Y825607D01*
X1030593Y826019D01*
X1033512Y827228D01*
X1036019Y829152D01*
X1037942Y831658D01*
X1039151Y834577D01*
X1039564Y837710D01*
X1039151Y840843D01*
X1039059Y841065D01*
Y859710D01*
X1039460D01*
Y883710D01*
X1031864D01*
X1011217Y904357D01*
Y923565D01*
X1029822Y942171D01*
X1039260D01*
X1042262Y942566D01*
X1045060Y943725D01*
X1047462Y945568D01*
X1049305Y947970D01*
X1050464Y950768D01*
X1050859Y953770D01*
Y954640D01*
X1050859Y954640D01*
X1050464Y957642D01*
X1049305Y960440D01*
X1047462Y962842D01*
X1047462Y962842D01*
X1014042Y996262D01*
X1011640Y998105D01*
X1008842Y999264D01*
X1005840Y999659D01*
D02*
G37*
G36*
X918210Y952816D02*
X915600Y952473D01*
X913167Y951465D01*
X911078Y949862D01*
X909475Y947773D01*
X908467Y945340D01*
X908124Y942730D01*
X908467Y940119D01*
X909475Y937687D01*
X911078Y935598D01*
X913167Y933995D01*
X915600Y932987D01*
X918210Y932644D01*
X920820Y932987D01*
X923253Y933995D01*
X925342Y935598D01*
X926945Y937687D01*
X927953Y940119D01*
X928296Y942730D01*
X927953Y945340D01*
X926945Y947773D01*
X925342Y949862D01*
X923253Y951465D01*
X920820Y952473D01*
X918210Y952816D01*
D02*
G37*
G36*
X50800Y1002816D02*
X44916Y1002353D01*
X39176Y1000975D01*
X33723Y998716D01*
X28690Y995632D01*
X24202Y991798D01*
X20368Y987310D01*
X17284Y982277D01*
X15025Y976824D01*
X13647Y971084D01*
X13184Y965200D01*
X13647Y959316D01*
X15025Y953576D01*
X17284Y948123D01*
X20368Y943090D01*
X24202Y938602D01*
X28690Y934768D01*
X33723Y931684D01*
X39176Y929425D01*
X44916Y928047D01*
X50800Y927584D01*
X56684Y928047D01*
X62424Y929425D01*
X67877Y931684D01*
X72910Y934768D01*
X77399Y938602D01*
X81232Y943090D01*
X84316Y948123D01*
X86575Y953576D01*
X87953Y959316D01*
X88416Y965200D01*
X87953Y971084D01*
X86575Y976824D01*
X84316Y982277D01*
X81232Y987310D01*
X77399Y991798D01*
X72910Y995632D01*
X67877Y998716D01*
X62424Y1000975D01*
X56684Y1002353D01*
X50800Y1002816D01*
D02*
G37*
G36*
X1168400Y996466D02*
X1162516Y996003D01*
X1156776Y994625D01*
X1151323Y992366D01*
X1146290Y989282D01*
X1141802Y985449D01*
X1137968Y980960D01*
X1134884Y975927D01*
X1132625Y970474D01*
X1131247Y964734D01*
X1130784Y958850D01*
X1131247Y952966D01*
X1132625Y947226D01*
X1134884Y941773D01*
X1137968Y936740D01*
X1141802Y932252D01*
X1146290Y928418D01*
X1151323Y925334D01*
X1156776Y923075D01*
X1162516Y921697D01*
X1168400Y921234D01*
X1174284Y921697D01*
X1180024Y923075D01*
X1185477Y925334D01*
X1190510Y928418D01*
X1194998Y932252D01*
X1198832Y936740D01*
X1201916Y941773D01*
X1204175Y947226D01*
X1205553Y952966D01*
X1206016Y958850D01*
X1205553Y964734D01*
X1204175Y970474D01*
X1201916Y975927D01*
X1198832Y980960D01*
X1194998Y985449D01*
X1190510Y989282D01*
X1185477Y992366D01*
X1180024Y994625D01*
X1174284Y996003D01*
X1168400Y996466D01*
D02*
G37*
G36*
X51840Y912990D02*
X37340D01*
Y901084D01*
X31786D01*
X31786Y901084D01*
X30705Y900869D01*
X29789Y900257D01*
X27946Y898414D01*
X26670Y898668D01*
X24914Y898319D01*
X23426Y897324D01*
X22431Y895836D01*
X22082Y894080D01*
X22431Y892324D01*
X23426Y890836D01*
X24914Y889841D01*
X26670Y889492D01*
X28426Y889841D01*
X29914Y890836D01*
X30909Y892324D01*
X31173Y893653D01*
X32956Y895436D01*
X40110D01*
X40110Y895436D01*
X40383Y895490D01*
X51840D01*
Y912990D01*
D02*
G37*
G36*
X918210Y897816D02*
X915600Y897473D01*
X913167Y896465D01*
X911078Y894862D01*
X909475Y892773D01*
X908467Y890340D01*
X908124Y887730D01*
X908467Y885119D01*
X909475Y882687D01*
X911078Y880598D01*
X913167Y878995D01*
X915600Y877987D01*
X918210Y877644D01*
X920820Y877987D01*
X923253Y878995D01*
X925342Y880598D01*
X926945Y882687D01*
X927953Y885119D01*
X928296Y887730D01*
X927953Y890340D01*
X926945Y892773D01*
X925342Y894862D01*
X923253Y896465D01*
X920820Y897473D01*
X918210Y897816D01*
D02*
G37*
G36*
X1156450Y913299D02*
X1153448Y912904D01*
X1150650Y911745D01*
X1148248Y909902D01*
X1148248Y909902D01*
X1120630Y882284D01*
X1120408Y882192D01*
X1117902Y880268D01*
X1115978Y877762D01*
X1114769Y874843D01*
X1114356Y871710D01*
X1114769Y868577D01*
X1114861Y868355D01*
Y841065D01*
X1114769Y840843D01*
X1114356Y837710D01*
X1114769Y834577D01*
X1115978Y831658D01*
X1117902Y829152D01*
X1120408Y827228D01*
X1123327Y826019D01*
X1126460Y825607D01*
X1129593Y826019D01*
X1132512Y827228D01*
X1135018Y829152D01*
X1136942Y831658D01*
X1138151Y834577D01*
X1138564Y837710D01*
X1138151Y840843D01*
X1138059Y841065D01*
Y866905D01*
X1156834Y885680D01*
X1158007Y885194D01*
Y881653D01*
X1158007Y881652D01*
X1158402Y878650D01*
X1159561Y875853D01*
X1161404Y873450D01*
X1164219Y870636D01*
Y867237D01*
X1167943D01*
X1168950Y866464D01*
X1171748Y865305D01*
X1174750Y864910D01*
X1177752Y865305D01*
X1180550Y866464D01*
X1181557Y867237D01*
X1185281D01*
Y871882D01*
X1185954Y873507D01*
X1186349Y876509D01*
X1185954Y879511D01*
X1185281Y881136D01*
Y885781D01*
X1181882D01*
X1181206Y886457D01*
Y901700D01*
X1180810Y904702D01*
X1179652Y907500D01*
X1177808Y909902D01*
X1176634Y910803D01*
Y911491D01*
X1175737D01*
X1175406Y911745D01*
X1172608Y912904D01*
X1169606Y913299D01*
X1156450D01*
X1156450Y913299D01*
D02*
G37*
G36*
X1174750Y849590D02*
X1171748Y849195D01*
X1168950Y848036D01*
X1167943Y847263D01*
X1164219D01*
Y842618D01*
X1163546Y840993D01*
X1163151Y837991D01*
Y824399D01*
X1129030D01*
X1129030Y824399D01*
X1126028Y824004D01*
X1123230Y822845D01*
X1120828Y821002D01*
X1120828Y821002D01*
X1105588Y805762D01*
X1103745Y803360D01*
X1102586Y800562D01*
X1102191Y797560D01*
X1102586Y794558D01*
X1103745Y791760D01*
X1105588Y789358D01*
X1107990Y787515D01*
X1110788Y786356D01*
X1113790Y785961D01*
X1116792Y786356D01*
X1119590Y787515D01*
X1121992Y789358D01*
X1133835Y801201D01*
X1169670D01*
X1169670Y801201D01*
X1172672Y801596D01*
X1175470Y802755D01*
X1175801Y803009D01*
X1176697D01*
Y803697D01*
X1177872Y804598D01*
X1182952Y809678D01*
X1182952Y809678D01*
X1184795Y812080D01*
X1185954Y814878D01*
X1186349Y817880D01*
X1186349Y817880D01*
Y837991D01*
X1185954Y840993D01*
X1185281Y842618D01*
Y847263D01*
X1181557D01*
X1180550Y848036D01*
X1177752Y849195D01*
X1174750Y849590D01*
D02*
G37*
G36*
X885300Y811640D02*
X867300D01*
Y800384D01*
X636270D01*
X636270Y800384D01*
X635189Y800169D01*
X634273Y799557D01*
X634273Y799557D01*
X450075Y615360D01*
X449580Y615458D01*
X447824Y615109D01*
X446336Y614114D01*
X445341Y612626D01*
X444992Y610870D01*
X445341Y609114D01*
X446336Y607626D01*
X447824Y606631D01*
X449580Y606282D01*
X451336Y606631D01*
X452824Y607626D01*
X453819Y609114D01*
X454168Y610870D01*
X454070Y611366D01*
X637440Y794736D01*
X867300D01*
Y793640D01*
X885300D01*
Y811640D01*
D02*
G37*
G36*
X910700D02*
X892700D01*
Y793640D01*
X910700D01*
Y799816D01*
X977640D01*
Y788410D01*
X995940D01*
Y806710D01*
X977640D01*
Y805464D01*
X910700D01*
Y811640D01*
D02*
G37*
G36*
X885301Y781161D02*
X867301D01*
Y774985D01*
X633731D01*
X633731Y774985D01*
X632650Y774770D01*
X631734Y774158D01*
X471665Y614090D01*
X471170Y614188D01*
X469414Y613839D01*
X467926Y612844D01*
X466931Y611356D01*
X466582Y609600D01*
X466931Y607844D01*
X467926Y606356D01*
X469414Y605361D01*
X471170Y605012D01*
X472926Y605361D01*
X474414Y606356D01*
X475409Y607844D01*
X475758Y609600D01*
X475660Y610095D01*
X634901Y769336D01*
X867301D01*
Y763161D01*
X885301D01*
Y781161D01*
D02*
G37*
G36*
X986790Y781389D02*
X984401Y781075D01*
X982176Y780153D01*
X980264Y778686D01*
X978798Y776775D01*
X978056Y774984D01*
X910700D01*
Y781160D01*
X892700D01*
Y763160D01*
X910700D01*
Y769336D01*
X978056D01*
X978798Y767545D01*
X980264Y765634D01*
X982176Y764167D01*
X984401Y763245D01*
X986790Y762931D01*
X989179Y763245D01*
X991404Y764167D01*
X993316Y765634D01*
X994782Y767545D01*
X995704Y769771D01*
X996019Y772160D01*
X995704Y774549D01*
X994782Y776775D01*
X993316Y778686D01*
X991404Y780153D01*
X989179Y781075D01*
X986790Y781389D01*
D02*
G37*
G36*
X1178560Y769042D02*
X1176080Y768716D01*
X1173769Y767758D01*
X1171785Y766235D01*
X1170262Y764251D01*
X1169447Y762284D01*
X1126490D01*
X1126490Y762284D01*
X1125409Y762069D01*
X1124493Y761457D01*
X1124493Y761457D01*
X1117969Y754933D01*
X1116179Y755675D01*
X1113790Y755989D01*
X1111401Y755675D01*
X1109175Y754753D01*
X1107264Y753286D01*
X1105798Y751375D01*
X1104875Y749149D01*
X1104561Y746760D01*
X1104875Y744371D01*
X1105798Y742145D01*
X1107264Y740234D01*
X1109175Y738767D01*
X1111401Y737846D01*
X1113790Y737531D01*
X1116179Y737846D01*
X1118404Y738767D01*
X1120316Y740234D01*
X1121783Y742145D01*
X1122704Y744371D01*
X1123019Y746760D01*
X1122704Y749149D01*
X1121963Y750939D01*
X1127660Y756636D01*
X1169447D01*
X1170262Y754669D01*
X1171785Y752684D01*
X1173769Y751162D01*
X1176080Y750204D01*
X1178560Y749878D01*
X1181040Y750204D01*
X1183351Y751162D01*
X1185335Y752684D01*
X1186858Y754669D01*
X1187815Y756980D01*
X1188142Y759460D01*
X1187815Y761940D01*
X1186858Y764251D01*
X1185335Y766235D01*
X1183351Y767758D01*
X1181040Y768716D01*
X1178560Y769042D01*
D02*
G37*
G36*
X69340Y912990D02*
X54840D01*
Y895490D01*
X65346D01*
X69685Y891151D01*
Y885071D01*
X69685Y885071D01*
X69739Y884798D01*
Y869841D01*
X87739D01*
Y887841D01*
X75333D01*
Y892321D01*
X75118Y893402D01*
X74506Y894318D01*
X69948Y898876D01*
X70475Y900146D01*
X89000D01*
X182596Y806550D01*
Y755105D01*
X181326Y754720D01*
X181067Y755107D01*
X181067Y755107D01*
X87739Y848435D01*
Y862441D01*
X69739D01*
Y844441D01*
X83745D01*
X176246Y751940D01*
Y736055D01*
X174976Y735670D01*
X174717Y736057D01*
X174717Y736057D01*
X87739Y823035D01*
Y837041D01*
X69739D01*
Y819041D01*
X83745D01*
X169896Y732890D01*
Y487680D01*
X169896Y487680D01*
X170111Y486599D01*
X170723Y485683D01*
X192954Y463452D01*
X192340Y461969D01*
X192046Y459740D01*
X192189Y458657D01*
X190986Y458064D01*
X166654Y482396D01*
Y717550D01*
X166439Y718631D01*
X165827Y719547D01*
X165827Y719547D01*
X87740Y797634D01*
Y811640D01*
X69740D01*
Y793640D01*
X83746D01*
X161006Y716380D01*
Y648695D01*
X159736Y648168D01*
X87739Y720165D01*
Y734171D01*
X69739D01*
Y716171D01*
X83745D01*
X155926Y643990D01*
Y473425D01*
X155506Y473144D01*
X154511Y471656D01*
X154162Y469900D01*
X154511Y468144D01*
X155506Y466656D01*
X156994Y465661D01*
X158750Y465312D01*
X160506Y465661D01*
X161994Y466656D01*
X162989Y468144D01*
X163338Y469900D01*
X162989Y471656D01*
X161994Y473144D01*
X161574Y473425D01*
Y477691D01*
X162844Y478217D01*
X194169Y446893D01*
X195085Y446281D01*
X196166Y446066D01*
X196166Y446066D01*
X205154D01*
X205154Y446066D01*
X206235Y446281D01*
X207151Y446893D01*
X216380Y456121D01*
X218315D01*
X218600Y455433D01*
X219969Y453649D01*
X221753Y452280D01*
X223831Y451420D01*
X226060Y451126D01*
X228289Y451420D01*
X230367Y452280D01*
X232151Y453649D01*
X233520Y455433D01*
X234380Y457511D01*
X234674Y459740D01*
X234380Y461969D01*
X233520Y464047D01*
X232151Y465831D01*
X230367Y467200D01*
X228289Y468060D01*
X226060Y468354D01*
X223831Y468060D01*
X221753Y467200D01*
X219969Y465831D01*
X218600Y464047D01*
X217740Y461969D01*
X217714Y461770D01*
X215210D01*
X215210Y461770D01*
X214129Y461555D01*
X213213Y460943D01*
X210334Y458064D01*
X209131Y458657D01*
X209274Y459740D01*
X208980Y461969D01*
X208120Y464047D01*
X206751Y465831D01*
X204967Y467200D01*
X202889Y468060D01*
X200660Y468354D01*
X198431Y468060D01*
X196948Y467446D01*
X175544Y488850D01*
Y504735D01*
X176814Y505120D01*
X177073Y504733D01*
X192954Y488852D01*
X192340Y487369D01*
X192046Y485140D01*
X192340Y482911D01*
X193200Y480833D01*
X194569Y479049D01*
X196353Y477680D01*
X198431Y476820D01*
X200660Y476526D01*
X202889Y476820D01*
X204967Y477680D01*
X206751Y479049D01*
X208120Y480833D01*
X208980Y482911D01*
X209274Y485140D01*
X208980Y487369D01*
X208120Y489447D01*
X206751Y491231D01*
X204967Y492600D01*
X204960Y492603D01*
X205212Y493873D01*
X213333D01*
X218354Y488852D01*
X217740Y487369D01*
X217446Y485140D01*
X217740Y482911D01*
X218600Y480833D01*
X219969Y479049D01*
X221753Y477680D01*
X223831Y476820D01*
X226060Y476526D01*
X228289Y476820D01*
X230367Y477680D01*
X232151Y479049D01*
X233520Y480833D01*
X234380Y482911D01*
X234674Y485140D01*
X234380Y487369D01*
X233520Y489447D01*
X232151Y491231D01*
X230367Y492600D01*
X228289Y493460D01*
X226060Y493754D01*
X223831Y493460D01*
X222348Y492846D01*
X216500Y498694D01*
X215584Y499306D01*
X214503Y499521D01*
X214503Y499521D01*
X200329D01*
X198984Y500866D01*
X199577Y502069D01*
X200660Y501926D01*
X202889Y502220D01*
X204967Y503080D01*
X206751Y504449D01*
X208120Y506233D01*
X208980Y508311D01*
X209274Y510540D01*
X208980Y512769D01*
X208120Y514847D01*
X207383Y515807D01*
X208340Y516646D01*
X210536Y514450D01*
Y507740D01*
X210536Y507739D01*
X210751Y506659D01*
X211363Y505742D01*
X215522Y501584D01*
X215527Y501577D01*
X216297Y500605D01*
X216315Y500584D01*
X217255Y499782D01*
X219007Y498285D01*
X219194Y498061D01*
X219893Y497495D01*
X220252Y497306D01*
X220589Y497081D01*
X220736Y497052D01*
X220868Y496982D01*
X221272Y496945D01*
X221670Y496866D01*
X222570Y496866D01*
X241880D01*
X241880Y496866D01*
X242961Y497081D01*
X243877Y497693D01*
X298350Y552166D01*
X351427D01*
X351427Y552166D01*
X352508Y552381D01*
X353424Y552993D01*
X356072Y555641D01*
X356870Y555482D01*
X358626Y555831D01*
X360114Y556826D01*
X361109Y558314D01*
X361458Y560070D01*
X361109Y561826D01*
X360114Y563314D01*
X358626Y564309D01*
X356870Y564658D01*
X355114Y564309D01*
X353626Y563314D01*
X352631Y561826D01*
X352282Y560070D01*
X352320Y559877D01*
X350257Y557814D01*
X297180D01*
X297180Y557814D01*
X296099Y557599D01*
X295183Y556987D01*
X295183Y556987D01*
X240710Y502514D01*
X231715D01*
X231284Y503784D01*
X232151Y504449D01*
X233520Y506233D01*
X234380Y508311D01*
X234674Y510540D01*
X234380Y512769D01*
X233766Y514252D01*
X316130Y596616D01*
X880110D01*
X880110Y596616D01*
X881191Y596831D01*
X882107Y597443D01*
X927000Y642336D01*
X978056D01*
X978798Y640546D01*
X980264Y638634D01*
X982176Y637168D01*
X984401Y636245D01*
X986790Y635931D01*
X989179Y636245D01*
X991404Y637168D01*
X993316Y638634D01*
X994782Y640546D01*
X995704Y642771D01*
X996019Y645160D01*
X995704Y647549D01*
X994782Y649774D01*
X993316Y651686D01*
X991404Y653152D01*
X989179Y654074D01*
X986790Y654389D01*
X984401Y654074D01*
X982176Y653152D01*
X980264Y651686D01*
X978798Y649774D01*
X978056Y647984D01*
X925830D01*
X924749Y647769D01*
X923833Y647157D01*
X923833Y647157D01*
X878940Y602264D01*
X314960D01*
X313879Y602049D01*
X312963Y601437D01*
X312963Y601437D01*
X229772Y518246D01*
X228289Y518860D01*
X226060Y519154D01*
X223831Y518860D01*
X221753Y518000D01*
X219969Y516631D01*
X218600Y514847D01*
X217740Y512769D01*
X217466Y510687D01*
X217032Y510338D01*
X216243Y509952D01*
X216184Y509989D01*
Y515620D01*
X216184Y515620D01*
X215969Y516701D01*
X215357Y517617D01*
X215357Y517617D01*
X205560Y527414D01*
X205552Y527428D01*
X205715Y529055D01*
X206751Y529849D01*
X208120Y531633D01*
X208980Y533711D01*
X209274Y535940D01*
X208980Y538169D01*
X208120Y540247D01*
X206751Y542031D01*
X204967Y543400D01*
X202889Y544260D01*
X200660Y544554D01*
X198431Y544260D01*
X196353Y543400D01*
X194569Y542031D01*
X193200Y540247D01*
X192340Y538169D01*
X192046Y535940D01*
X192340Y533711D01*
X193200Y531633D01*
X194569Y529849D01*
X196353Y528480D01*
X198431Y527620D01*
X199158Y526998D01*
X199373Y525917D01*
X199985Y525001D01*
X206766Y518220D01*
X205927Y517263D01*
X204967Y518000D01*
X202889Y518860D01*
X200660Y519154D01*
X198431Y518860D01*
X196353Y518000D01*
X194569Y516631D01*
X193200Y514847D01*
X192340Y512769D01*
X192046Y510540D01*
X192189Y509457D01*
X190986Y508864D01*
X188244Y511606D01*
Y807720D01*
X188244Y807720D01*
X188029Y808801D01*
X187417Y809717D01*
X92167Y904967D01*
X91251Y905579D01*
X90170Y905794D01*
X90170Y905794D01*
X69340D01*
Y912990D01*
D02*
G37*
G36*
X1203960Y766520D02*
X1202133Y766280D01*
X1200430Y765574D01*
X1198968Y764452D01*
X1197846Y762990D01*
X1197140Y761287D01*
X1196900Y759460D01*
X1197140Y757633D01*
X1197846Y755930D01*
X1198968Y754468D01*
X1200430Y753345D01*
X1202133Y752640D01*
X1203960Y752400D01*
X1205787Y752640D01*
X1207490Y753345D01*
X1208952Y754468D01*
X1210074Y755930D01*
X1210780Y757633D01*
X1211020Y759460D01*
X1210780Y761287D01*
X1210074Y762990D01*
X1208952Y764452D01*
X1207490Y765574D01*
X1205787Y766280D01*
X1203960Y766520D01*
D02*
G37*
G36*
X986790Y755989D02*
X984401Y755675D01*
X982176Y754753D01*
X980264Y753286D01*
X978798Y751375D01*
X978056Y749584D01*
X910700D01*
Y751950D01*
X892700D01*
Y733950D01*
X910700D01*
Y743936D01*
X978056D01*
X978798Y742145D01*
X980264Y740234D01*
X982176Y738767D01*
X984401Y737846D01*
X986790Y737531D01*
X989179Y737846D01*
X991404Y738767D01*
X993316Y740234D01*
X994782Y742145D01*
X995704Y744371D01*
X996019Y746760D01*
X995704Y749149D01*
X994782Y751375D01*
X993316Y753286D01*
X991404Y754753D01*
X989179Y755675D01*
X986790Y755989D01*
D02*
G37*
G36*
X87739Y759571D02*
X69739D01*
Y745565D01*
X67747Y743573D01*
X55167D01*
X54086Y743358D01*
X53169Y742746D01*
X53169Y742746D01*
X51343Y740919D01*
X50731Y740003D01*
X50516Y738922D01*
X50516Y738922D01*
Y690880D01*
X50516Y690880D01*
X50731Y689799D01*
X51343Y688883D01*
X60233Y679993D01*
X60233Y679993D01*
X61149Y679381D01*
X62230Y679166D01*
X62230Y679166D01*
X95350D01*
X141956Y632560D01*
Y474695D01*
X141536Y474414D01*
X140541Y472926D01*
X140192Y471170D01*
X140541Y469414D01*
X141536Y467926D01*
X143024Y466931D01*
X144780Y466582D01*
X146536Y466931D01*
X148024Y467926D01*
X149019Y469414D01*
X149368Y471170D01*
X149019Y472926D01*
X148024Y474414D01*
X147604Y474695D01*
Y633730D01*
X147604Y633730D01*
X147389Y634811D01*
X146777Y635727D01*
X146777Y635727D01*
X98517Y683987D01*
X97601Y684599D01*
X96520Y684814D01*
X96520Y684814D01*
X63400D01*
X56164Y692050D01*
Y737752D01*
X56336Y737924D01*
X68917D01*
X68917Y737924D01*
X69998Y738139D01*
X70914Y738752D01*
X73733Y741571D01*
X87739D01*
Y759571D01*
D02*
G37*
G36*
X885301Y751951D02*
X867301D01*
Y745775D01*
X638811D01*
X637730Y745560D01*
X636814Y744948D01*
X636814Y744948D01*
X505956Y614090D01*
X505460Y614188D01*
X503704Y613839D01*
X502216Y612844D01*
X501221Y611356D01*
X500872Y609600D01*
X501221Y607844D01*
X502216Y606356D01*
X503704Y605361D01*
X505460Y605012D01*
X507216Y605361D01*
X508704Y606356D01*
X509699Y607844D01*
X510048Y609600D01*
X509950Y610095D01*
X639981Y740126D01*
X867301D01*
Y733951D01*
X885301D01*
Y751951D01*
D02*
G37*
G36*
X1203960Y741120D02*
X1202133Y740880D01*
X1200430Y740174D01*
X1198968Y739052D01*
X1197846Y737590D01*
X1197140Y735887D01*
X1196900Y734060D01*
X1197140Y732233D01*
X1197846Y730530D01*
X1198968Y729068D01*
X1200430Y727945D01*
X1202133Y727240D01*
X1203960Y727000D01*
X1205787Y727240D01*
X1207490Y727945D01*
X1208952Y729068D01*
X1210074Y730530D01*
X1210780Y732233D01*
X1211020Y734060D01*
X1210780Y735887D01*
X1210074Y737590D01*
X1208952Y739052D01*
X1207490Y740174D01*
X1205787Y740880D01*
X1203960Y741120D01*
D02*
G37*
G36*
X1188060Y743560D02*
X1169060D01*
Y728554D01*
X1164690Y724184D01*
X1122524D01*
X1121783Y725975D01*
X1120316Y727886D01*
X1118404Y729352D01*
X1116179Y730275D01*
X1113790Y730589D01*
X1111401Y730275D01*
X1109175Y729352D01*
X1107264Y727886D01*
X1105798Y725975D01*
X1104875Y723749D01*
X1104561Y721360D01*
X1104875Y718971D01*
X1105798Y716746D01*
X1107264Y714834D01*
X1109175Y713367D01*
X1111401Y712446D01*
X1113790Y712131D01*
X1116179Y712446D01*
X1118404Y713367D01*
X1120316Y714834D01*
X1121783Y716746D01*
X1122524Y718536D01*
X1165860D01*
X1165860Y718536D01*
X1166941Y718751D01*
X1167857Y719363D01*
X1173054Y724560D01*
X1188060D01*
Y743560D01*
D02*
G37*
G36*
X885301Y722741D02*
X867301D01*
Y716565D01*
X643891D01*
X643891Y716565D01*
X642810Y716350D01*
X641894Y715738D01*
X641894Y715738D01*
X538975Y612820D01*
X538480Y612918D01*
X536724Y612569D01*
X535236Y611574D01*
X534241Y610086D01*
X533892Y608330D01*
X534241Y606574D01*
X535236Y605086D01*
X536724Y604091D01*
X538480Y603742D01*
X540236Y604091D01*
X541724Y605086D01*
X542719Y606574D01*
X543068Y608330D01*
X542970Y608825D01*
X645061Y710917D01*
X867301D01*
Y704741D01*
X885301D01*
Y722741D01*
D02*
G37*
G36*
X986790Y730589D02*
X984401Y730275D01*
X982176Y729352D01*
X980264Y727886D01*
X978798Y725975D01*
X977876Y723749D01*
X977561Y721360D01*
X977876Y718971D01*
X978334Y717865D01*
X977033Y716564D01*
X910700D01*
Y722740D01*
X892700D01*
Y704740D01*
X910700D01*
Y710916D01*
X978203D01*
X978203Y710916D01*
X979284Y711131D01*
X980200Y711743D01*
X981977Y713520D01*
X982176Y713367D01*
X984401Y712446D01*
X986790Y712131D01*
X989179Y712446D01*
X991404Y713367D01*
X993316Y714834D01*
X994782Y716746D01*
X995704Y718971D01*
X996019Y721360D01*
X995704Y723749D01*
X994782Y725975D01*
X993316Y727886D01*
X991404Y729352D01*
X989179Y730275D01*
X986790Y730589D01*
D02*
G37*
G36*
Y705189D02*
X984401Y704874D01*
X982176Y703952D01*
X980264Y702486D01*
X978798Y700574D01*
X977876Y698349D01*
X977561Y695960D01*
X977876Y693571D01*
X978617Y691781D01*
X974191Y687355D01*
X910701D01*
Y693531D01*
X892701D01*
Y675531D01*
X910701D01*
Y681706D01*
X975361D01*
X975361Y681706D01*
X976442Y681921D01*
X977358Y682534D01*
X982611Y687787D01*
X984401Y687046D01*
X986790Y686731D01*
X989179Y687046D01*
X991404Y687968D01*
X993316Y689434D01*
X994782Y691346D01*
X995704Y693571D01*
X996019Y695960D01*
X995704Y698349D01*
X994782Y700574D01*
X993316Y702486D01*
X991404Y703952D01*
X989179Y704874D01*
X986790Y705189D01*
D02*
G37*
G36*
X1203960Y695400D02*
X1202133Y695160D01*
X1200430Y694454D01*
X1198968Y693332D01*
X1197846Y691870D01*
X1197140Y690167D01*
X1196900Y688340D01*
X1197140Y686513D01*
X1197846Y684810D01*
X1198968Y683348D01*
X1200430Y682225D01*
X1202133Y681520D01*
X1203960Y681280D01*
X1205787Y681520D01*
X1207490Y682225D01*
X1208952Y683348D01*
X1210074Y684810D01*
X1210780Y686513D01*
X1211020Y688340D01*
X1210780Y690167D01*
X1210074Y691870D01*
X1208952Y693332D01*
X1207490Y694454D01*
X1205787Y695160D01*
X1203960Y695400D01*
D02*
G37*
G36*
X1113790Y705189D02*
X1111401Y704874D01*
X1109175Y703952D01*
X1107264Y702486D01*
X1105798Y700574D01*
X1104875Y698349D01*
X1104561Y695960D01*
X1104875Y693571D01*
X1105798Y691346D01*
X1107264Y689434D01*
X1109175Y687968D01*
X1111401Y687046D01*
X1113790Y686731D01*
X1116179Y687046D01*
X1118404Y687968D01*
X1118603Y688120D01*
X1120380Y686343D01*
X1121296Y685731D01*
X1122377Y685516D01*
X1169447D01*
X1170262Y683549D01*
X1171785Y681564D01*
X1173769Y680042D01*
X1176080Y679084D01*
X1178560Y678758D01*
X1181040Y679084D01*
X1183351Y680042D01*
X1185335Y681564D01*
X1186858Y683549D01*
X1187815Y685860D01*
X1188142Y688340D01*
X1187815Y690820D01*
X1186858Y693131D01*
X1185335Y695115D01*
X1183351Y696638D01*
X1181040Y697596D01*
X1178560Y697922D01*
X1176080Y697596D01*
X1173769Y696638D01*
X1171785Y695115D01*
X1170262Y693131D01*
X1169447Y691164D01*
X1123547D01*
X1122246Y692465D01*
X1122704Y693571D01*
X1123019Y695960D01*
X1122704Y698349D01*
X1121783Y700574D01*
X1120316Y702486D01*
X1118404Y703952D01*
X1116179Y704874D01*
X1113790Y705189D01*
D02*
G37*
G36*
X885301Y693531D02*
X867301D01*
Y675531D01*
X885301D01*
Y693531D01*
D02*
G37*
G36*
X986790Y679789D02*
X984401Y679474D01*
X982176Y678552D01*
X980264Y677086D01*
X978798Y675174D01*
X978056Y673384D01*
X974090D01*
X974090Y673384D01*
X973009Y673169D01*
X972093Y672557D01*
X961491Y661955D01*
X910701D01*
Y668131D01*
X892701D01*
Y650131D01*
X910701D01*
Y656307D01*
X962661D01*
X962661Y656307D01*
X963742Y656522D01*
X964658Y657134D01*
X975260Y667736D01*
X978056D01*
X978798Y665946D01*
X980264Y664034D01*
X982176Y662568D01*
X984401Y661646D01*
X986790Y661331D01*
X989179Y661646D01*
X991404Y662568D01*
X993316Y664034D01*
X994782Y665946D01*
X995704Y668171D01*
X996019Y670560D01*
X995704Y672949D01*
X994782Y675174D01*
X993316Y677086D01*
X991404Y678552D01*
X989179Y679474D01*
X986790Y679789D01*
D02*
G37*
G36*
X1203960Y670000D02*
X1202133Y669760D01*
X1200430Y669054D01*
X1198968Y667932D01*
X1197846Y666470D01*
X1197140Y664767D01*
X1196900Y662940D01*
X1197140Y661113D01*
X1197846Y659410D01*
X1198968Y657948D01*
X1200430Y656825D01*
X1202133Y656120D01*
X1203960Y655880D01*
X1205787Y656120D01*
X1207490Y656825D01*
X1208952Y657948D01*
X1210074Y659410D01*
X1210780Y661113D01*
X1211020Y662940D01*
X1210780Y664767D01*
X1210074Y666470D01*
X1208952Y667932D01*
X1207490Y669054D01*
X1205787Y669760D01*
X1203960Y670000D01*
D02*
G37*
G36*
X717200Y671480D02*
X700120D01*
Y654400D01*
X717200D01*
Y671480D01*
D02*
G37*
G36*
X209200D02*
X192120D01*
Y654400D01*
X209200D01*
Y671480D01*
D02*
G37*
G36*
X734060Y671554D02*
X731831Y671260D01*
X729753Y670400D01*
X727969Y669031D01*
X726600Y667247D01*
X725740Y665169D01*
X725446Y662940D01*
X725740Y660711D01*
X726600Y658633D01*
X727969Y656849D01*
X729753Y655480D01*
X731831Y654620D01*
X734060Y654326D01*
X736289Y654620D01*
X738367Y655480D01*
X740151Y656849D01*
X741520Y658633D01*
X742380Y660711D01*
X742674Y662940D01*
X742380Y665169D01*
X741520Y667247D01*
X740151Y669031D01*
X738367Y670400D01*
X736289Y671260D01*
X734060Y671554D01*
D02*
G37*
G36*
X226060D02*
X223831Y671260D01*
X221753Y670400D01*
X219969Y669031D01*
X218600Y667247D01*
X217740Y665169D01*
X217446Y662940D01*
X217740Y660711D01*
X218600Y658633D01*
X219969Y656849D01*
X221753Y655480D01*
X223831Y654620D01*
X226060Y654326D01*
X228289Y654620D01*
X230367Y655480D01*
X232151Y656849D01*
X233520Y658633D01*
X234380Y660711D01*
X234674Y662940D01*
X234380Y665169D01*
X233520Y667247D01*
X232151Y669031D01*
X230367Y670400D01*
X228289Y671260D01*
X226060Y671554D01*
D02*
G37*
G36*
X1113790Y679789D02*
X1111401Y679474D01*
X1109175Y678552D01*
X1107264Y677086D01*
X1105798Y675174D01*
X1104875Y672949D01*
X1104561Y670560D01*
X1104875Y668171D01*
X1105798Y665946D01*
X1107264Y664034D01*
X1109175Y662568D01*
X1111401Y661646D01*
X1113790Y661331D01*
X1116179Y661646D01*
X1118404Y662568D01*
X1118603Y662720D01*
X1120380Y660943D01*
X1121296Y660331D01*
X1122377Y660116D01*
X1169060D01*
Y653440D01*
X1188060D01*
Y672440D01*
X1169060D01*
Y665764D01*
X1123547D01*
X1122246Y667065D01*
X1122704Y668171D01*
X1123019Y670560D01*
X1122704Y672949D01*
X1121783Y675174D01*
X1120316Y677086D01*
X1118404Y678552D01*
X1116179Y679474D01*
X1113790Y679789D01*
D02*
G37*
G36*
X885301Y668131D02*
X867301D01*
Y650131D01*
X885301D01*
Y668131D01*
D02*
G37*
G36*
X57910Y676770D02*
X43410D01*
Y659270D01*
X57910D01*
Y665196D01*
X62330D01*
X69740Y657786D01*
Y643780D01*
X87740D01*
Y661780D01*
X73734D01*
X65497Y670017D01*
X64581Y670629D01*
X63500Y670844D01*
X63500Y670844D01*
X57910D01*
Y676770D01*
D02*
G37*
G36*
X1113790Y654389D02*
X1111401Y654074D01*
X1109175Y653152D01*
X1107264Y651686D01*
X1105798Y649774D01*
X1104875Y647549D01*
X1104561Y645160D01*
X1104875Y642771D01*
X1105798Y640546D01*
X1107264Y638634D01*
X1109175Y637168D01*
X1111401Y636245D01*
X1113790Y635931D01*
X1116179Y636245D01*
X1118404Y637168D01*
X1120316Y638634D01*
X1121783Y640546D01*
X1122704Y642771D01*
X1123019Y645160D01*
X1122704Y647549D01*
X1121783Y649774D01*
X1120316Y651686D01*
X1118404Y653152D01*
X1116179Y654074D01*
X1113790Y654389D01*
D02*
G37*
G36*
X734060Y646154D02*
X731831Y645860D01*
X729753Y645000D01*
X727969Y643631D01*
X726600Y641847D01*
X725740Y639769D01*
X725446Y637540D01*
X725740Y635311D01*
X726600Y633233D01*
X727969Y631449D01*
X729753Y630080D01*
X731831Y629220D01*
X734060Y628926D01*
X736289Y629220D01*
X738367Y630080D01*
X740151Y631449D01*
X741520Y633233D01*
X742380Y635311D01*
X742674Y637540D01*
X742380Y639769D01*
X741520Y641847D01*
X740151Y643631D01*
X738367Y645000D01*
X736289Y645860D01*
X734060Y646154D01*
D02*
G37*
G36*
X708660D02*
X706431Y645860D01*
X704353Y645000D01*
X702569Y643631D01*
X701200Y641847D01*
X700340Y639769D01*
X700046Y637540D01*
X700340Y635311D01*
X701200Y633233D01*
X702569Y631449D01*
X704353Y630080D01*
X706431Y629220D01*
X708660Y628926D01*
X710889Y629220D01*
X712967Y630080D01*
X714751Y631449D01*
X716120Y633233D01*
X716980Y635311D01*
X717274Y637540D01*
X716980Y639769D01*
X716120Y641847D01*
X714751Y643631D01*
X712967Y645000D01*
X710889Y645860D01*
X708660Y646154D01*
D02*
G37*
G36*
X226060D02*
X223831Y645860D01*
X221753Y645000D01*
X219969Y643631D01*
X218600Y641847D01*
X217740Y639769D01*
X217446Y637540D01*
X217740Y635311D01*
X218600Y633233D01*
X219969Y631449D01*
X221753Y630080D01*
X223831Y629220D01*
X226060Y628926D01*
X228289Y629220D01*
X230367Y630080D01*
X232151Y631449D01*
X233520Y633233D01*
X234380Y635311D01*
X234674Y637540D01*
X234380Y639769D01*
X233520Y641847D01*
X232151Y643631D01*
X230367Y645000D01*
X228289Y645860D01*
X226060Y646154D01*
D02*
G37*
G36*
X87739Y636381D02*
X69739D01*
Y630205D01*
X58191D01*
X57110Y629990D01*
X56194Y629378D01*
X56194Y629378D01*
X52786Y625970D01*
X42280D01*
Y608470D01*
X56780D01*
Y621976D01*
X59361Y624557D01*
X69739D01*
Y621424D01*
X69685Y621151D01*
X69739Y620878D01*
Y618381D01*
X72236D01*
X72509Y618326D01*
X72782Y618381D01*
X87739D01*
Y636381D01*
D02*
G37*
G36*
X986790Y628989D02*
X984401Y628675D01*
X982176Y627752D01*
X980264Y626286D01*
X978798Y624375D01*
X978056Y622584D01*
X932180D01*
X931099Y622369D01*
X930183Y621757D01*
X930183Y621757D01*
X885290Y576864D01*
X317215D01*
X316934Y577284D01*
X315446Y578279D01*
X313690Y578628D01*
X311934Y578279D01*
X310446Y577284D01*
X309451Y575796D01*
X309102Y574040D01*
X309451Y572284D01*
X310446Y570796D01*
X311934Y569801D01*
X313690Y569452D01*
X315446Y569801D01*
X316934Y570796D01*
X317215Y571216D01*
X886460D01*
X886460Y571216D01*
X887541Y571431D01*
X888457Y572043D01*
X933350Y616936D01*
X978056D01*
X978798Y615145D01*
X980264Y613234D01*
X982176Y611768D01*
X984401Y610845D01*
X986790Y610531D01*
X989179Y610845D01*
X991404Y611768D01*
X993316Y613234D01*
X994782Y615145D01*
X995704Y617371D01*
X996019Y619760D01*
X995704Y622149D01*
X994782Y624375D01*
X993316Y626286D01*
X991404Y627752D01*
X989179Y628675D01*
X986790Y628989D01*
D02*
G37*
G36*
X734060Y620754D02*
X731831Y620460D01*
X729753Y619600D01*
X727969Y618231D01*
X726600Y616447D01*
X725740Y614369D01*
X725446Y612140D01*
X725740Y609911D01*
X726600Y607833D01*
X727969Y606049D01*
X729753Y604680D01*
X731831Y603820D01*
X734060Y603526D01*
X736289Y603820D01*
X738367Y604680D01*
X740151Y606049D01*
X741520Y607833D01*
X742380Y609911D01*
X742674Y612140D01*
X742380Y614369D01*
X741520Y616447D01*
X740151Y618231D01*
X738367Y619600D01*
X736289Y620460D01*
X734060Y620754D01*
D02*
G37*
G36*
X708660D02*
X706431Y620460D01*
X704353Y619600D01*
X702569Y618231D01*
X701200Y616447D01*
X700340Y614369D01*
X700046Y612140D01*
X700340Y609911D01*
X701200Y607833D01*
X702569Y606049D01*
X704353Y604680D01*
X706431Y603820D01*
X708660Y603526D01*
X710889Y603820D01*
X712967Y604680D01*
X714751Y606049D01*
X716120Y607833D01*
X716980Y609911D01*
X717274Y612140D01*
X716980Y614369D01*
X716120Y616447D01*
X714751Y618231D01*
X712967Y619600D01*
X710889Y620460D01*
X708660Y620754D01*
D02*
G37*
G36*
X226060D02*
X223831Y620460D01*
X221753Y619600D01*
X219969Y618231D01*
X218600Y616447D01*
X217740Y614369D01*
X217446Y612140D01*
X217740Y609911D01*
X218600Y607833D01*
X219969Y606049D01*
X221753Y604680D01*
X223831Y603820D01*
X226060Y603526D01*
X228289Y603820D01*
X230367Y604680D01*
X232151Y606049D01*
X233520Y607833D01*
X234380Y609911D01*
X234674Y612140D01*
X234380Y614369D01*
X233520Y616447D01*
X232151Y618231D01*
X230367Y619600D01*
X228289Y620460D01*
X226060Y620754D01*
D02*
G37*
G36*
X200660D02*
X198431Y620460D01*
X196353Y619600D01*
X194569Y618231D01*
X193200Y616447D01*
X192340Y614369D01*
X192046Y612140D01*
X192340Y609911D01*
X193200Y607833D01*
X194569Y606049D01*
X196353Y604680D01*
X198431Y603820D01*
X200660Y603526D01*
X202889Y603820D01*
X204967Y604680D01*
X206751Y606049D01*
X208120Y607833D01*
X208980Y609911D01*
X209274Y612140D01*
X208980Y614369D01*
X208120Y616447D01*
X206751Y618231D01*
X204967Y619600D01*
X202889Y620460D01*
X200660Y620754D01*
D02*
G37*
G36*
X734060Y595354D02*
X731831Y595060D01*
X729753Y594200D01*
X727969Y592831D01*
X726600Y591047D01*
X725740Y588969D01*
X725446Y586740D01*
X725740Y584511D01*
X726600Y582433D01*
X727969Y580649D01*
X729753Y579280D01*
X731831Y578420D01*
X734060Y578126D01*
X736289Y578420D01*
X738367Y579280D01*
X740151Y580649D01*
X741520Y582433D01*
X742380Y584511D01*
X742674Y586740D01*
X742380Y588969D01*
X741520Y591047D01*
X740151Y592831D01*
X738367Y594200D01*
X736289Y595060D01*
X734060Y595354D01*
D02*
G37*
G36*
X708660D02*
X706431Y595060D01*
X704353Y594200D01*
X702569Y592831D01*
X701200Y591047D01*
X700340Y588969D01*
X700046Y586740D01*
X700340Y584511D01*
X701200Y582433D01*
X702569Y580649D01*
X704353Y579280D01*
X706431Y578420D01*
X708660Y578126D01*
X710889Y578420D01*
X712967Y579280D01*
X714751Y580649D01*
X716120Y582433D01*
X716980Y584511D01*
X717274Y586740D01*
X716980Y588969D01*
X716120Y591047D01*
X714751Y592831D01*
X712967Y594200D01*
X710889Y595060D01*
X708660Y595354D01*
D02*
G37*
G36*
X226060D02*
X223831Y595060D01*
X221753Y594200D01*
X219969Y592831D01*
X218600Y591047D01*
X217740Y588969D01*
X217446Y586740D01*
X217740Y584511D01*
X218600Y582433D01*
X219969Y580649D01*
X221753Y579280D01*
X223831Y578420D01*
X226060Y578126D01*
X228289Y578420D01*
X230367Y579280D01*
X232151Y580649D01*
X233520Y582433D01*
X234380Y584511D01*
X234674Y586740D01*
X234380Y588969D01*
X233520Y591047D01*
X232151Y592831D01*
X230367Y594200D01*
X228289Y595060D01*
X226060Y595354D01*
D02*
G37*
G36*
X200660D02*
X198431Y595060D01*
X196353Y594200D01*
X194569Y592831D01*
X193200Y591047D01*
X192340Y588969D01*
X192046Y586740D01*
X192340Y584511D01*
X193200Y582433D01*
X194569Y580649D01*
X196353Y579280D01*
X198431Y578420D01*
X200660Y578126D01*
X202889Y578420D01*
X204967Y579280D01*
X206751Y580649D01*
X208120Y582433D01*
X208980Y584511D01*
X209274Y586740D01*
X208980Y588969D01*
X208120Y591047D01*
X206751Y592831D01*
X204967Y594200D01*
X202889Y595060D01*
X200660Y595354D01*
D02*
G37*
G36*
X267970Y578628D02*
X266214Y578279D01*
X264726Y577284D01*
X264445Y576864D01*
X223416D01*
X223416Y576864D01*
X222335Y576649D01*
X221419Y576037D01*
X221419Y576037D01*
X210340Y564958D01*
X208405D01*
X208120Y565647D01*
X206751Y567431D01*
X204967Y568800D01*
X202889Y569660D01*
X200660Y569954D01*
X198431Y569660D01*
X196353Y568800D01*
X194569Y567431D01*
X193200Y565647D01*
X192340Y563569D01*
X192046Y561340D01*
X192340Y559111D01*
X193200Y557033D01*
X194569Y555249D01*
X196353Y553880D01*
X198431Y553020D01*
X200660Y552726D01*
X202889Y553020D01*
X204967Y553880D01*
X206751Y555249D01*
X208120Y557033D01*
X208980Y559111D01*
X209006Y559310D01*
X211510D01*
X211510Y559310D01*
X212591Y559525D01*
X213507Y560137D01*
X216386Y563016D01*
X217589Y562423D01*
X217446Y561340D01*
X217740Y559111D01*
X218600Y557033D01*
X219969Y555249D01*
X221753Y553880D01*
X223831Y553020D01*
X226060Y552726D01*
X228289Y553020D01*
X230367Y553880D01*
X232151Y555249D01*
X233520Y557033D01*
X234380Y559111D01*
X234674Y561340D01*
X234380Y563569D01*
X233520Y565647D01*
X232151Y567431D01*
X230367Y568800D01*
X228289Y569660D01*
X226385Y569911D01*
X225828Y570707D01*
X225681Y571185D01*
X225700Y571216D01*
X264445D01*
X264726Y570796D01*
X266214Y569801D01*
X267970Y569452D01*
X269726Y569801D01*
X271214Y570796D01*
X272209Y572284D01*
X272558Y574040D01*
X272209Y575796D01*
X271214Y577284D01*
X269726Y578279D01*
X267970Y578628D01*
D02*
G37*
G36*
X40410Y676770D02*
X25910D01*
Y659270D01*
X30336D01*
Y625970D01*
X24780D01*
Y608470D01*
X29206D01*
Y597890D01*
X29206Y597890D01*
X29421Y596809D01*
X30033Y595893D01*
X45040Y580886D01*
X44942Y580390D01*
X45291Y578634D01*
X46286Y577146D01*
X46706Y576865D01*
Y574440D01*
X43686Y571420D01*
X38680D01*
Y561420D01*
X47680D01*
Y567426D01*
X51527Y571273D01*
X51527Y571273D01*
X52139Y572189D01*
X52354Y573270D01*
Y576865D01*
X52774Y577146D01*
X53055Y577566D01*
X64920D01*
X75560Y566926D01*
Y561420D01*
X84560D01*
Y571420D01*
X79054D01*
X68087Y582387D01*
X67171Y582999D01*
X66090Y583214D01*
X66090Y583214D01*
X53055D01*
X52774Y583634D01*
X51286Y584629D01*
X49530Y584978D01*
X49035Y584880D01*
X34854Y599060D01*
Y608470D01*
X39280D01*
Y625970D01*
X35984D01*
Y659270D01*
X40410D01*
Y676770D01*
D02*
G37*
G36*
X734060Y569954D02*
X731831Y569660D01*
X729753Y568800D01*
X727969Y567431D01*
X726600Y565647D01*
X725740Y563569D01*
X725446Y561340D01*
X725740Y559111D01*
X726600Y557033D01*
X727969Y555249D01*
X729753Y553880D01*
X731831Y553020D01*
X734060Y552726D01*
X736289Y553020D01*
X738367Y553880D01*
X740151Y555249D01*
X741520Y557033D01*
X742380Y559111D01*
X742674Y561340D01*
X742380Y563569D01*
X741520Y565647D01*
X740151Y567431D01*
X738367Y568800D01*
X736289Y569660D01*
X734060Y569954D01*
D02*
G37*
G36*
X708660D02*
X706431Y569660D01*
X704353Y568800D01*
X702569Y567431D01*
X701200Y565647D01*
X700340Y563569D01*
X700046Y561340D01*
X700340Y559111D01*
X701200Y557033D01*
X702569Y555249D01*
X704353Y553880D01*
X706431Y553020D01*
X708660Y552726D01*
X710889Y553020D01*
X712967Y553880D01*
X714751Y555249D01*
X716120Y557033D01*
X716980Y559111D01*
X717274Y561340D01*
X716980Y563569D01*
X716120Y565647D01*
X714751Y567431D01*
X712967Y568800D01*
X710889Y569660D01*
X708660Y569954D01*
D02*
G37*
G36*
X94060Y551420D02*
X85060D01*
Y541420D01*
X91017D01*
X91290Y541366D01*
X93432D01*
X93473Y541304D01*
X92795Y540034D01*
X63060D01*
X57180Y545914D01*
Y551420D01*
X48180D01*
Y541420D01*
X53686D01*
X59893Y535213D01*
X59893Y535213D01*
X60809Y534601D01*
X61890Y534386D01*
X61890Y534386D01*
X94080D01*
X96236Y532230D01*
Y507588D01*
X95062Y507102D01*
X87739Y514425D01*
Y528431D01*
X69739D01*
Y510431D01*
X83745D01*
X96236Y497940D01*
Y487680D01*
X96236Y487680D01*
X96451Y486599D01*
X97063Y485683D01*
X182596Y400150D01*
Y381725D01*
X181326Y381340D01*
X181067Y381727D01*
X181067Y381727D01*
X106864Y455930D01*
X108217Y457283D01*
X108217Y457283D01*
X108829Y458199D01*
X109044Y459280D01*
X109044Y459280D01*
Y462258D01*
X109924Y462846D01*
X110919Y464334D01*
X111268Y466090D01*
X110919Y467846D01*
X109924Y469334D01*
X108436Y470329D01*
X106680Y470678D01*
X104924Y470329D01*
X103436Y469334D01*
X102441Y467846D01*
X102092Y466090D01*
X102441Y464334D01*
X103396Y462906D01*
Y461194D01*
X102126Y460668D01*
X100614Y462180D01*
Y474980D01*
X100399Y476061D01*
X99787Y476977D01*
X99787Y476977D01*
X87739Y489025D01*
Y503031D01*
X69739D01*
Y485031D01*
X83745D01*
X94966Y473810D01*
Y461010D01*
X94966Y461010D01*
X95181Y459929D01*
X95793Y459013D01*
X100873Y453933D01*
X100873Y453933D01*
X176246Y378560D01*
Y376914D01*
X174976Y376388D01*
X125187Y426177D01*
X87739Y463625D01*
Y477631D01*
X69739D01*
Y459631D01*
X83745D01*
X119609Y423767D01*
Y422053D01*
X118605Y421050D01*
X118110Y421148D01*
X116354Y420799D01*
X114866Y419804D01*
X113871Y418316D01*
X113522Y416560D01*
X113871Y414804D01*
X114866Y413316D01*
X116354Y412321D01*
X118110Y411972D01*
X119866Y412321D01*
X121354Y413316D01*
X122349Y414804D01*
X122698Y416560D01*
X122600Y417056D01*
X124460Y418916D01*
X171166Y372210D01*
Y356595D01*
X169896Y356068D01*
X108042Y417922D01*
X87739Y438225D01*
Y452231D01*
X69739D01*
Y434231D01*
X83745D01*
X102051Y415925D01*
X89443Y403317D01*
X88831Y402401D01*
X88616Y401320D01*
X88616Y401320D01*
Y389650D01*
X86940D01*
Y379650D01*
X95940D01*
Y389650D01*
X94264D01*
Y400150D01*
X106045Y411931D01*
X166086Y351890D01*
Y243840D01*
X166086Y243840D01*
X166301Y242759D01*
X166913Y241843D01*
X192313Y216443D01*
X192313Y216443D01*
X193229Y215831D01*
X194310Y215616D01*
X194310Y215616D01*
X212190D01*
X218354Y209452D01*
X217740Y207969D01*
X217446Y205740D01*
X217740Y203511D01*
X218600Y201433D01*
X219969Y199649D01*
X221753Y198280D01*
X223831Y197420D01*
X226060Y197126D01*
X228289Y197420D01*
X230367Y198280D01*
X232151Y199649D01*
X233520Y201433D01*
X234380Y203511D01*
X234674Y205740D01*
X234380Y207969D01*
X233520Y210047D01*
X232151Y211831D01*
X230367Y213200D01*
X228289Y214060D01*
X226060Y214354D01*
X223831Y214060D01*
X222348Y213446D01*
X215357Y220437D01*
X214441Y221049D01*
X213360Y221264D01*
X213360Y221264D01*
X195480D01*
X171734Y245010D01*
Y306346D01*
X173004Y306872D01*
X176246Y303630D01*
Y252730D01*
X176246Y252730D01*
X176461Y251649D01*
X177073Y250733D01*
X192954Y234852D01*
X192340Y233369D01*
X192046Y231140D01*
X192340Y228911D01*
X193200Y226833D01*
X194569Y225049D01*
X196353Y223680D01*
X198431Y222820D01*
X200660Y222526D01*
X202889Y222820D01*
X204967Y223680D01*
X206751Y225049D01*
X208120Y226833D01*
X208980Y228911D01*
X209274Y231140D01*
X208980Y233369D01*
X208120Y235447D01*
X206751Y237231D01*
X204967Y238600D01*
X202889Y239460D01*
X200660Y239754D01*
X198431Y239460D01*
X196948Y238846D01*
X196048Y239746D01*
X196574Y241016D01*
X212190D01*
X218354Y234852D01*
X217740Y233369D01*
X217446Y231140D01*
X217740Y228911D01*
X218600Y226833D01*
X219969Y225049D01*
X221753Y223680D01*
X223831Y222820D01*
X226060Y222526D01*
X228289Y222820D01*
X230367Y223680D01*
X232151Y225049D01*
X233520Y226833D01*
X234380Y228911D01*
X234674Y231140D01*
X234380Y233369D01*
X233520Y235447D01*
X232151Y237231D01*
X230367Y238600D01*
X228289Y239460D01*
X226060Y239754D01*
X223831Y239460D01*
X222348Y238846D01*
X215357Y245837D01*
X214441Y246449D01*
X213360Y246664D01*
X213360Y246664D01*
X196750D01*
X194554Y248860D01*
X195393Y249817D01*
X196353Y249080D01*
X198431Y248220D01*
X200660Y247926D01*
X202889Y248220D01*
X204967Y249080D01*
X206751Y250449D01*
X208120Y252233D01*
X208980Y254311D01*
X209274Y256540D01*
X208980Y258769D01*
X208366Y260252D01*
X215357Y267243D01*
X215357Y267243D01*
X215969Y268159D01*
X216184Y269240D01*
X216184Y269240D01*
Y312420D01*
X215969Y313501D01*
X215357Y314417D01*
X215357Y314417D01*
X205887Y323887D01*
X205495Y324149D01*
X205431Y324287D01*
X205398Y325593D01*
X205408Y325619D01*
X206751Y326649D01*
X208120Y328433D01*
X208980Y330511D01*
X209274Y332740D01*
X208980Y334969D01*
X208120Y337047D01*
X206751Y338831D01*
X204967Y340200D01*
X202889Y341060D01*
X200660Y341354D01*
X198431Y341060D01*
X196353Y340200D01*
X194569Y338831D01*
X193200Y337047D01*
X192340Y334969D01*
X192046Y332740D01*
X192340Y330511D01*
X193200Y328433D01*
X194569Y326649D01*
X195436Y325984D01*
X195005Y324714D01*
X191090D01*
X188244Y327560D01*
Y401320D01*
X188029Y402401D01*
X187417Y403317D01*
X101884Y488850D01*
Y499110D01*
Y531252D01*
X103154Y531897D01*
X103451Y531680D01*
X103711Y530374D01*
X104706Y528886D01*
X106194Y527891D01*
X107950Y527542D01*
X109706Y527891D01*
X111194Y528886D01*
X112189Y530374D01*
X112538Y532130D01*
X112189Y533886D01*
X111194Y535374D01*
X109706Y536369D01*
X107950Y536718D01*
X107455Y536620D01*
X97887Y546187D01*
X96971Y546799D01*
X95890Y547014D01*
X95890Y547014D01*
X94060D01*
Y551420D01*
D02*
G37*
G36*
X466090Y540528D02*
X464334Y540179D01*
X462846Y539184D01*
X461851Y537696D01*
X461502Y535940D01*
X461600Y535444D01*
X312520Y386364D01*
X234134D01*
X233520Y387847D01*
X232151Y389631D01*
X230367Y391000D01*
X228289Y391860D01*
X226060Y392154D01*
X223831Y391860D01*
X221753Y391000D01*
X219969Y389631D01*
X218600Y387847D01*
X217740Y385769D01*
X217446Y383540D01*
X217740Y381311D01*
X218600Y379233D01*
X219969Y377449D01*
X221753Y376080D01*
X223831Y375220D01*
X226060Y374926D01*
X228289Y375220D01*
X230367Y376080D01*
X232151Y377449D01*
X233520Y379233D01*
X234134Y380716D01*
X313690D01*
X313690Y380716D01*
X314771Y380931D01*
X315687Y381543D01*
X465594Y531450D01*
X466090Y531352D01*
X467846Y531701D01*
X469334Y532696D01*
X470329Y534184D01*
X470678Y535940D01*
X470329Y537696D01*
X469334Y539184D01*
X467846Y540179D01*
X466090Y540528D01*
D02*
G37*
G36*
X431800D02*
X430044Y540179D01*
X428556Y539184D01*
X427561Y537696D01*
X427212Y535940D01*
X427310Y535444D01*
X292780Y400914D01*
X231715D01*
X231284Y402184D01*
X232151Y402849D01*
X233520Y404633D01*
X234134Y406116D01*
X274320D01*
X274320Y406116D01*
X275401Y406331D01*
X276317Y406943D01*
X400825Y531450D01*
X401320Y531352D01*
X403076Y531701D01*
X404564Y532696D01*
X405559Y534184D01*
X405908Y535940D01*
X405559Y537696D01*
X404564Y539184D01*
X403076Y540179D01*
X401320Y540528D01*
X399564Y540179D01*
X398076Y539184D01*
X397081Y537696D01*
X396732Y535940D01*
X396830Y535444D01*
X273150Y411764D01*
X234134D01*
X233520Y413247D01*
X232151Y415031D01*
X230367Y416400D01*
X228289Y417260D01*
X226060Y417554D01*
X223831Y417260D01*
X221753Y416400D01*
X219969Y415031D01*
X218600Y413247D01*
X217740Y411169D01*
X217446Y408940D01*
X217589Y407857D01*
X216386Y407264D01*
X213507Y410143D01*
X212591Y410755D01*
X211510Y410970D01*
X211510Y410970D01*
X209006D01*
X208980Y411169D01*
X208120Y413247D01*
X206751Y415031D01*
X204967Y416400D01*
X202889Y417260D01*
X200660Y417554D01*
X198431Y417260D01*
X196353Y416400D01*
X194569Y415031D01*
X193200Y413247D01*
X192340Y411169D01*
X192046Y408940D01*
X192340Y406711D01*
X193200Y404633D01*
X194569Y402849D01*
X196353Y401480D01*
X198431Y400620D01*
X200660Y400326D01*
X202889Y400620D01*
X204967Y401480D01*
X206751Y402849D01*
X208120Y404633D01*
X208405Y405322D01*
X210340D01*
X219569Y396093D01*
X220485Y395481D01*
X221566Y395266D01*
X221566Y395266D01*
X293950D01*
X293950Y395266D01*
X295031Y395481D01*
X295947Y396093D01*
X431305Y531450D01*
X431800Y531352D01*
X433556Y531701D01*
X435044Y532696D01*
X436039Y534184D01*
X436388Y535940D01*
X436039Y537696D01*
X435044Y539184D01*
X433556Y540179D01*
X431800Y540528D01*
D02*
G37*
G36*
X734060Y544554D02*
X731831Y544260D01*
X729753Y543400D01*
X727969Y542031D01*
X726600Y540247D01*
X725740Y538169D01*
X725446Y535940D01*
X725740Y533711D01*
X726600Y531633D01*
X727969Y529849D01*
X729753Y528480D01*
X731831Y527620D01*
X734060Y527326D01*
X736289Y527620D01*
X738367Y528480D01*
X740151Y529849D01*
X741520Y531633D01*
X742380Y533711D01*
X742674Y535940D01*
X742380Y538169D01*
X741520Y540247D01*
X740151Y542031D01*
X738367Y543400D01*
X736289Y544260D01*
X734060Y544554D01*
D02*
G37*
G36*
X708660D02*
X706431Y544260D01*
X704353Y543400D01*
X702569Y542031D01*
X701200Y540247D01*
X700340Y538169D01*
X700046Y535940D01*
X700340Y533711D01*
X701200Y531633D01*
X702569Y529849D01*
X704353Y528480D01*
X706431Y527620D01*
X708660Y527326D01*
X710889Y527620D01*
X712967Y528480D01*
X714751Y529849D01*
X716120Y531633D01*
X716980Y533711D01*
X717274Y535940D01*
X716980Y538169D01*
X716120Y540247D01*
X714751Y542031D01*
X712967Y543400D01*
X710889Y544260D01*
X708660Y544554D01*
D02*
G37*
G36*
X226060D02*
X223831Y544260D01*
X221753Y543400D01*
X219969Y542031D01*
X218600Y540247D01*
X217740Y538169D01*
X217446Y535940D01*
X217740Y533711D01*
X218600Y531633D01*
X219969Y529849D01*
X221753Y528480D01*
X223831Y527620D01*
X226060Y527326D01*
X228289Y527620D01*
X230367Y528480D01*
X232151Y529849D01*
X233520Y531633D01*
X234380Y533711D01*
X234674Y535940D01*
X234380Y538169D01*
X233520Y540247D01*
X232151Y542031D01*
X230367Y543400D01*
X228289Y544260D01*
X226060Y544554D01*
D02*
G37*
G36*
X734060Y519154D02*
X731831Y518860D01*
X729753Y518000D01*
X727969Y516631D01*
X726600Y514847D01*
X725740Y512769D01*
X725446Y510540D01*
X725740Y508311D01*
X726600Y506233D01*
X727969Y504449D01*
X729753Y503080D01*
X731831Y502220D01*
X734060Y501926D01*
X736289Y502220D01*
X738367Y503080D01*
X740151Y504449D01*
X741520Y506233D01*
X742380Y508311D01*
X742674Y510540D01*
X742380Y512769D01*
X741520Y514847D01*
X740151Y516631D01*
X738367Y518000D01*
X736289Y518860D01*
X734060Y519154D01*
D02*
G37*
G36*
X708660D02*
X706431Y518860D01*
X704353Y518000D01*
X702569Y516631D01*
X701200Y514847D01*
X700340Y512769D01*
X700046Y510540D01*
X700340Y508311D01*
X701200Y506233D01*
X702569Y504449D01*
X704353Y503080D01*
X706431Y502220D01*
X708660Y501926D01*
X710889Y502220D01*
X712967Y503080D01*
X714751Y504449D01*
X716120Y506233D01*
X716980Y508311D01*
X717274Y510540D01*
X716980Y512769D01*
X716120Y514847D01*
X714751Y516631D01*
X712967Y518000D01*
X710889Y518860D01*
X708660Y519154D01*
D02*
G37*
G36*
X734060Y493754D02*
X731831Y493460D01*
X729753Y492600D01*
X727969Y491231D01*
X726600Y489447D01*
X725740Y487369D01*
X725446Y485140D01*
X725740Y482911D01*
X726600Y480833D01*
X727969Y479049D01*
X729753Y477680D01*
X731831Y476820D01*
X734060Y476526D01*
X736289Y476820D01*
X738367Y477680D01*
X740151Y479049D01*
X741520Y480833D01*
X742380Y482911D01*
X742674Y485140D01*
X742380Y487369D01*
X741520Y489447D01*
X740151Y491231D01*
X738367Y492600D01*
X736289Y493460D01*
X734060Y493754D01*
D02*
G37*
G36*
X708660D02*
X706431Y493460D01*
X704353Y492600D01*
X702569Y491231D01*
X701200Y489447D01*
X700340Y487369D01*
X700046Y485140D01*
X700340Y482911D01*
X701200Y480833D01*
X702569Y479049D01*
X704353Y477680D01*
X706431Y476820D01*
X708660Y476526D01*
X710889Y476820D01*
X712967Y477680D01*
X714751Y479049D01*
X716120Y480833D01*
X716980Y482911D01*
X717274Y485140D01*
X716980Y487369D01*
X716120Y489447D01*
X714751Y491231D01*
X712967Y492600D01*
X710889Y493460D01*
X708660Y493754D01*
D02*
G37*
G36*
X995940Y466350D02*
X977640D01*
Y460024D01*
X892920D01*
Y466200D01*
X874920D01*
Y448200D01*
X892920D01*
Y454376D01*
X977640D01*
Y448050D01*
X995940D01*
Y466350D01*
D02*
G37*
G36*
X734060Y468354D02*
X731831Y468060D01*
X729753Y467200D01*
X727969Y465831D01*
X726600Y464047D01*
X725740Y461969D01*
X725446Y459740D01*
X725740Y457511D01*
X726600Y455433D01*
X727969Y453649D01*
X729753Y452280D01*
X731831Y451420D01*
X734060Y451126D01*
X736289Y451420D01*
X738367Y452280D01*
X740151Y453649D01*
X741520Y455433D01*
X742380Y457511D01*
X742674Y459740D01*
X742380Y461969D01*
X741520Y464047D01*
X740151Y465831D01*
X738367Y467200D01*
X736289Y468060D01*
X734060Y468354D01*
D02*
G37*
G36*
X708660D02*
X706431Y468060D01*
X704353Y467200D01*
X702569Y465831D01*
X701200Y464047D01*
X700340Y461969D01*
X700046Y459740D01*
X700340Y457511D01*
X701200Y455433D01*
X702569Y453649D01*
X704353Y452280D01*
X706431Y451420D01*
X708660Y451126D01*
X710889Y451420D01*
X712967Y452280D01*
X714751Y453649D01*
X716120Y455433D01*
X716980Y457511D01*
X717274Y459740D01*
X716980Y461969D01*
X716120Y464047D01*
X714751Y465831D01*
X712967Y467200D01*
X710889Y468060D01*
X708660Y468354D01*
D02*
G37*
G36*
X867520Y466200D02*
X849520D01*
Y460024D01*
X806166D01*
X805086Y459809D01*
X804169Y459197D01*
X771286Y426314D01*
X739715D01*
X739284Y427584D01*
X740151Y428249D01*
X741520Y430033D01*
X742380Y432111D01*
X742674Y434340D01*
X742380Y436569D01*
X741520Y438647D01*
X740151Y440431D01*
X738367Y441800D01*
X736289Y442660D01*
X734060Y442954D01*
X731831Y442660D01*
X729753Y441800D01*
X727969Y440431D01*
X726600Y438647D01*
X725740Y436569D01*
X725446Y434340D01*
X725740Y432111D01*
X726600Y430033D01*
X727969Y428249D01*
X728836Y427584D01*
X728405Y426314D01*
X723210D01*
X723210Y426314D01*
X722129Y426099D01*
X721213Y425487D01*
X721213Y425487D01*
X712372Y416646D01*
X710889Y417260D01*
X708660Y417554D01*
X706431Y417260D01*
X704353Y416400D01*
X702569Y415031D01*
X701200Y413247D01*
X700340Y411169D01*
X700046Y408940D01*
X700340Y406711D01*
X701200Y404633D01*
X702569Y402849D01*
X704353Y401480D01*
X706431Y400620D01*
X708660Y400326D01*
X710889Y400620D01*
X712967Y401480D01*
X714751Y402849D01*
X716120Y404633D01*
X716980Y406711D01*
X717274Y408940D01*
X716980Y411169D01*
X716366Y412652D01*
X724380Y420666D01*
X740536D01*
X741062Y419396D01*
X738154Y416488D01*
X736289Y417260D01*
X734060Y417554D01*
X731831Y417260D01*
X729753Y416400D01*
X727969Y415031D01*
X726600Y413247D01*
X725740Y411169D01*
X725446Y408940D01*
X725740Y406711D01*
X726600Y404633D01*
X727969Y402849D01*
X729753Y401480D01*
X731831Y400620D01*
X734060Y400326D01*
X736289Y400620D01*
X738367Y401480D01*
X740151Y402849D01*
X741520Y404633D01*
X742380Y406711D01*
X742674Y408940D01*
X742380Y411169D01*
X741924Y412270D01*
X744660Y415006D01*
X844550D01*
X844550Y415006D01*
X845631Y415221D01*
X846547Y415833D01*
X849705Y418991D01*
X867521D01*
Y436991D01*
X849521D01*
Y426104D01*
X848962Y425066D01*
X847881Y424851D01*
X846965Y424239D01*
X846965Y424239D01*
X843380Y420654D01*
X775411D01*
X774885Y421924D01*
X807336Y454376D01*
X849520D01*
Y448200D01*
X867520D01*
Y466200D01*
D02*
G37*
G36*
X1113790Y466429D02*
X1111401Y466115D01*
X1109175Y465192D01*
X1107264Y463726D01*
X1105798Y461814D01*
X1104875Y459589D01*
X1104561Y457200D01*
X1104875Y454811D01*
X1105798Y452585D01*
X1107264Y450674D01*
X1109175Y449207D01*
X1111401Y448285D01*
X1113790Y447971D01*
X1116179Y448285D01*
X1118404Y449207D01*
X1120316Y450674D01*
X1121783Y452585D01*
X1122704Y454811D01*
X1123019Y457200D01*
X1122704Y459589D01*
X1121783Y461814D01*
X1120316Y463726D01*
X1118404Y465192D01*
X1116179Y466115D01*
X1113790Y466429D01*
D02*
G37*
G36*
X986790Y441029D02*
X984401Y440714D01*
X982176Y439793D01*
X980264Y438326D01*
X978798Y436414D01*
X978056Y434624D01*
X892920D01*
Y436990D01*
X874920D01*
Y418990D01*
X892920D01*
Y428976D01*
X978056D01*
X978798Y427186D01*
X980264Y425274D01*
X982176Y423807D01*
X984401Y422886D01*
X986790Y422571D01*
X989179Y422886D01*
X991404Y423807D01*
X993316Y425274D01*
X994782Y427186D01*
X995704Y429411D01*
X996019Y431800D01*
X995704Y434189D01*
X994782Y436414D01*
X993316Y438326D01*
X991404Y439793D01*
X989179Y440714D01*
X986790Y441029D01*
D02*
G37*
G36*
X708660Y442954D02*
X706431Y442660D01*
X704353Y441800D01*
X702569Y440431D01*
X701200Y438647D01*
X700340Y436569D01*
X700046Y434340D01*
X700340Y432111D01*
X701200Y430033D01*
X702569Y428249D01*
X704353Y426880D01*
X706431Y426020D01*
X708660Y425726D01*
X710889Y426020D01*
X712967Y426880D01*
X714751Y428249D01*
X716120Y430033D01*
X716980Y432111D01*
X717274Y434340D01*
X716980Y436569D01*
X716120Y438647D01*
X714751Y440431D01*
X712967Y441800D01*
X710889Y442660D01*
X708660Y442954D01*
D02*
G37*
G36*
X226060D02*
X223831Y442660D01*
X221753Y441800D01*
X219969Y440431D01*
X218600Y438647D01*
X217740Y436569D01*
X217446Y434340D01*
X217740Y432111D01*
X218600Y430033D01*
X219969Y428249D01*
X221753Y426880D01*
X223831Y426020D01*
X226060Y425726D01*
X228289Y426020D01*
X230367Y426880D01*
X232151Y428249D01*
X233520Y430033D01*
X234380Y432111D01*
X234674Y434340D01*
X234380Y436569D01*
X233520Y438647D01*
X232151Y440431D01*
X230367Y441800D01*
X228289Y442660D01*
X226060Y442954D01*
D02*
G37*
G36*
X200660D02*
X198431Y442660D01*
X196353Y441800D01*
X194569Y440431D01*
X193200Y438647D01*
X192340Y436569D01*
X192046Y434340D01*
X192340Y432111D01*
X193200Y430033D01*
X194569Y428249D01*
X196353Y426880D01*
X198431Y426020D01*
X200660Y425726D01*
X202889Y426020D01*
X204967Y426880D01*
X206751Y428249D01*
X208120Y430033D01*
X208980Y432111D01*
X209274Y434340D01*
X208980Y436569D01*
X208120Y438647D01*
X206751Y440431D01*
X204967Y441800D01*
X202889Y442660D01*
X200660Y442954D01*
D02*
G37*
G36*
X1201420Y432510D02*
X1199593Y432270D01*
X1197890Y431564D01*
X1196428Y430442D01*
X1195305Y428980D01*
X1194600Y427277D01*
X1194360Y425450D01*
X1194600Y423623D01*
X1195305Y421920D01*
X1196428Y420458D01*
X1197890Y419336D01*
X1199593Y418630D01*
X1201420Y418390D01*
X1203247Y418630D01*
X1204950Y419336D01*
X1206412Y420458D01*
X1207534Y421920D01*
X1208240Y423623D01*
X1208480Y425450D01*
X1208240Y427277D01*
X1207534Y428980D01*
X1206412Y430442D01*
X1204950Y431564D01*
X1203247Y432270D01*
X1201420Y432510D01*
D02*
G37*
G36*
X1176020Y435032D02*
X1173540Y434706D01*
X1171229Y433748D01*
X1169245Y432225D01*
X1167722Y430241D01*
X1166907Y428274D01*
X1132840D01*
X1131759Y428059D01*
X1130843Y427447D01*
X1130843Y427447D01*
X1117969Y414573D01*
X1116179Y415314D01*
X1113790Y415629D01*
X1111401Y415314D01*
X1109175Y414393D01*
X1107264Y412926D01*
X1105798Y411015D01*
X1104875Y408789D01*
X1104561Y406400D01*
X1104875Y404011D01*
X1105798Y401786D01*
X1107264Y399874D01*
X1109175Y398408D01*
X1111401Y397486D01*
X1113790Y397171D01*
X1116179Y397486D01*
X1118404Y398408D01*
X1120316Y399874D01*
X1121783Y401786D01*
X1122704Y404011D01*
X1123019Y406400D01*
X1122704Y408789D01*
X1121963Y410579D01*
X1134010Y422626D01*
X1166907D01*
X1167722Y420659D01*
X1169245Y418675D01*
X1171229Y417152D01*
X1173540Y416194D01*
X1176020Y415868D01*
X1178500Y416194D01*
X1180811Y417152D01*
X1182795Y418675D01*
X1184318Y420659D01*
X1185275Y422970D01*
X1185602Y425450D01*
X1185275Y427930D01*
X1184318Y430241D01*
X1182795Y432225D01*
X1180811Y433748D01*
X1178500Y434706D01*
X1176020Y435032D01*
D02*
G37*
G36*
X986790Y415629D02*
X984401Y415314D01*
X982176Y414393D01*
X980264Y412926D01*
X978798Y411015D01*
X977876Y408789D01*
X977561Y406400D01*
X977876Y404011D01*
X978333Y402906D01*
X977032Y401605D01*
X892921D01*
Y407781D01*
X874921D01*
Y389781D01*
X892921D01*
Y395956D01*
X978202D01*
X978202Y395956D01*
X979283Y396171D01*
X980199Y396784D01*
X981976Y398560D01*
X982176Y398408D01*
X984401Y397486D01*
X986790Y397171D01*
X989179Y397486D01*
X991404Y398408D01*
X993316Y399874D01*
X994782Y401786D01*
X995704Y404011D01*
X996019Y406400D01*
X995704Y408789D01*
X994782Y411015D01*
X993316Y412926D01*
X991404Y414393D01*
X989179Y415314D01*
X986790Y415629D01*
D02*
G37*
G36*
X1201420Y407110D02*
X1199593Y406870D01*
X1197890Y406165D01*
X1196428Y405042D01*
X1195305Y403580D01*
X1194600Y401877D01*
X1194360Y400050D01*
X1194600Y398223D01*
X1195305Y396520D01*
X1196428Y395058D01*
X1197890Y393936D01*
X1199593Y393230D01*
X1201420Y392990D01*
X1203247Y393230D01*
X1204950Y393936D01*
X1206412Y395058D01*
X1207534Y396520D01*
X1208240Y398223D01*
X1208480Y400050D01*
X1208240Y401877D01*
X1207534Y403580D01*
X1206412Y405042D01*
X1204950Y406165D01*
X1203247Y406870D01*
X1201420Y407110D01*
D02*
G37*
G36*
X1185520Y409550D02*
X1166520D01*
Y402874D01*
X1132840D01*
X1131759Y402659D01*
X1130843Y402047D01*
X1130843Y402047D01*
X1117969Y389173D01*
X1116179Y389915D01*
X1113790Y390229D01*
X1111401Y389915D01*
X1109175Y388993D01*
X1107264Y387526D01*
X1105798Y385615D01*
X1104875Y383389D01*
X1104561Y381000D01*
X1104875Y378611D01*
X1105798Y376385D01*
X1107264Y374474D01*
X1109175Y373008D01*
X1111401Y372085D01*
X1113790Y371771D01*
X1116179Y372085D01*
X1118404Y373008D01*
X1120316Y374474D01*
X1121783Y376385D01*
X1122704Y378611D01*
X1123019Y381000D01*
X1122704Y383389D01*
X1121963Y385179D01*
X1134010Y397226D01*
X1166520D01*
Y390550D01*
X1185520D01*
Y409550D01*
D02*
G37*
G36*
X867521Y407781D02*
X849521D01*
Y397794D01*
X730146D01*
X729065Y397579D01*
X728149Y396967D01*
X718340Y387159D01*
X716405D01*
X716120Y387847D01*
X714751Y389631D01*
X712967Y391000D01*
X710889Y391860D01*
X708660Y392154D01*
X706431Y391860D01*
X704353Y391000D01*
X702569Y389631D01*
X701200Y387847D01*
X700340Y385769D01*
X700046Y383540D01*
X700340Y381311D01*
X701200Y379233D01*
X702569Y377449D01*
X704353Y376080D01*
X706431Y375220D01*
X708660Y374926D01*
X710889Y375220D01*
X712967Y376080D01*
X714751Y377449D01*
X716120Y379233D01*
X716980Y381311D01*
X717006Y381510D01*
X719510D01*
X719510Y381510D01*
X720591Y381725D01*
X721507Y382337D01*
X724386Y385216D01*
X725589Y384623D01*
X725446Y383540D01*
X725740Y381311D01*
X726600Y379233D01*
X727969Y377449D01*
X729753Y376080D01*
X731831Y375220D01*
X734060Y374926D01*
X736289Y375220D01*
X738367Y376080D01*
X740151Y377449D01*
X741520Y379233D01*
X742380Y381311D01*
X742674Y383540D01*
X742380Y385769D01*
X741520Y387847D01*
X740151Y389631D01*
X738528Y390876D01*
X738572Y391457D01*
X738880Y392146D01*
X849521D01*
Y389781D01*
X867521D01*
Y407781D01*
D02*
G37*
G36*
X54610Y402098D02*
X52854Y401749D01*
X51366Y400754D01*
X50371Y399266D01*
X50022Y397510D01*
X50371Y395754D01*
X51366Y394266D01*
X51786Y393985D01*
Y389650D01*
X50110D01*
Y379650D01*
X59110D01*
Y389650D01*
X57434D01*
Y393985D01*
X57854Y394266D01*
X58849Y395754D01*
X59198Y397510D01*
X58849Y399266D01*
X57854Y400754D01*
X56366Y401749D01*
X54610Y402098D01*
D02*
G37*
G36*
X200660Y392154D02*
X198431Y391860D01*
X196353Y391000D01*
X194569Y389631D01*
X193200Y387847D01*
X192340Y385769D01*
X192046Y383540D01*
X192340Y381311D01*
X193200Y379233D01*
X194569Y377449D01*
X196353Y376080D01*
X198431Y375220D01*
X200660Y374926D01*
X202889Y375220D01*
X204967Y376080D01*
X206751Y377449D01*
X208120Y379233D01*
X208980Y381311D01*
X209274Y383540D01*
X208980Y385769D01*
X208120Y387847D01*
X206751Y389631D01*
X204967Y391000D01*
X202889Y391860D01*
X200660Y392154D01*
D02*
G37*
G36*
X986790Y390229D02*
X984401Y389915D01*
X982176Y388993D01*
X980264Y387526D01*
X978798Y385615D01*
X977876Y383389D01*
X977561Y381000D01*
X977876Y378611D01*
X978617Y376821D01*
X974191Y372395D01*
X892921D01*
Y378571D01*
X874921D01*
Y360571D01*
X892921D01*
Y366746D01*
X975361D01*
X975361Y366746D01*
X976442Y366962D01*
X977358Y367574D01*
X982611Y372827D01*
X984401Y372085D01*
X986790Y371771D01*
X989179Y372085D01*
X991404Y373008D01*
X993316Y374474D01*
X994782Y376385D01*
X995704Y378611D01*
X996019Y381000D01*
X995704Y383389D01*
X994782Y385615D01*
X993316Y387526D01*
X991404Y388993D01*
X989179Y389915D01*
X986790Y390229D01*
D02*
G37*
G36*
X867520Y378570D02*
X849520D01*
Y364564D01*
X845920Y360964D01*
X742134D01*
X741520Y362447D01*
X740151Y364231D01*
X738367Y365600D01*
X736289Y366460D01*
X734060Y366754D01*
X731831Y366460D01*
X729753Y365600D01*
X727969Y364231D01*
X726600Y362447D01*
X725740Y360369D01*
X725446Y358140D01*
X725740Y355911D01*
X726600Y353833D01*
X727969Y352049D01*
X729753Y350680D01*
X731831Y349820D01*
X734060Y349526D01*
X736289Y349820D01*
X738367Y350680D01*
X740151Y352049D01*
X741520Y353833D01*
X742134Y355316D01*
X847090D01*
X847090Y355316D01*
X848171Y355531D01*
X849087Y356143D01*
X853514Y360570D01*
X867520D01*
Y378570D01*
D02*
G37*
G36*
X986790Y364829D02*
X984401Y364515D01*
X982176Y363592D01*
X980264Y362126D01*
X978798Y360215D01*
X978044Y358394D01*
X975330D01*
X975330Y358394D01*
X974249Y358179D01*
X973333Y357567D01*
X958950Y343184D01*
X892920D01*
Y349360D01*
X874920D01*
Y331360D01*
X892920D01*
Y337536D01*
X960120D01*
X960120Y337536D01*
X961201Y337751D01*
X962117Y338363D01*
X976500Y352746D01*
X978068D01*
X978798Y350985D01*
X980264Y349074D01*
X982176Y347607D01*
X984401Y346685D01*
X986790Y346371D01*
X989179Y346685D01*
X991404Y347607D01*
X993316Y349074D01*
X994782Y350985D01*
X995704Y353211D01*
X996019Y355600D01*
X995704Y357989D01*
X994782Y360215D01*
X993316Y362126D01*
X991404Y363592D01*
X989179Y364515D01*
X986790Y364829D01*
D02*
G37*
G36*
X105440Y369650D02*
X96440D01*
Y367474D01*
X93968D01*
X92887Y367259D01*
X91971Y366647D01*
X91971Y366647D01*
X78030Y352706D01*
X75317D01*
X75024Y352902D01*
Y356060D01*
X74809Y357141D01*
X74197Y358057D01*
X74197Y358057D01*
X68610Y363644D01*
Y369650D01*
X59610D01*
Y359650D01*
X64616D01*
X69376Y354890D01*
Y352648D01*
X69146Y352494D01*
X68865Y352074D01*
X63050D01*
X61969Y351859D01*
X61053Y351247D01*
X61053Y351247D01*
X46116Y336310D01*
X40610D01*
Y326310D01*
X49610D01*
Y331816D01*
X64220Y346426D01*
X68865D01*
X69146Y346006D01*
X70634Y345011D01*
X72390Y344662D01*
X72885Y344760D01*
X78506Y339140D01*
Y336470D01*
X76830D01*
Y326470D01*
X85830D01*
Y336470D01*
X84154D01*
Y340310D01*
X84154Y340310D01*
X83939Y341391D01*
X83327Y342307D01*
X79760Y345874D01*
X80178Y347252D01*
X80281Y347273D01*
X81197Y347885D01*
X95138Y361826D01*
X96440D01*
Y359650D01*
X105440D01*
Y369650D01*
D02*
G37*
G36*
X708660Y366754D02*
X706431Y366460D01*
X704353Y365600D01*
X702569Y364231D01*
X701200Y362447D01*
X700340Y360369D01*
X700046Y358140D01*
X700340Y355911D01*
X701200Y353833D01*
X702569Y352049D01*
X704353Y350680D01*
X706431Y349820D01*
X708660Y349526D01*
X710889Y349820D01*
X712967Y350680D01*
X714751Y352049D01*
X716120Y353833D01*
X716980Y355911D01*
X717274Y358140D01*
X716980Y360369D01*
X716120Y362447D01*
X714751Y364231D01*
X712967Y365600D01*
X710889Y366460D01*
X708660Y366754D01*
D02*
G37*
G36*
X226060D02*
X223831Y366460D01*
X221753Y365600D01*
X219969Y364231D01*
X218600Y362447D01*
X217740Y360369D01*
X217446Y358140D01*
X217740Y355911D01*
X218600Y353833D01*
X219969Y352049D01*
X221753Y350680D01*
X223831Y349820D01*
X226060Y349526D01*
X228289Y349820D01*
X230367Y350680D01*
X232151Y352049D01*
X233520Y353833D01*
X234380Y355911D01*
X234674Y358140D01*
X234380Y360369D01*
X233520Y362447D01*
X232151Y364231D01*
X230367Y365600D01*
X228289Y366460D01*
X226060Y366754D01*
D02*
G37*
G36*
X200660D02*
X198431Y366460D01*
X196353Y365600D01*
X194569Y364231D01*
X193200Y362447D01*
X192340Y360369D01*
X192046Y358140D01*
X192340Y355911D01*
X193200Y353833D01*
X194569Y352049D01*
X196353Y350680D01*
X198431Y349820D01*
X200660Y349526D01*
X202889Y349820D01*
X204967Y350680D01*
X206751Y352049D01*
X208120Y353833D01*
X208980Y355911D01*
X209274Y358140D01*
X208980Y360369D01*
X208120Y362447D01*
X206751Y364231D01*
X204967Y365600D01*
X202889Y366460D01*
X200660Y366754D01*
D02*
G37*
G36*
X1200150Y352500D02*
X1198323Y352260D01*
X1196620Y351554D01*
X1195158Y350432D01*
X1194035Y348970D01*
X1193330Y347267D01*
X1193090Y345440D01*
X1193330Y343613D01*
X1194035Y341910D01*
X1195158Y340448D01*
X1196620Y339325D01*
X1198323Y338620D01*
X1200150Y338380D01*
X1201977Y338620D01*
X1203680Y339325D01*
X1205142Y340448D01*
X1206264Y341910D01*
X1206970Y343613D01*
X1207210Y345440D01*
X1206970Y347267D01*
X1206264Y348970D01*
X1205142Y350432D01*
X1203680Y351554D01*
X1201977Y352260D01*
X1200150Y352500D01*
D02*
G37*
G36*
X1113790Y364829D02*
X1111401Y364515D01*
X1109175Y363592D01*
X1107264Y362126D01*
X1105798Y360215D01*
X1104875Y357989D01*
X1104561Y355600D01*
X1104875Y353211D01*
X1105798Y350985D01*
X1107264Y349074D01*
X1109175Y347607D01*
X1111401Y346685D01*
X1113790Y346371D01*
X1116179Y346685D01*
X1117969Y347427D01*
X1121953Y343443D01*
X1121953Y343443D01*
X1122869Y342831D01*
X1123950Y342616D01*
X1165637D01*
X1166452Y340649D01*
X1167974Y338665D01*
X1169959Y337142D01*
X1172270Y336185D01*
X1174750Y335858D01*
X1177230Y336185D01*
X1179541Y337142D01*
X1181525Y338665D01*
X1183048Y340649D01*
X1184006Y342960D01*
X1184332Y345440D01*
X1184006Y347920D01*
X1183048Y350231D01*
X1181525Y352215D01*
X1179541Y353738D01*
X1177230Y354696D01*
X1174750Y355022D01*
X1172270Y354696D01*
X1169959Y353738D01*
X1167974Y352215D01*
X1166452Y350231D01*
X1165637Y348264D01*
X1125120D01*
X1121963Y351421D01*
X1122704Y353211D01*
X1123019Y355600D01*
X1122704Y357989D01*
X1121783Y360215D01*
X1120316Y362126D01*
X1118404Y363592D01*
X1116179Y364515D01*
X1113790Y364829D01*
D02*
G37*
G36*
X734060Y341354D02*
X731831Y341060D01*
X729753Y340200D01*
X727969Y338831D01*
X726600Y337047D01*
X725740Y334969D01*
X725446Y332740D01*
X725740Y330511D01*
X726600Y328433D01*
X727969Y326649D01*
X729753Y325280D01*
X731831Y324420D01*
X734060Y324126D01*
X736289Y324420D01*
X738367Y325280D01*
X740151Y326649D01*
X741520Y328433D01*
X742380Y330511D01*
X742674Y332740D01*
X742380Y334969D01*
X741520Y337047D01*
X740151Y338831D01*
X738367Y340200D01*
X736289Y341060D01*
X734060Y341354D01*
D02*
G37*
G36*
X708660D02*
X706431Y341060D01*
X704353Y340200D01*
X702569Y338831D01*
X701200Y337047D01*
X700340Y334969D01*
X700046Y332740D01*
X700340Y330511D01*
X701200Y328433D01*
X702569Y326649D01*
X704353Y325280D01*
X706431Y324420D01*
X708660Y324126D01*
X710889Y324420D01*
X712967Y325280D01*
X714751Y326649D01*
X716120Y328433D01*
X716980Y330511D01*
X717274Y332740D01*
X716980Y334969D01*
X716120Y337047D01*
X714751Y338831D01*
X712967Y340200D01*
X710889Y341060D01*
X708660Y341354D01*
D02*
G37*
G36*
X226060D02*
X223831Y341060D01*
X221753Y340200D01*
X219969Y338831D01*
X218600Y337047D01*
X217740Y334969D01*
X217446Y332740D01*
X217740Y330511D01*
X218600Y328433D01*
X219969Y326649D01*
X221753Y325280D01*
X223831Y324420D01*
X226060Y324126D01*
X228289Y324420D01*
X230367Y325280D01*
X232151Y326649D01*
X233520Y328433D01*
X234380Y330511D01*
X234674Y332740D01*
X234380Y334969D01*
X233520Y337047D01*
X232151Y338831D01*
X230367Y340200D01*
X228289Y341060D01*
X226060Y341354D01*
D02*
G37*
G36*
X986790Y339429D02*
X984401Y339114D01*
X982176Y338192D01*
X980264Y336726D01*
X978798Y334814D01*
X977876Y332589D01*
X977561Y330200D01*
X977876Y327811D01*
X978617Y326021D01*
X970381Y317785D01*
X892921D01*
Y323961D01*
X874921D01*
Y305961D01*
X892921D01*
Y312136D01*
X971551D01*
X971551Y312136D01*
X972632Y312351D01*
X973548Y312964D01*
X982611Y322027D01*
X984401Y321286D01*
X986790Y320971D01*
X989179Y321286D01*
X991404Y322207D01*
X993316Y323674D01*
X994782Y325586D01*
X995704Y327811D01*
X996019Y330200D01*
X995704Y332589D01*
X994782Y334814D01*
X993316Y336726D01*
X991404Y338192D01*
X989179Y339114D01*
X986790Y339429D01*
D02*
G37*
G36*
X1200150Y327100D02*
X1198323Y326860D01*
X1196620Y326155D01*
X1195158Y325032D01*
X1194035Y323570D01*
X1193330Y321867D01*
X1193090Y320040D01*
X1193330Y318213D01*
X1194035Y316510D01*
X1195158Y315048D01*
X1196620Y313925D01*
X1198323Y313220D01*
X1200150Y312980D01*
X1201977Y313220D01*
X1203680Y313925D01*
X1205142Y315048D01*
X1206264Y316510D01*
X1206970Y318213D01*
X1207210Y320040D01*
X1206970Y321867D01*
X1206264Y323570D01*
X1205142Y325032D01*
X1203680Y326155D01*
X1201977Y326860D01*
X1200150Y327100D01*
D02*
G37*
G36*
X1113790Y339429D02*
X1111401Y339114D01*
X1109175Y338192D01*
X1107264Y336726D01*
X1105798Y334814D01*
X1104875Y332589D01*
X1104561Y330200D01*
X1104875Y327811D01*
X1105798Y325586D01*
X1107264Y323674D01*
X1109175Y322207D01*
X1111401Y321286D01*
X1113790Y320971D01*
X1116179Y321286D01*
X1117969Y322027D01*
X1121953Y318043D01*
X1121953Y318043D01*
X1122869Y317431D01*
X1123950Y317216D01*
X1165250D01*
Y310540D01*
X1184250D01*
Y329540D01*
X1165250D01*
Y322864D01*
X1125120D01*
X1121963Y326021D01*
X1122704Y327811D01*
X1123019Y330200D01*
X1122704Y332589D01*
X1121783Y334814D01*
X1120316Y336726D01*
X1118404Y338192D01*
X1116179Y339114D01*
X1113790Y339429D01*
D02*
G37*
G36*
X734060Y315954D02*
X731831Y315660D01*
X729753Y314800D01*
X727969Y313431D01*
X726600Y311647D01*
X725740Y309569D01*
X725446Y307340D01*
X725740Y305111D01*
X726600Y303033D01*
X727969Y301249D01*
X729753Y299880D01*
X731831Y299020D01*
X734060Y298726D01*
X736289Y299020D01*
X738367Y299880D01*
X740151Y301249D01*
X741520Y303033D01*
X742380Y305111D01*
X742674Y307340D01*
X742380Y309569D01*
X741520Y311647D01*
X740151Y313431D01*
X738367Y314800D01*
X736289Y315660D01*
X734060Y315954D01*
D02*
G37*
G36*
X708660D02*
X706431Y315660D01*
X704353Y314800D01*
X702569Y313431D01*
X701200Y311647D01*
X700340Y309569D01*
X700046Y307340D01*
X700340Y305111D01*
X701200Y303033D01*
X702569Y301249D01*
X704353Y299880D01*
X706431Y299020D01*
X708660Y298726D01*
X710889Y299020D01*
X712967Y299880D01*
X714751Y301249D01*
X716120Y303033D01*
X716980Y305111D01*
X717274Y307340D01*
X716980Y309569D01*
X716120Y311647D01*
X714751Y313431D01*
X712967Y314800D01*
X710889Y315660D01*
X708660Y315954D01*
D02*
G37*
G36*
X226060D02*
X223831Y315660D01*
X221753Y314800D01*
X219969Y313431D01*
X218600Y311647D01*
X217740Y309569D01*
X217446Y307340D01*
X217740Y305111D01*
X218600Y303033D01*
X219969Y301249D01*
X221753Y299880D01*
X223831Y299020D01*
X226060Y298726D01*
X228289Y299020D01*
X230367Y299880D01*
X232151Y301249D01*
X233520Y303033D01*
X234380Y305111D01*
X234674Y307340D01*
X234380Y309569D01*
X233520Y311647D01*
X232151Y313431D01*
X230367Y314800D01*
X228289Y315660D01*
X226060Y315954D01*
D02*
G37*
G36*
X1113790Y314029D02*
X1111401Y313715D01*
X1109175Y312792D01*
X1107264Y311326D01*
X1105798Y309415D01*
X1104875Y307189D01*
X1104561Y304800D01*
X1104875Y302411D01*
X1105798Y300186D01*
X1107264Y298274D01*
X1109175Y296807D01*
X1111401Y295886D01*
X1113790Y295571D01*
X1116179Y295886D01*
X1118404Y296807D01*
X1120316Y298274D01*
X1121783Y300186D01*
X1122704Y302411D01*
X1123019Y304800D01*
X1122704Y307189D01*
X1121783Y309415D01*
X1120316Y311326D01*
X1118404Y312792D01*
X1116179Y313715D01*
X1113790Y314029D01*
D02*
G37*
G36*
X986790D02*
X984401Y313715D01*
X982176Y312792D01*
X980264Y311326D01*
X978798Y309415D01*
X977876Y307189D01*
X977561Y304800D01*
X977876Y302411D01*
X978617Y300621D01*
X960220Y282224D01*
X883920D01*
X883920Y282224D01*
X882839Y282009D01*
X881923Y281397D01*
X737772Y137246D01*
X736289Y137860D01*
X734060Y138154D01*
X731831Y137860D01*
X729753Y137000D01*
X727969Y135631D01*
X726600Y133847D01*
X725740Y131769D01*
X725446Y129540D01*
X725740Y127311D01*
X726600Y125233D01*
X727969Y123449D01*
X729753Y122080D01*
X731831Y121220D01*
X734060Y120926D01*
X736289Y121220D01*
X738367Y122080D01*
X740151Y123449D01*
X741520Y125233D01*
X742380Y127311D01*
X742674Y129540D01*
X742380Y131769D01*
X741766Y133252D01*
X885090Y276576D01*
X959960D01*
X960486Y275306D01*
X953434Y268254D01*
X889000D01*
X887919Y268039D01*
X887003Y267427D01*
X887003Y267427D01*
X739240Y119664D01*
X728880D01*
X718964Y129580D01*
X718048Y130192D01*
X717165Y130368D01*
X716980Y131769D01*
X716120Y133847D01*
X714751Y135631D01*
X712967Y137000D01*
X710889Y137860D01*
X708660Y138154D01*
X706431Y137860D01*
X704353Y137000D01*
X702569Y135631D01*
X701200Y133847D01*
X700340Y131769D01*
X700046Y129540D01*
X700340Y127311D01*
X701200Y125233D01*
X702569Y123449D01*
X704353Y122080D01*
X706431Y121220D01*
X708660Y120926D01*
X710889Y121220D01*
X712967Y122080D01*
X714751Y123449D01*
X714994Y123766D01*
X716679Y123876D01*
X725713Y114843D01*
X725713Y114843D01*
X726629Y114231D01*
X727710Y114016D01*
X740410D01*
X740410Y114016D01*
X741491Y114231D01*
X742407Y114843D01*
X890170Y262606D01*
X954604D01*
X954604Y262606D01*
X955685Y262821D01*
X956601Y263433D01*
X969744Y276576D01*
X978056D01*
X978798Y274785D01*
X980264Y272874D01*
X982176Y271408D01*
X984401Y270485D01*
X986790Y270171D01*
X989179Y270485D01*
X991404Y271408D01*
X993316Y272874D01*
X994782Y274785D01*
X995704Y277011D01*
X996019Y279400D01*
X995704Y281789D01*
X994782Y284014D01*
X993316Y285926D01*
X991404Y287393D01*
X989179Y288314D01*
X986790Y288629D01*
X984401Y288314D01*
X982176Y287393D01*
X980264Y285926D01*
X978798Y284014D01*
X978056Y282224D01*
X970005D01*
X969478Y283494D01*
X982611Y296627D01*
X984401Y295886D01*
X986790Y295571D01*
X989179Y295886D01*
X991404Y296807D01*
X993316Y298274D01*
X994782Y300186D01*
X995704Y302411D01*
X996019Y304800D01*
X995704Y307189D01*
X994782Y309415D01*
X993316Y311326D01*
X991404Y312792D01*
X989179Y313715D01*
X986790Y314029D01*
D02*
G37*
G36*
X59110Y316310D02*
X50110D01*
Y306310D01*
X55116D01*
X58744Y302682D01*
Y301332D01*
X57991Y300206D01*
X57642Y298450D01*
X57991Y296694D01*
X58986Y295206D01*
X60474Y294211D01*
X62230Y293862D01*
X63986Y294211D01*
X65474Y295206D01*
X66469Y296694D01*
X66818Y298450D01*
X66469Y300206D01*
X65474Y301694D01*
X64392Y302417D01*
Y303852D01*
X64392Y303852D01*
X64177Y304933D01*
X63565Y305849D01*
X59110Y310304D01*
Y316310D01*
D02*
G37*
G36*
X95330Y316470D02*
X86330D01*
Y306470D01*
X91336D01*
X103856Y293950D01*
Y278415D01*
X87739D01*
Y284591D01*
X69739D01*
Y266591D01*
X87739D01*
Y272766D01*
X119479D01*
X141427Y250819D01*
Y221405D01*
X141427Y221405D01*
X141642Y220324D01*
X142254Y219408D01*
X197438Y164224D01*
X197410Y163266D01*
X197224Y162761D01*
X196353Y162400D01*
X194569Y161031D01*
X193200Y159247D01*
X192340Y157169D01*
X192046Y154940D01*
X192340Y152711D01*
X193200Y150633D01*
X194569Y148849D01*
X196353Y147480D01*
X198431Y146620D01*
X200660Y146326D01*
X202889Y146620D01*
X204967Y147480D01*
X206751Y148849D01*
X208120Y150633D01*
X208980Y152711D01*
X209274Y154940D01*
X208980Y157169D01*
X208120Y159247D01*
X206751Y161031D01*
X205631Y161890D01*
X206063Y163160D01*
X208766D01*
X211998Y159928D01*
Y143318D01*
X211998Y143318D01*
X212213Y142237D01*
X212825Y141321D01*
X219338Y134808D01*
X218600Y133847D01*
X217740Y131769D01*
X217446Y129540D01*
X217740Y127311D01*
X218600Y125233D01*
X219969Y123449D01*
X221753Y122080D01*
X223831Y121220D01*
X226060Y120926D01*
X228289Y121220D01*
X230367Y122080D01*
X232151Y123449D01*
X233520Y125233D01*
X234380Y127311D01*
X234674Y129540D01*
X234380Y131769D01*
X233520Y133847D01*
X232151Y135631D01*
X230367Y137000D01*
X228289Y137860D01*
X226060Y138154D01*
X224222Y137912D01*
X217646Y144488D01*
Y149790D01*
X218916Y150221D01*
X219969Y148849D01*
X221753Y147480D01*
X223831Y146620D01*
X226060Y146326D01*
X228289Y146620D01*
X230367Y147480D01*
X232151Y148849D01*
X233520Y150633D01*
X234380Y152711D01*
X234674Y154940D01*
X234380Y157169D01*
X233520Y159247D01*
X232151Y161031D01*
X230367Y162400D01*
X228289Y163260D01*
X226060Y163554D01*
X223831Y163260D01*
X221753Y162400D01*
X219969Y161031D01*
X218916Y159659D01*
X217646Y160090D01*
Y161098D01*
X217431Y162179D01*
X216819Y163095D01*
X216819Y163095D01*
X211933Y167981D01*
X211017Y168593D01*
X209936Y168808D01*
X209936Y168808D01*
X200842D01*
X198984Y170666D01*
X199577Y171869D01*
X200660Y171726D01*
X202889Y172020D01*
X204967Y172880D01*
X206751Y174249D01*
X208120Y176033D01*
X208980Y178111D01*
X209274Y180340D01*
X208980Y182569D01*
X208120Y184647D01*
X206751Y186431D01*
X204967Y187800D01*
X202889Y188660D01*
X200660Y188954D01*
X198431Y188660D01*
X196353Y187800D01*
X194569Y186431D01*
X193200Y184647D01*
X192340Y182569D01*
X192046Y180340D01*
X192189Y179257D01*
X190986Y178664D01*
X147075Y222575D01*
Y251989D01*
X147075Y251989D01*
X146860Y253070D01*
X146248Y253986D01*
X122646Y277588D01*
X121730Y278200D01*
X120649Y278415D01*
X120649Y278415D01*
X109504D01*
Y295120D01*
X109504Y295120D01*
X109289Y296201D01*
X108677Y297117D01*
X95330Y310464D01*
Y316470D01*
D02*
G37*
G36*
X734060Y290554D02*
X731831Y290260D01*
X729753Y289400D01*
X727969Y288031D01*
X726600Y286247D01*
X725740Y284169D01*
X725446Y281940D01*
X725740Y279711D01*
X726600Y277633D01*
X727969Y275849D01*
X729753Y274480D01*
X731831Y273620D01*
X734060Y273326D01*
X736289Y273620D01*
X738367Y274480D01*
X740151Y275849D01*
X741520Y277633D01*
X742380Y279711D01*
X742674Y281940D01*
X742380Y284169D01*
X741520Y286247D01*
X740151Y288031D01*
X738367Y289400D01*
X736289Y290260D01*
X734060Y290554D01*
D02*
G37*
G36*
X708660D02*
X706431Y290260D01*
X704353Y289400D01*
X702569Y288031D01*
X701200Y286247D01*
X700340Y284169D01*
X700046Y281940D01*
X700340Y279711D01*
X701200Y277633D01*
X702569Y275849D01*
X704353Y274480D01*
X706431Y273620D01*
X708660Y273326D01*
X710889Y273620D01*
X712967Y274480D01*
X714751Y275849D01*
X716120Y277633D01*
X716980Y279711D01*
X717274Y281940D01*
X716980Y284169D01*
X716120Y286247D01*
X714751Y288031D01*
X712967Y289400D01*
X710889Y290260D01*
X708660Y290554D01*
D02*
G37*
G36*
X226060D02*
X223831Y290260D01*
X221753Y289400D01*
X219969Y288031D01*
X218600Y286247D01*
X217740Y284169D01*
X217446Y281940D01*
X217740Y279711D01*
X218600Y277633D01*
X219969Y275849D01*
X221753Y274480D01*
X223831Y273620D01*
X226060Y273326D01*
X228289Y273620D01*
X230367Y274480D01*
X232151Y275849D01*
X233520Y277633D01*
X234380Y279711D01*
X234674Y281940D01*
X234380Y284169D01*
X233520Y286247D01*
X232151Y288031D01*
X230367Y289400D01*
X228289Y290260D01*
X226060Y290554D01*
D02*
G37*
G36*
X734060Y265154D02*
X731831Y264860D01*
X729753Y264000D01*
X727969Y262631D01*
X726600Y260847D01*
X725740Y258769D01*
X725446Y256540D01*
X725740Y254311D01*
X726600Y252233D01*
X727969Y250449D01*
X729753Y249080D01*
X731831Y248220D01*
X734060Y247926D01*
X736289Y248220D01*
X738367Y249080D01*
X740151Y250449D01*
X741520Y252233D01*
X742380Y254311D01*
X742674Y256540D01*
X742380Y258769D01*
X741520Y260847D01*
X740151Y262631D01*
X738367Y264000D01*
X736289Y264860D01*
X734060Y265154D01*
D02*
G37*
G36*
X708660D02*
X706431Y264860D01*
X704353Y264000D01*
X702569Y262631D01*
X701200Y260847D01*
X700340Y258769D01*
X700046Y256540D01*
X700340Y254311D01*
X701200Y252233D01*
X702569Y250449D01*
X704353Y249080D01*
X706431Y248220D01*
X708660Y247926D01*
X710889Y248220D01*
X712967Y249080D01*
X714751Y250449D01*
X716120Y252233D01*
X716980Y254311D01*
X717274Y256540D01*
X716980Y258769D01*
X716120Y260847D01*
X714751Y262631D01*
X712967Y264000D01*
X710889Y264860D01*
X708660Y265154D01*
D02*
G37*
G36*
X226060D02*
X223831Y264860D01*
X221753Y264000D01*
X219969Y262631D01*
X218600Y260847D01*
X217740Y258769D01*
X217446Y256540D01*
X217740Y254311D01*
X218600Y252233D01*
X219969Y250449D01*
X221753Y249080D01*
X223831Y248220D01*
X226060Y247926D01*
X228289Y248220D01*
X230367Y249080D01*
X232151Y250449D01*
X233520Y252233D01*
X234380Y254311D01*
X234674Y256540D01*
X234380Y258769D01*
X233520Y260847D01*
X232151Y262631D01*
X230367Y264000D01*
X228289Y264860D01*
X226060Y265154D01*
D02*
G37*
G36*
X102870Y263668D02*
X101114Y263319D01*
X99626Y262324D01*
X98631Y260836D01*
X98282Y259080D01*
X98380Y258584D01*
X94523Y254727D01*
X93911Y253811D01*
X93696Y252730D01*
X93696Y252730D01*
Y246828D01*
X93642Y246784D01*
X93642Y246784D01*
X87740D01*
Y259190D01*
X69740D01*
Y241190D01*
X84697D01*
X84970Y241136D01*
X84970Y241136D01*
X92472D01*
X93696Y239912D01*
Y233680D01*
X93696Y233680D01*
X93911Y232599D01*
X94523Y231683D01*
X192954Y133252D01*
X192340Y131769D01*
X192046Y129540D01*
X192340Y127311D01*
X192460Y127020D01*
X191383Y126301D01*
X136088Y181596D01*
X135172Y182208D01*
X134091Y182423D01*
X134091Y182423D01*
X125101D01*
X87740Y219784D01*
Y233790D01*
X69740D01*
Y215790D01*
X83746D01*
X121934Y177602D01*
X121934Y177602D01*
X122850Y176990D01*
X123931Y176775D01*
X123931Y176775D01*
X127941D01*
X128427Y175602D01*
X123686Y170860D01*
X123190Y170958D01*
X121434Y170609D01*
X119946Y169614D01*
X118951Y168126D01*
X118602Y166370D01*
X118951Y164614D01*
X119946Y163126D01*
X121434Y162131D01*
X123190Y161782D01*
X124946Y162131D01*
X126434Y163126D01*
X127429Y164614D01*
X127778Y166370D01*
X127680Y166866D01*
X135255Y174441D01*
X195996Y113700D01*
X195996Y113700D01*
X196803Y113161D01*
X196889Y112623D01*
X196849Y111805D01*
X196353Y111600D01*
X194569Y110231D01*
X193200Y108447D01*
X192586Y106964D01*
X166270D01*
X106964Y166270D01*
Y173990D01*
X106964Y173990D01*
X106749Y175071D01*
X106137Y175987D01*
X106137Y175987D01*
X87740Y194384D01*
Y208390D01*
X69740D01*
Y190390D01*
X83746D01*
X101316Y172820D01*
Y166270D01*
X89443Y154397D01*
X88831Y153481D01*
X88616Y152400D01*
X88616Y152400D01*
Y145810D01*
X86940D01*
Y135810D01*
X95940D01*
Y145810D01*
X94264D01*
Y151230D01*
X104140Y161106D01*
X163103Y102143D01*
X163103Y102143D01*
X164019Y101531D01*
X165100Y101316D01*
X165100Y101316D01*
X192586D01*
X193200Y99833D01*
X194569Y98049D01*
X196353Y96680D01*
X198431Y95820D01*
X200660Y95526D01*
X202889Y95820D01*
X204967Y96680D01*
X206751Y98049D01*
X208120Y99833D01*
X208980Y101911D01*
X209274Y104140D01*
X208980Y106369D01*
X208120Y108447D01*
X206751Y110231D01*
X204967Y111600D01*
X204960Y111603D01*
X205212Y112873D01*
X213333D01*
X218354Y107852D01*
X217740Y106369D01*
X217446Y104140D01*
X217740Y101911D01*
X218600Y99833D01*
X219969Y98049D01*
X221753Y96680D01*
X223831Y95820D01*
X226060Y95526D01*
X228289Y95820D01*
X230367Y96680D01*
X232151Y98049D01*
X233520Y99833D01*
X234380Y101911D01*
X234674Y104140D01*
X234380Y106369D01*
X233520Y108447D01*
X232151Y110231D01*
X230367Y111600D01*
X228289Y112460D01*
X226060Y112754D01*
X223831Y112460D01*
X222348Y111846D01*
X216500Y117694D01*
X215584Y118306D01*
X214503Y118521D01*
X214503Y118521D01*
X199163D01*
X197421Y120264D01*
X198140Y121340D01*
X198431Y121220D01*
X200660Y120926D01*
X202889Y121220D01*
X204967Y122080D01*
X206751Y123449D01*
X208120Y125233D01*
X208980Y127311D01*
X209274Y129540D01*
X208980Y131769D01*
X208120Y133847D01*
X206751Y135631D01*
X204967Y137000D01*
X202889Y137860D01*
X200660Y138154D01*
X198431Y137860D01*
X196948Y137246D01*
X99344Y234850D01*
Y241082D01*
X99344Y241082D01*
X99344Y241082D01*
Y251560D01*
X102374Y254590D01*
X102870Y254492D01*
X104626Y254841D01*
X106114Y255836D01*
X107109Y257324D01*
X107458Y259080D01*
X107109Y260836D01*
X106114Y262324D01*
X104626Y263319D01*
X102870Y263668D01*
D02*
G37*
G36*
X514350Y402098D02*
X512594Y401749D01*
X511106Y400754D01*
X510111Y399266D01*
X509762Y397510D01*
X510111Y395754D01*
X511106Y394266D01*
X512594Y393271D01*
X514350Y392922D01*
X514846Y393020D01*
X678723Y229143D01*
X678723Y229143D01*
X679639Y228531D01*
X680720Y228316D01*
X680720Y228316D01*
X700586D01*
X701200Y226833D01*
X702569Y225049D01*
X704353Y223680D01*
X706431Y222820D01*
X708660Y222526D01*
X710889Y222820D01*
X712967Y223680D01*
X714751Y225049D01*
X716120Y226833D01*
X716980Y228911D01*
X717274Y231140D01*
X716980Y233369D01*
X716120Y235447D01*
X714751Y237231D01*
X712967Y238600D01*
X710889Y239460D01*
X708660Y239754D01*
X706431Y239460D01*
X704353Y238600D01*
X702569Y237231D01*
X701200Y235447D01*
X700586Y233964D01*
X681890D01*
X518840Y397015D01*
X518938Y397510D01*
X518589Y399266D01*
X517594Y400754D01*
X516106Y401749D01*
X514350Y402098D01*
D02*
G37*
G36*
X386080Y426228D02*
X384324Y425879D01*
X382836Y424884D01*
X381841Y423396D01*
X381492Y421640D01*
X381841Y419884D01*
X382836Y418396D01*
X384324Y417401D01*
X386080Y417052D01*
X387836Y417401D01*
X389324Y418396D01*
X389605Y418816D01*
X514450D01*
X691423Y241843D01*
X692339Y241231D01*
X693420Y241016D01*
X693420Y241016D01*
X720190D01*
X726354Y234852D01*
X725740Y233369D01*
X725446Y231140D01*
X725740Y228911D01*
X726600Y226833D01*
X727969Y225049D01*
X729753Y223680D01*
X731831Y222820D01*
X734060Y222526D01*
X735143Y222669D01*
X735736Y221466D01*
X734391Y220121D01*
X730273D01*
X729192Y219906D01*
X728276Y219294D01*
X728276Y219294D01*
X718340Y209359D01*
X716405D01*
X716120Y210047D01*
X714751Y211831D01*
X712967Y213200D01*
X710889Y214060D01*
X708660Y214354D01*
X706431Y214060D01*
X704353Y213200D01*
X702569Y211831D01*
X701200Y210047D01*
X700340Y207969D01*
X700046Y205740D01*
X700340Y203511D01*
X701200Y201433D01*
X702569Y199649D01*
X704353Y198280D01*
X706431Y197420D01*
X708660Y197126D01*
X710889Y197420D01*
X712967Y198280D01*
X714751Y199649D01*
X716120Y201433D01*
X716980Y203511D01*
X717006Y203710D01*
X719510D01*
X719510Y203710D01*
X720591Y203925D01*
X721507Y204537D01*
X724386Y207416D01*
X725589Y206823D01*
X725446Y205740D01*
X725740Y203511D01*
X726600Y201433D01*
X727969Y199649D01*
X729753Y198280D01*
X731831Y197420D01*
X734060Y197126D01*
X736289Y197420D01*
X738367Y198280D01*
X740151Y199649D01*
X741520Y201433D01*
X742380Y203511D01*
X742674Y205740D01*
X742380Y207969D01*
X741520Y210047D01*
X740151Y211831D01*
X738367Y213200D01*
X737331Y213629D01*
X737197Y215059D01*
X737558Y215300D01*
X853619Y331361D01*
X867521D01*
Y349361D01*
X849521D01*
Y335251D01*
X743734Y229464D01*
X742531Y230057D01*
X742674Y231140D01*
X742380Y233369D01*
X741520Y235447D01*
X740151Y237231D01*
X738367Y238600D01*
X736289Y239460D01*
X734060Y239754D01*
X731831Y239460D01*
X730348Y238846D01*
X723357Y245837D01*
X722441Y246449D01*
X721360Y246664D01*
X721360Y246664D01*
X694590D01*
X517617Y423637D01*
X516701Y424249D01*
X515620Y424464D01*
X515620Y424464D01*
X389605D01*
X389324Y424884D01*
X387836Y425879D01*
X386080Y426228D01*
D02*
G37*
G36*
X200660Y214354D02*
X198431Y214060D01*
X196353Y213200D01*
X194569Y211831D01*
X193200Y210047D01*
X192340Y207969D01*
X192046Y205740D01*
X192340Y203511D01*
X193200Y201433D01*
X194569Y199649D01*
X196353Y198280D01*
X198431Y197420D01*
X200660Y197126D01*
X202889Y197420D01*
X204967Y198280D01*
X206751Y199649D01*
X208120Y201433D01*
X208980Y203511D01*
X209274Y205740D01*
X208980Y207969D01*
X208120Y210047D01*
X206751Y211831D01*
X204967Y213200D01*
X202889Y214060D01*
X200660Y214354D01*
D02*
G37*
G36*
X867521Y323961D02*
X849521D01*
Y305961D01*
X854027D01*
X854513Y304788D01*
X737772Y188046D01*
X736289Y188660D01*
X734060Y188954D01*
X731831Y188660D01*
X729753Y187800D01*
X727969Y186431D01*
X726600Y184647D01*
X725740Y182569D01*
X725446Y180340D01*
X725740Y178111D01*
X726600Y176033D01*
X727969Y174249D01*
X729753Y172880D01*
X731831Y172020D01*
X734060Y171726D01*
X736289Y172020D01*
X738367Y172880D01*
X740151Y174249D01*
X741520Y176033D01*
X742380Y178111D01*
X742674Y180340D01*
X742380Y182569D01*
X741766Y184052D01*
X860518Y302804D01*
X860518Y302804D01*
X861130Y303720D01*
X861345Y304801D01*
X861528Y305961D01*
X867521D01*
Y323961D01*
D02*
G37*
G36*
X708660Y188954D02*
X706431Y188660D01*
X704353Y187800D01*
X702569Y186431D01*
X701200Y184647D01*
X700340Y182569D01*
X700046Y180340D01*
X700340Y178111D01*
X701200Y176033D01*
X702569Y174249D01*
X704353Y172880D01*
X706431Y172020D01*
X708660Y171726D01*
X710889Y172020D01*
X712967Y172880D01*
X714751Y174249D01*
X716120Y176033D01*
X716980Y178111D01*
X717274Y180340D01*
X716980Y182569D01*
X716120Y184647D01*
X714751Y186431D01*
X712967Y187800D01*
X710889Y188660D01*
X708660Y188954D01*
D02*
G37*
G36*
X226060D02*
X223831Y188660D01*
X221753Y187800D01*
X219969Y186431D01*
X218600Y184647D01*
X217740Y182569D01*
X217446Y180340D01*
X217740Y178111D01*
X218600Y176033D01*
X219969Y174249D01*
X221753Y172880D01*
X223831Y172020D01*
X226060Y171726D01*
X228289Y172020D01*
X230367Y172880D01*
X232151Y174249D01*
X233520Y176033D01*
X234380Y178111D01*
X234674Y180340D01*
X234380Y182569D01*
X233520Y184647D01*
X232151Y186431D01*
X230367Y187800D01*
X228289Y188660D01*
X226060Y188954D01*
D02*
G37*
G36*
X734060Y163554D02*
X731831Y163260D01*
X729753Y162400D01*
X727969Y161031D01*
X726600Y159247D01*
X725740Y157169D01*
X725446Y154940D01*
X725740Y152711D01*
X726600Y150633D01*
X727969Y148849D01*
X729753Y147480D01*
X731831Y146620D01*
X734060Y146326D01*
X736289Y146620D01*
X738367Y147480D01*
X740151Y148849D01*
X741520Y150633D01*
X742380Y152711D01*
X742674Y154940D01*
X742380Y157169D01*
X741520Y159247D01*
X740151Y161031D01*
X738367Y162400D01*
X736289Y163260D01*
X734060Y163554D01*
D02*
G37*
G36*
X708660D02*
X706431Y163260D01*
X704353Y162400D01*
X702569Y161031D01*
X701200Y159247D01*
X700340Y157169D01*
X700046Y154940D01*
X700340Y152711D01*
X701200Y150633D01*
X702569Y148849D01*
X704353Y147480D01*
X706431Y146620D01*
X708660Y146326D01*
X710889Y146620D01*
X712967Y147480D01*
X714751Y148849D01*
X716120Y150633D01*
X716980Y152711D01*
X717274Y154940D01*
X716980Y157169D01*
X716120Y159247D01*
X714751Y161031D01*
X712967Y162400D01*
X710889Y163260D01*
X708660Y163554D01*
D02*
G37*
G36*
X55880Y159528D02*
X54124Y159179D01*
X52636Y158184D01*
X51641Y156696D01*
X51292Y154940D01*
X51641Y153184D01*
X51822Y152914D01*
X51786Y152734D01*
X51786Y152734D01*
Y145810D01*
X50110D01*
Y135810D01*
X59110D01*
Y145810D01*
X57434D01*
Y150661D01*
X57636Y150701D01*
X59124Y151696D01*
X60119Y153184D01*
X60468Y154940D01*
X60119Y156696D01*
X59124Y158184D01*
X57636Y159179D01*
X55880Y159528D01*
D02*
G37*
G36*
X105440Y125810D02*
X96440D01*
Y119804D01*
X90105Y113469D01*
X89493Y112553D01*
X89278Y111472D01*
X89278Y111472D01*
Y109377D01*
X88196Y108654D01*
X87915Y108234D01*
X81180D01*
X68837Y120577D01*
X68610Y120729D01*
Y125810D01*
X59610D01*
Y115810D01*
X65567D01*
X65628Y115798D01*
X78013Y103413D01*
X78929Y102801D01*
X80010Y102586D01*
X80010Y102586D01*
X87915D01*
X88196Y102166D01*
X89684Y101171D01*
X91440Y100822D01*
X93196Y101171D01*
X94684Y102166D01*
X95679Y103654D01*
X96028Y105410D01*
X95679Y107166D01*
X94926Y108292D01*
Y110302D01*
X100434Y115810D01*
X105440D01*
Y125810D01*
D02*
G37*
G36*
X734060Y112754D02*
X731831Y112460D01*
X729753Y111600D01*
X727969Y110231D01*
X726600Y108447D01*
X725740Y106369D01*
X725446Y104140D01*
X725740Y101911D01*
X726600Y99833D01*
X727969Y98049D01*
X729753Y96680D01*
X731831Y95820D01*
X734060Y95526D01*
X736289Y95820D01*
X738367Y96680D01*
X740151Y98049D01*
X741520Y99833D01*
X742380Y101911D01*
X742674Y104140D01*
X742380Y106369D01*
X741520Y108447D01*
X740151Y110231D01*
X738367Y111600D01*
X736289Y112460D01*
X734060Y112754D01*
D02*
G37*
G36*
X708660D02*
X706431Y112460D01*
X704353Y111600D01*
X702569Y110231D01*
X701200Y108447D01*
X700340Y106369D01*
X700046Y104140D01*
X700340Y101911D01*
X701200Y99833D01*
X702569Y98049D01*
X704353Y96680D01*
X706431Y95820D01*
X708660Y95526D01*
X710889Y95820D01*
X712967Y96680D01*
X714751Y98049D01*
X716120Y99833D01*
X716980Y101911D01*
X717274Y104140D01*
X716980Y106369D01*
X716120Y108447D01*
X714751Y110231D01*
X712967Y111600D01*
X710889Y112460D01*
X708660Y112754D01*
D02*
G37*
G36*
X734060Y87354D02*
X731831Y87060D01*
X729753Y86200D01*
X727969Y84831D01*
X726600Y83047D01*
X725740Y80969D01*
X725446Y78740D01*
X725740Y76511D01*
X726600Y74433D01*
X727969Y72649D01*
X729753Y71280D01*
X731831Y70420D01*
X734060Y70126D01*
X736289Y70420D01*
X738367Y71280D01*
X740151Y72649D01*
X741520Y74433D01*
X742380Y76511D01*
X742674Y78740D01*
X742380Y80969D01*
X741520Y83047D01*
X740151Y84831D01*
X738367Y86200D01*
X736289Y87060D01*
X734060Y87354D01*
D02*
G37*
G36*
X708660D02*
X706431Y87060D01*
X704353Y86200D01*
X702569Y84831D01*
X701200Y83047D01*
X700340Y80969D01*
X700046Y78740D01*
X700340Y76511D01*
X701200Y74433D01*
X702569Y72649D01*
X704353Y71280D01*
X706431Y70420D01*
X708660Y70126D01*
X710889Y70420D01*
X712967Y71280D01*
X714751Y72649D01*
X716120Y74433D01*
X716980Y76511D01*
X717274Y78740D01*
X716980Y80969D01*
X716120Y83047D01*
X714751Y84831D01*
X712967Y86200D01*
X710889Y87060D01*
X708660Y87354D01*
D02*
G37*
G36*
X226060D02*
X223831Y87060D01*
X221753Y86200D01*
X219969Y84831D01*
X218600Y83047D01*
X217740Y80969D01*
X217446Y78740D01*
X217740Y76511D01*
X218600Y74433D01*
X219969Y72649D01*
X221753Y71280D01*
X223831Y70420D01*
X226060Y70126D01*
X228289Y70420D01*
X230367Y71280D01*
X232151Y72649D01*
X233520Y74433D01*
X234380Y76511D01*
X234674Y78740D01*
X234380Y80969D01*
X233520Y83047D01*
X232151Y84831D01*
X230367Y86200D01*
X228289Y87060D01*
X226060Y87354D01*
D02*
G37*
G36*
X200660D02*
X198431Y87060D01*
X196353Y86200D01*
X194569Y84831D01*
X193200Y83047D01*
X192340Y80969D01*
X192046Y78740D01*
X192340Y76511D01*
X193200Y74433D01*
X194569Y72649D01*
X196353Y71280D01*
X198431Y70420D01*
X200660Y70126D01*
X202889Y70420D01*
X204967Y71280D01*
X206751Y72649D01*
X208120Y74433D01*
X208980Y76511D01*
X209274Y78740D01*
X208980Y80969D01*
X208120Y83047D01*
X206751Y84831D01*
X204967Y86200D01*
X202889Y87060D01*
X200660Y87354D01*
D02*
G37*
G36*
X981690Y84644D02*
X963240D01*
X962827Y84472D01*
X962385Y84400D01*
X962272Y84242D01*
X962092Y84168D01*
X961921Y83755D01*
X961659Y83392D01*
X957529Y65819D01*
X949084D01*
X948294Y66814D01*
X951996Y82650D01*
X951965Y82841D01*
X952028Y82995D01*
X952039Y83020D01*
X951867Y83434D01*
X951794Y83877D01*
X951637Y83989D01*
X951563Y84168D01*
X951149Y84340D01*
X950785Y84601D01*
X950594Y84570D01*
X950415Y84644D01*
X833440D01*
X833027Y84472D01*
X832585Y84400D01*
X832471Y84242D01*
X832292Y84168D01*
X832121Y83755D01*
X831859Y83391D01*
X820109Y33391D01*
X820141Y33200D01*
X820077Y33045D01*
X820066Y33020D01*
X820238Y32606D01*
X820310Y32165D01*
X820468Y32051D01*
X820542Y31872D01*
X820955Y31701D01*
X821319Y31439D01*
X821346Y31444D01*
X821510Y31471D01*
X821690Y31396D01*
X868990D01*
X869404Y31568D01*
X869846Y31640D01*
X869959Y31798D01*
X870138Y31872D01*
X870309Y32286D01*
X870571Y32649D01*
X873621Y45649D01*
X873589Y45841D01*
X873653Y45995D01*
X873664Y46020D01*
X873492Y46434D01*
X873420Y46876D01*
X873262Y46989D01*
X873188Y47168D01*
X872774Y47339D01*
X872411Y47601D01*
X872219Y47569D01*
X872040Y47644D01*
X847358D01*
X846569Y48639D01*
X847003Y50496D01*
X872265D01*
X872678Y50668D01*
X873119Y50739D01*
X873233Y50897D01*
X873413Y50972D01*
X873584Y51385D01*
X873845Y51748D01*
X876670Y63748D01*
X876639Y63940D01*
X876703Y64095D01*
X876714Y64120D01*
X876542Y64533D01*
X876471Y64974D01*
X876313Y65088D01*
X876238Y65268D01*
X875825Y65439D01*
X875462Y65700D01*
X875435Y65696D01*
X875270Y65669D01*
X875090Y65744D01*
X851593D01*
X850805Y66740D01*
X851198Y68396D01*
X889841D01*
X890629Y67401D01*
X882610Y33393D01*
X882641Y33200D01*
X882566Y33020D01*
X882737Y32607D01*
X882809Y32166D01*
X882967Y32052D01*
X883042Y31872D01*
X883455Y31701D01*
X883817Y31440D01*
X883844Y31444D01*
X884010Y31471D01*
X884190Y31396D01*
X903740D01*
X904153Y31568D01*
X904595Y31640D01*
X904708Y31797D01*
X904888Y31872D01*
X905059Y32285D01*
X905321Y32648D01*
X913726Y68396D01*
X925844D01*
X926633Y67401D01*
X918659Y33391D01*
X918691Y33199D01*
X918616Y33020D01*
X918788Y32606D01*
X918860Y32164D01*
X919018Y32051D01*
X919092Y31872D01*
X919506Y31700D01*
X919869Y31439D01*
X920061Y31471D01*
X920240Y31396D01*
X938690D01*
X939104Y31568D01*
X939545Y31640D01*
X939659Y31798D01*
X939838Y31872D01*
X940009Y32286D01*
X940271Y32649D01*
X944477Y50571D01*
X952919D01*
X953708Y49576D01*
X949909Y33391D01*
X949941Y33199D01*
X949877Y33045D01*
X949866Y33020D01*
X950038Y32606D01*
X950110Y32165D01*
X950268Y32051D01*
X950342Y31872D01*
X950755Y31701D01*
X951119Y31439D01*
X951146Y31444D01*
X951311Y31471D01*
X951490Y31396D01*
X969940D01*
X970353Y31568D01*
X970795Y31640D01*
X970908Y31797D01*
X971088Y31872D01*
X971259Y32285D01*
X971357Y32421D01*
X972333Y32512D01*
X972773Y32437D01*
X972774Y32437D01*
X972842Y32272D01*
X973269Y32095D01*
X973649Y31833D01*
X973676Y31838D01*
X973825Y31865D01*
X973990Y31796D01*
X989090D01*
X989511Y31971D01*
X989961Y32050D01*
X990067Y32201D01*
X990238Y32272D01*
X990413Y32693D01*
X990675Y33067D01*
X991214Y35488D01*
X991290Y35494D01*
X992550Y35307D01*
X992950Y34107D01*
X993197Y33821D01*
X993342Y33472D01*
X994142Y32672D01*
X994332Y32593D01*
X994455Y32428D01*
X995455Y31828D01*
X995698Y31792D01*
X995896Y31645D01*
X996696Y31445D01*
X996900Y31475D01*
X997090Y31396D01*
X998690D01*
X998880Y31475D01*
X999084Y31445D01*
X1000684Y31845D01*
X1000868Y31981D01*
X1001096Y32010D01*
X1002042Y32272D01*
X1002466Y32096D01*
X1002843Y31834D01*
X1003022Y31866D01*
X1003190Y31796D01*
X1007790D01*
X1008212Y31971D01*
X1008662Y32050D01*
X1008768Y32201D01*
X1008938Y32272D01*
X1009113Y32694D01*
X1009375Y33068D01*
X1010758Y33438D01*
X1010791Y33420D01*
X1010966Y32998D01*
X1011045Y32548D01*
X1011196Y32442D01*
X1011267Y32272D01*
X1011689Y32097D01*
X1012063Y31835D01*
X1012245Y31867D01*
X1012415Y31796D01*
X1016515D01*
X1016938Y31971D01*
X1017388Y32051D01*
X1017493Y32202D01*
X1017663Y32272D01*
X1017838Y32694D01*
X1018100Y33069D01*
X1018711Y35829D01*
X1019620Y38773D01*
X1020663Y41332D01*
X1021463Y42844D01*
X1022567Y44301D01*
X1023243Y44977D01*
X1023691Y45297D01*
X1023908Y45390D01*
X1024358Y45273D01*
X1024388Y45278D01*
X1024414Y45260D01*
X1024561Y45286D01*
X1025377Y44627D01*
X1025613Y44167D01*
X1023305Y33772D01*
X1023337Y33590D01*
X1023277Y33445D01*
X1023266Y33420D01*
X1023441Y32998D01*
X1023520Y32548D01*
X1023671Y32442D01*
X1023742Y32272D01*
X1024164Y32097D01*
X1024538Y31835D01*
X1024720Y31867D01*
X1024890Y31796D01*
X1028990D01*
X1029412Y31971D01*
X1029862Y32050D01*
X1029968Y32201D01*
X1030138Y32272D01*
X1030313Y32694D01*
X1030575Y33068D01*
X1031623Y37789D01*
X1031878Y37920D01*
X1033255Y37201D01*
X1033281Y37005D01*
X1033349Y36888D01*
X1033335Y36753D01*
X1033635Y35753D01*
X1033727Y35640D01*
X1033738Y35494D01*
X1034238Y34494D01*
X1034353Y34394D01*
X1034391Y34246D01*
X1034991Y33446D01*
X1035195Y33325D01*
X1035316Y33121D01*
X1036116Y32521D01*
X1036300Y32474D01*
X1036431Y32336D01*
X1037331Y31936D01*
X1037499Y31932D01*
X1037638Y31835D01*
X1038538Y31635D01*
X1038638Y31653D01*
X1038728Y31604D01*
X1040728Y31405D01*
X1040811Y31429D01*
X1040890Y31396D01*
X1041890D01*
X1041978Y31433D01*
X1042069Y31406D01*
X1043869Y31606D01*
X1043966Y31660D01*
X1044075Y31643D01*
X1045201Y31918D01*
X1045213Y31927D01*
X1045228Y31925D01*
X1045703Y32050D01*
X1045977Y32258D01*
X1046008Y32267D01*
X1046289Y32332D01*
X1046351Y32339D01*
X1046924Y32304D01*
X1047455Y32259D01*
X1047588Y32211D01*
X1047864Y32097D01*
X1048239Y31835D01*
X1048420Y31867D01*
X1048590Y31796D01*
X1052690D01*
X1053113Y31972D01*
X1053565Y32052D01*
X1053669Y32202D01*
X1053838Y32272D01*
X1054014Y32696D01*
X1054276Y33071D01*
X1055744Y39753D01*
X1056503Y41559D01*
X1057439Y43245D01*
X1058141Y44369D01*
X1059333Y43880D01*
X1057080Y33773D01*
X1057112Y33591D01*
X1057041Y33420D01*
X1057216Y32999D01*
X1057295Y32549D01*
X1057446Y32443D01*
X1057517Y32272D01*
X1057938Y32097D01*
X1058312Y31835D01*
X1058494Y31867D01*
X1058665Y31796D01*
X1063115D01*
X1063540Y31972D01*
X1063993Y32054D01*
X1064096Y32203D01*
X1064263Y32272D01*
X1064439Y32697D01*
X1064702Y33075D01*
X1066626Y41922D01*
X1067351Y45222D01*
X1067326Y45361D01*
X1067387Y45489D01*
X1067462Y46989D01*
X1067407Y47142D01*
X1067447Y47300D01*
X1067247Y48700D01*
X1067169Y48831D01*
X1067180Y48983D01*
X1066780Y50183D01*
X1066533Y50469D01*
X1066388Y50818D01*
X1065588Y51618D01*
X1065398Y51697D01*
X1065275Y51862D01*
X1064275Y52462D01*
X1064032Y52498D01*
X1063834Y52645D01*
X1063034Y52845D01*
X1062830Y52815D01*
X1062640Y52894D01*
X1061040D01*
X1060850Y52815D01*
X1060646Y52845D01*
X1059912Y52662D01*
X1058842Y53703D01*
X1059950Y58693D01*
X1059918Y58875D01*
X1059978Y59020D01*
X1059989Y59045D01*
X1059814Y59467D01*
X1059735Y59917D01*
X1059584Y60023D01*
X1059513Y60193D01*
X1059091Y60368D01*
X1058717Y60630D01*
X1058690Y60625D01*
X1058535Y60598D01*
X1058365Y60669D01*
X1054265D01*
X1053843Y60494D01*
X1053392Y60414D01*
X1053287Y60263D01*
X1053117Y60193D01*
X1052942Y59771D01*
X1052680Y59396D01*
X1051027Y51935D01*
X1051009Y51924D01*
X1049659Y51628D01*
X1049529Y51719D01*
X1049141Y52072D01*
X1048241Y52397D01*
X1048074Y52389D01*
X1047931Y52476D01*
X1046931Y52626D01*
X1046807Y52595D01*
X1046690Y52644D01*
X1045090D01*
X1045024Y52616D01*
X1044955Y52638D01*
X1043155Y52488D01*
X1043042Y52429D01*
X1042916Y52450D01*
X1041016Y52000D01*
X1040858Y51886D01*
X1040664Y51872D01*
X1039064Y51072D01*
X1038957Y50949D01*
X1038800Y50907D01*
X1037500Y49907D01*
X1037445Y49811D01*
X1037342Y49768D01*
X1036542Y48968D01*
X1036506Y48880D01*
X1036422Y48834D01*
X1035622Y47834D01*
X1035587Y47714D01*
X1035488Y47638D01*
X1034788Y46438D01*
X1033962Y46662D01*
X1033635Y46849D01*
X1034450Y50518D01*
X1034418Y50700D01*
X1034489Y50870D01*
X1034314Y51292D01*
X1034235Y51742D01*
X1034460Y52816D01*
X1034608Y53082D01*
X1035442Y54330D01*
X1035754Y55895D01*
X1035442Y57460D01*
X1034556Y58786D01*
X1033230Y59672D01*
X1031665Y59984D01*
X1030100Y59672D01*
X1028774Y58786D01*
X1027888Y57460D01*
X1027576Y55895D01*
X1027888Y54330D01*
X1028331Y53667D01*
X1028335Y53249D01*
X1027893Y52240D01*
X1027389Y52082D01*
X1026386Y52364D01*
X1026041Y52605D01*
X1025996Y52597D01*
X1025957Y52621D01*
X1025357Y52722D01*
X1025220Y52690D01*
X1025090Y52744D01*
X1024490D01*
X1024360Y52690D01*
X1024223Y52722D01*
X1023623Y52621D01*
X1023443Y52509D01*
X1023231Y52504D01*
X1022782Y52304D01*
X1021538Y52018D01*
X1021116Y52193D01*
X1020741Y52455D01*
X1020560Y52423D01*
X1020390Y52494D01*
X1016290D01*
X1015868Y52319D01*
X1015418Y52240D01*
X1015312Y52089D01*
X1015142Y52018D01*
X1014967Y51596D01*
X1014705Y51222D01*
X1013322Y50852D01*
X1013289Y50870D01*
X1013114Y51292D01*
X1013035Y51742D01*
X1012884Y51848D01*
X1012813Y52018D01*
X1012391Y52193D01*
X1012017Y52455D01*
X1011835Y52423D01*
X1011665Y52494D01*
X1011571Y52620D01*
X1011154Y53764D01*
X1011782Y54703D01*
X1012074Y56170D01*
X1011782Y57637D01*
X1010951Y58881D01*
X1009707Y59712D01*
X1008240Y60004D01*
X1006773Y59712D01*
X1005529Y58881D01*
X1005429Y58730D01*
X1003901D01*
X1003801Y58881D01*
X1002557Y59712D01*
X1001090Y60004D01*
X999623Y59712D01*
X998379Y58881D01*
X997548Y57637D01*
X997256Y56170D01*
X997548Y54703D01*
X998176Y53764D01*
X997797Y52725D01*
X997613Y52494D01*
X996615D01*
X996525Y52456D01*
X995519Y52765D01*
X995154Y52941D01*
X995053Y53432D01*
X995146Y53777D01*
X995350Y54069D01*
X995925Y56669D01*
X995893Y56850D01*
X995964Y57020D01*
X995788Y57443D01*
X995709Y57893D01*
X995558Y57998D01*
X995488Y58168D01*
X995065Y58343D01*
X994691Y58605D01*
X994510Y58573D01*
X994340Y58644D01*
X979215D01*
X978904Y58515D01*
X978613Y58650D01*
X977818Y59446D01*
X983271Y82649D01*
X983239Y82840D01*
X983303Y82995D01*
X983314Y83020D01*
X983142Y83434D01*
X983070Y83875D01*
X982913Y83988D01*
X982838Y84168D01*
X982425Y84339D01*
X982061Y84600D01*
X981870Y84569D01*
X981690Y84644D01*
D02*
G37*
G36*
X1174750Y88416D02*
X1168866Y87953D01*
X1163126Y86575D01*
X1157673Y84316D01*
X1152640Y81232D01*
X1148151Y77399D01*
X1144318Y72910D01*
X1141234Y67877D01*
X1138975Y62424D01*
X1137597Y56684D01*
X1137134Y50800D01*
X1137597Y44916D01*
X1138975Y39176D01*
X1141234Y33723D01*
X1144318Y28690D01*
X1148151Y24202D01*
X1152640Y20368D01*
X1157673Y17284D01*
X1163126Y15025D01*
X1168866Y13647D01*
X1174750Y13184D01*
X1180634Y13647D01*
X1186374Y15025D01*
X1191827Y17284D01*
X1196860Y20368D01*
X1201348Y24202D01*
X1205182Y28690D01*
X1208266Y33723D01*
X1210525Y39176D01*
X1211903Y44916D01*
X1212366Y50800D01*
X1211903Y56684D01*
X1210525Y62424D01*
X1208266Y67877D01*
X1205182Y72910D01*
X1201348Y77399D01*
X1196860Y81232D01*
X1191827Y84316D01*
X1186374Y86575D01*
X1180634Y87953D01*
X1174750Y88416D01*
D02*
G37*
G36*
X50800D02*
X44916Y87953D01*
X39176Y86575D01*
X33723Y84316D01*
X28690Y81232D01*
X24202Y77399D01*
X20368Y72910D01*
X17284Y67877D01*
X15025Y62424D01*
X13647Y56684D01*
X13184Y50800D01*
X13647Y44916D01*
X15025Y39176D01*
X17284Y33723D01*
X20368Y28690D01*
X24202Y24202D01*
X28690Y20368D01*
X33723Y17284D01*
X39176Y15025D01*
X44916Y13647D01*
X50800Y13184D01*
X56684Y13647D01*
X62424Y15025D01*
X67877Y17284D01*
X72910Y20368D01*
X77399Y24202D01*
X81232Y28690D01*
X84316Y33723D01*
X86575Y39176D01*
X87953Y44916D01*
X88416Y50800D01*
X87953Y56684D01*
X86575Y62424D01*
X84316Y67877D01*
X81232Y72910D01*
X77399Y77399D01*
X72910Y81232D01*
X67877Y84316D01*
X62424Y86575D01*
X56684Y87953D01*
X50800Y88416D01*
D02*
G37*
%LPD*%
G36*
X969940Y33020D02*
X951490D01*
X955990Y52195D01*
X943190D01*
X938690Y33020D01*
X920240D01*
X928915Y70020D01*
X912440D01*
X903740Y33020D01*
X884190D01*
X892915Y70020D01*
X849915D01*
X848515Y64120D01*
X875090D01*
X872265Y52120D01*
X845715D01*
X844290Y46020D01*
X872040D01*
X868990Y33020D01*
X821690D01*
X833440Y83020D01*
X950415D01*
X946015Y64195D01*
X958815D01*
X963240Y83020D01*
X981690D01*
X969940Y33020D01*
D02*
G37*
G36*
X1047690Y50870D02*
X1048590Y50545D01*
X1047790Y46920D01*
X1047090Y47120D01*
X1046590Y47220D01*
X1045490Y47320D01*
X1044290D01*
X1043490Y47220D01*
X1042690Y46920D01*
X1041890Y46420D01*
X1040990Y45320D01*
X1040390Y44420D01*
X1039890Y43320D01*
X1039490Y42020D01*
X1039290Y40720D01*
Y39820D01*
X1039390Y39120D01*
X1039590Y38420D01*
X1039890Y37820D01*
X1040290Y37420D01*
X1040990Y37020D01*
X1041790Y36820D01*
X1042490D01*
X1043490Y36920D01*
X1044790Y37220D01*
X1045715Y37545D01*
X1045290Y33620D01*
X1044815Y33495D01*
X1043690Y33220D01*
X1041890Y33020D01*
X1040890D01*
X1038890Y33220D01*
X1037990Y33420D01*
X1037090Y33820D01*
X1036290Y34420D01*
X1035690Y35220D01*
X1035190Y36220D01*
X1034890Y37220D01*
X1034690Y38720D01*
Y40420D01*
X1034890Y41720D01*
X1035190Y43020D01*
X1035690Y44420D01*
X1036190Y45620D01*
X1036890Y46820D01*
X1037690Y47820D01*
X1038490Y48620D01*
X1039790Y49620D01*
X1041390Y50420D01*
X1043290Y50870D01*
X1045090Y51020D01*
X1046690D01*
X1047690Y50870D01*
D02*
G37*
G36*
X1025690Y51020D02*
X1024765Y46845D01*
X1024090Y47020D01*
X1023590D01*
X1022890Y46720D01*
X1022190Y46220D01*
X1021340Y45370D01*
X1020090Y43720D01*
X1019190Y42020D01*
X1018090Y39320D01*
X1017140Y36245D01*
X1016515Y33420D01*
X1012415D01*
X1016290Y50870D01*
X1020390D01*
X1019315Y46020D01*
X1020090Y47620D01*
X1020890Y48820D01*
X1021590Y49520D01*
X1022390Y50220D01*
X1022990Y50620D01*
X1023890Y51020D01*
X1024490Y51120D01*
X1025090D01*
X1025690Y51020D01*
D02*
G37*
G36*
X1007790Y33420D02*
X1003190D01*
X1003890Y36620D01*
X1002740Y35270D01*
X1001690Y34220D01*
X1000290Y33420D01*
X998690Y33020D01*
X997090D01*
X996290Y33220D01*
X995290Y33820D01*
X994490Y34620D01*
X994090Y35820D01*
X993890Y37220D01*
X993965Y38720D01*
X994690Y42020D01*
X996615Y50870D01*
X1001065D01*
X998490Y39320D01*
X998390Y38620D01*
Y37820D01*
X998490Y37220D01*
X998890Y36820D01*
X999490Y36620D01*
X1000090D01*
X1000890Y37020D01*
X1001690Y37570D01*
X1002690Y38620D01*
X1003690Y40220D01*
X1004690Y42020D01*
X1005540Y44045D01*
X1007040Y50870D01*
X1011665D01*
X1007790Y33420D01*
D02*
G37*
G36*
X1055840Y47670D02*
X1056990Y49020D01*
X1058040Y50070D01*
X1059440Y50870D01*
X1061040Y51270D01*
X1062640D01*
X1063440Y51070D01*
X1064440Y50470D01*
X1065240Y49670D01*
X1065640Y48470D01*
X1065840Y47070D01*
X1065765Y45570D01*
X1065040Y42270D01*
X1063115Y33420D01*
X1058665D01*
X1061240Y44970D01*
X1061340Y45670D01*
Y46470D01*
X1061240Y47070D01*
X1060840Y47470D01*
X1060240Y47670D01*
X1059640D01*
X1058840Y47270D01*
X1058040Y46720D01*
X1057040Y45670D01*
X1056040Y44070D01*
X1055040Y42270D01*
X1054190Y40245D01*
X1052690Y33420D01*
X1048590D01*
X1054265Y59045D01*
X1058365D01*
X1055840Y47670D01*
D02*
G37*
G36*
X1028990Y33420D02*
X1024890D01*
X1028765Y50870D01*
X1032865D01*
X1028990Y33420D01*
D02*
G37*
G36*
X993765Y54420D02*
X980840Y37570D01*
X990015D01*
X989090Y33420D01*
X973990D01*
X974565Y36095D01*
X987440Y52870D01*
X978290D01*
X979215Y57020D01*
X994340D01*
X993765Y54420D01*
D02*
G37*
D15*
X217521Y503578D02*
G03*
X218345Y502650I8513J6727D01*
G01*
X218345Y502650D02*
G03*
X220971Y500256I26875J26839D01*
G01*
X1209374Y900430D02*
X1210310D01*
X1208104Y901700D02*
X1209374Y900430D01*
X1195134Y901700D02*
X1208104D01*
X945710Y947730D02*
X949210Y951230D01*
X974090D01*
X1195197Y812800D02*
X1210310D01*
X974090Y928370D02*
Y951230D01*
X90170Y902970D02*
X185420Y807720D01*
Y510436D02*
X199159Y496697D01*
X185420Y510436D02*
Y807720D01*
X78739Y853441D02*
X179070Y753110D01*
Y506730D02*
X200660Y485140D01*
X179070Y506730D02*
Y753110D01*
X78739Y828041D02*
X172720Y734060D01*
Y487680D02*
X200660Y459740D01*
X172720Y487680D02*
Y734060D01*
X62090Y902740D02*
Y904240D01*
Y902740D02*
X72509Y892321D01*
X163830Y481226D02*
X196166Y448890D01*
X158750Y469900D02*
Y645160D01*
X163830Y481226D02*
Y717550D01*
X78739Y725171D02*
X158750Y645160D01*
X78740Y802640D02*
X163830Y717550D01*
X214503Y496697D02*
X226060Y485140D01*
X199159Y496697D02*
X214503D01*
X205154Y448890D02*
X215210Y458946D01*
X225266D02*
X226060Y459740D01*
X215210Y458946D02*
X225266D01*
X196166Y448890D02*
X205154D01*
X96520Y681990D02*
X144780Y633730D01*
Y471170D02*
Y633730D01*
X53340Y690880D02*
Y738922D01*
X68917Y740749D02*
X78739Y750571D01*
X55167Y740749D02*
X68917D01*
X53340Y738922D02*
X55167Y740749D01*
X53340Y690880D02*
X62230Y681990D01*
X96520D01*
X58191Y627381D02*
X78739D01*
X49530Y618720D02*
X58191Y627381D01*
X49530Y617220D02*
Y618720D01*
X50660Y668020D02*
X63500D01*
X78740Y652780D01*
X32030Y597890D02*
Y617220D01*
Y597890D02*
X49530Y580390D01*
X33160Y618350D02*
Y668020D01*
X32030Y617220D02*
X33160Y618350D01*
X99060Y566420D02*
Y575310D01*
X93980Y580390D02*
X99060Y575310D01*
X62180Y566420D02*
X62998Y565602D01*
X68990D01*
X75482Y559110D01*
X84638D01*
X88978Y563450D01*
Y575388D01*
X93980Y580390D01*
X80060Y566420D02*
Y566920D01*
X78330Y568650D02*
X80060Y566920D01*
X77830Y568650D02*
X78330D01*
X66090Y580390D02*
X77830Y568650D01*
X49530Y580390D02*
X66090D01*
X43180Y566420D02*
Y566920D01*
X49530Y573270D01*
Y580390D01*
X102870Y455930D02*
X179070Y379730D01*
X97790Y461010D02*
X102870Y455930D01*
X89560Y545920D02*
Y546420D01*
Y545920D02*
X91290Y544190D01*
X95890D01*
X107950Y532130D01*
X106220Y465630D02*
X106680Y466090D01*
X106220Y459280D02*
Y465630D01*
X102870Y455930D02*
X106220Y459280D01*
X52680Y545920D02*
Y546420D01*
Y545920D02*
X54410Y544190D01*
X54910D01*
X61890Y537210D01*
X95250D01*
X99060Y499110D02*
Y533400D01*
X95250Y537210D02*
X99060Y533400D01*
X78739Y519431D02*
X99060Y499110D01*
Y487680D02*
Y499110D01*
X185420Y326390D02*
Y401320D01*
X99060Y487680D02*
X185420Y401320D01*
X78739Y494031D02*
X97790Y474980D01*
Y461010D02*
Y474980D01*
X189920Y321890D02*
X203890D01*
X185420Y326390D02*
X189920Y321890D01*
X179070Y317500D02*
Y379730D01*
Y317500D02*
X185420Y311150D01*
X123190Y424180D02*
X173990Y373380D01*
X78739Y468631D02*
X123190Y424180D01*
X54610Y384650D02*
Y397510D01*
X118110Y416560D02*
X123190Y421640D01*
Y424180D01*
X173990Y309880D02*
Y373380D01*
X179070Y252730D02*
Y304800D01*
X173990Y309880D02*
X179070Y304800D01*
X168910Y243840D02*
Y353060D01*
X106045Y415925D02*
X168910Y353060D01*
X195580Y243840D02*
X213360D01*
X185420Y254000D02*
Y311150D01*
Y254000D02*
X195580Y243840D01*
X168910D02*
X194310Y218440D01*
X78739Y443231D02*
X106045Y415925D01*
X91440Y384650D02*
Y401320D01*
X106045Y415925D01*
X81330Y331470D02*
Y340310D01*
X72390Y349250D02*
X81330Y340310D01*
X93968Y364650D02*
X100940D01*
X79200Y349882D02*
X93968Y364650D01*
X73022Y349882D02*
X79200D01*
X72390Y349250D02*
X73022Y349882D01*
X64110Y364150D02*
Y364650D01*
Y364150D02*
X72200Y356060D01*
Y349440D02*
Y356060D01*
Y349440D02*
X72390Y349250D01*
X71909Y367871D02*
X75130Y364650D01*
X81940D01*
X71909Y367871D02*
Y368739D01*
X68538Y372110D02*
X71909Y368739D01*
X52570Y372110D02*
X68538D01*
X45110Y331310D02*
Y331810D01*
X46840Y333540D01*
X47340D01*
X63050Y349250D01*
X72390D01*
X100330Y330970D02*
Y331470D01*
X98600Y329240D02*
X100330Y330970D01*
X98100Y329240D02*
X98600D01*
X91440Y322580D02*
X98100Y329240D01*
X55380Y322580D02*
X91440D01*
X64110Y330810D02*
Y331310D01*
X62380Y329080D02*
X64110Y330810D01*
X61880Y329080D02*
X62380D01*
X55380Y322580D02*
X61880Y329080D01*
X41910Y322580D02*
X55380D01*
X21590Y347980D02*
X32081Y337489D01*
Y332409D02*
Y337489D01*
Y332409D02*
X41910Y322580D01*
X38260Y364650D02*
X45110D01*
X21590Y347980D02*
X38260Y364650D01*
X45110D02*
Y365150D01*
X46840Y366880D01*
X47340D01*
X52570Y372110D01*
X100940Y120310D02*
Y120810D01*
X92102Y111472D02*
X100940Y120310D01*
X92102Y106072D02*
Y111472D01*
X91440Y105410D02*
X92102Y106072D01*
X64770Y119650D02*
Y120650D01*
Y119650D02*
X65840Y118580D01*
X66840D01*
X80010Y105410D01*
X91440D01*
X64110Y120810D02*
X64610D01*
X64770Y120650D01*
X34450Y120810D02*
X45110D01*
X26670Y113030D02*
X34450Y120810D01*
X45110D02*
Y121310D01*
X46840Y123040D01*
X47340D01*
X55110Y130810D01*
X67310D01*
X75130Y122990D01*
X81940Y120810D02*
Y121260D01*
X80210Y122990D02*
X81940Y121260D01*
X75130Y122990D02*
X80210D01*
X96520Y241082D02*
Y252730D01*
Y233680D02*
Y241082D01*
X54610Y310810D02*
Y311310D01*
Y310810D02*
X61568Y303852D01*
Y299112D02*
Y303852D01*
Y299112D02*
X62230Y298450D01*
X96520Y252730D02*
X102870Y259080D01*
X78740Y250190D02*
X84970Y243960D01*
X93642D01*
X96520Y241082D01*
Y233680D02*
X200660Y129540D01*
X106680Y275591D02*
X120649D01*
X78739D02*
X106680D01*
X90830Y310970D02*
Y311470D01*
Y310970D02*
X106680Y295120D01*
Y275591D02*
Y295120D01*
X120649Y275591D02*
X144251Y251989D01*
X54610Y140810D02*
Y152734D01*
X55880Y154004D01*
Y154940D01*
X123190Y166370D02*
X134091Y177271D01*
Y179599D01*
X78740Y224790D02*
X123931Y179599D01*
X134091D01*
X91440Y140810D02*
Y152400D01*
X104140Y165100D01*
X78740Y199390D02*
X104140Y173990D01*
Y165100D02*
Y173990D01*
X165100Y104140D02*
X200660D01*
X104140Y165100D02*
X165100Y104140D01*
X74928Y623570D02*
X74930D01*
X72509Y621151D02*
X74928Y623570D01*
X226060Y408940D02*
X274320D01*
X401320Y535940D01*
X471170Y609600D02*
X633731Y772161D01*
X876301D01*
X1122377Y688340D02*
X1178560D01*
X1114757Y695960D02*
X1122377Y688340D01*
X1113790Y695960D02*
X1114757D01*
X1122377Y662940D02*
X1178560D01*
X1114757Y670560D02*
X1122377Y662940D01*
X1113790Y670560D02*
X1114757D01*
X1165860Y721360D02*
X1178560Y734060D01*
X1113790Y721360D02*
X1165860D01*
X1126490Y759460D02*
X1178560D01*
X1113790Y746760D02*
X1126490Y759460D01*
X1123950Y345440D02*
X1174750D01*
X1113790Y355600D02*
X1123950Y345440D01*
Y320040D02*
X1174750D01*
X1113790Y330200D02*
X1123950Y320040D01*
X1132840Y400050D02*
X1176020D01*
X1113790Y381000D02*
X1132840Y400050D01*
Y425450D02*
X1176020D01*
X1113790Y406400D02*
X1132840Y425450D01*
X901700Y772160D02*
X986790D01*
X985823Y721360D02*
X986790D01*
X978203Y713740D02*
X985823Y721360D01*
X901700Y713740D02*
X978203D01*
X974090Y670560D02*
X986790D01*
X962661Y659131D02*
X974090Y670560D01*
X901701Y659131D02*
X962661D01*
X887730Y431800D02*
X986790D01*
X883920Y427990D02*
X887730Y431800D01*
X975361Y369571D02*
X986790Y381000D01*
X883921Y369571D02*
X975361D01*
X971551Y314961D02*
X986790Y330200D01*
X883921Y314961D02*
X971551D01*
X901701Y684531D02*
X975361D01*
X986790Y695960D01*
X901700Y802640D02*
X981710D01*
X986790Y797560D01*
X883921Y398781D02*
X978202D01*
X985822Y406400D01*
X986790D01*
X883920Y340360D02*
X960120D01*
X975330Y355570D01*
X986760D01*
X986790Y355600D01*
X883920Y457200D02*
X986790D01*
X905510Y746760D02*
X986790D01*
X901700Y742950D02*
X905510Y746760D01*
X226060Y383540D02*
X313690D01*
X466090Y535940D01*
X538480Y608330D02*
X643891Y713741D01*
X876301D01*
X201454Y408146D02*
X211510D01*
X200660Y408940D02*
X201454Y408146D01*
X211510D02*
X221566Y398090D01*
X293950D01*
X431800Y535940D01*
X505460Y609600D02*
X638811Y742951D01*
X876301D01*
X708660Y408940D02*
X723210Y423490D01*
X772456D01*
X806166Y457200D01*
X858520D01*
X734060Y408940D02*
X734600D01*
X743490Y417830D01*
X844550D01*
X848962Y422242D01*
X852772D01*
X858521Y427991D01*
X708660Y383540D02*
X709454Y384334D01*
X719510D01*
X730146Y394970D01*
X854710D01*
X858521Y398781D01*
X734060Y358140D02*
X847090D01*
X858520Y369570D01*
X709454Y206534D02*
X719510D01*
X708660Y205740D02*
X709454Y206534D01*
X719510D02*
X730273Y217297D01*
X735561D01*
X852291Y334027D01*
Y334131D02*
X858521Y340361D01*
X852291Y334027D02*
Y334131D01*
X734060Y180340D02*
X858521Y304801D01*
Y314961D01*
X514350Y397510D02*
X680720Y231140D01*
X44590Y902740D02*
Y904240D01*
X40110Y898260D02*
X44590Y902740D01*
X31786Y898260D02*
X40110D01*
X27606Y894080D02*
X31786Y898260D01*
X26670Y894080D02*
X27606D01*
X72509Y885071D02*
Y892321D01*
Y885071D02*
X78739Y878841D01*
X63360Y902970D02*
X90170D01*
X880110Y599440D02*
X925830Y645160D01*
X226060Y510540D02*
X314960Y599440D01*
X880110D01*
X636270Y797560D02*
X871220D01*
X449580Y610870D02*
X636270Y797560D01*
X356507Y560070D02*
X356870D01*
X351427Y554990D02*
X356507Y560070D01*
X241880Y499690D02*
X297180Y554990D01*
X351427D01*
X222570Y499690D02*
X241880D01*
X716967Y127583D02*
X727710Y116840D01*
X740410D01*
X889000Y265430D01*
X954604D01*
X708660Y129540D02*
X710617Y127583D01*
X716967D01*
X968574Y279400D02*
X986790D01*
X954604Y265430D02*
X968574Y279400D01*
X883920D02*
X961390D01*
X986790Y304800D01*
X734060Y129540D02*
X883920Y279400D01*
X932180Y619760D02*
X986790D01*
X313690Y574040D02*
X886460D01*
X932180Y619760D01*
X223416Y574040D02*
X267970D01*
X211510Y562134D02*
X223416Y574040D01*
X200660Y561340D02*
X201454Y562134D01*
X211510D01*
X925830Y645160D02*
X986790D01*
X221670Y499690D02*
X222570Y499690D01*
X226060Y510540D02*
Y513080D01*
X871220Y797560D02*
X876300Y802640D01*
X201982Y526998D02*
Y534618D01*
X200660Y535940D02*
X201982Y534618D01*
Y526998D02*
X213360Y515620D01*
Y507739D02*
X217521Y503578D01*
X220971Y500256D02*
X221670Y499690D01*
X213360Y507739D02*
Y515620D01*
X218345Y502650D02*
X218345Y502650D01*
X200304Y637896D02*
X200660Y637540D01*
X199672Y165984D02*
X209936D01*
X214822Y143318D02*
Y161098D01*
X209936Y165984D02*
X214822Y161098D01*
X226060Y129540D02*
Y132080D01*
X214822Y143318D02*
X226060Y132080D01*
X134091Y179599D02*
X197993Y115697D01*
X214503D01*
X144251Y221405D02*
Y251989D01*
Y221405D02*
X199672Y165984D01*
X214503Y115697D02*
X226060Y104140D01*
X213360Y269240D02*
Y312420D01*
X203890Y321890D02*
X213360Y312420D01*
X200660Y256540D02*
X213360Y269240D01*
X179070Y252730D02*
X200660Y231140D01*
X213360Y243840D02*
X226060Y231140D01*
X213360Y218440D02*
X226060Y205740D01*
X194310Y218440D02*
X213360D01*
X680720Y231140D02*
X708660D01*
X386080Y421640D02*
X515620D01*
X693420Y243840D01*
X721360D02*
X734060Y231140D01*
X693420Y243840D02*
X721360D01*
D17*
X1174750Y837991D02*
D03*
Y876509D02*
D03*
D18*
X1169670Y812800D02*
D03*
X999617Y928370D02*
D03*
X1195197Y812800D02*
D03*
X1195134Y901700D02*
D03*
X1169606D02*
D03*
X974090Y928370D02*
D03*
D19*
X50660Y668020D02*
D03*
X33160D02*
D03*
X44590Y904240D02*
D03*
X62090D02*
D03*
X32030Y617220D02*
D03*
X49530D02*
D03*
D21*
X1008250Y56170D02*
G03*
X1008250Y56170I-10J0D01*
G01*
X1001100D02*
G03*
X1001100Y56170I-10J0D01*
G01*
D22*
X1031675Y55895D02*
G03*
X1031675Y55895I-10J0D01*
G01*
D23*
X54610Y140810D02*
D03*
X64110Y120810D02*
D03*
X45110D02*
D03*
X91440Y384650D02*
D03*
X100940Y364650D02*
D03*
X81940D02*
D03*
X54610Y384650D02*
D03*
X64110Y364650D02*
D03*
X45110D02*
D03*
X89560Y546420D02*
D03*
X80060Y566420D02*
D03*
X99060D02*
D03*
X52680Y546420D02*
D03*
X43180Y566420D02*
D03*
X62180D02*
D03*
X90830Y311470D02*
D03*
X81330Y331470D02*
D03*
X100330D02*
D03*
X54610Y311310D02*
D03*
X45110Y331310D02*
D03*
X64110D02*
D03*
X91440Y140810D02*
D03*
X100940Y120810D02*
D03*
X81940D02*
D03*
D26*
X1039260Y953770D02*
D03*
D31*
X918210Y887730D02*
D03*
Y942730D02*
D03*
D33*
X1089260Y953770D02*
D03*
D35*
X1178560Y734060D02*
D03*
Y662940D02*
D03*
X1174750Y320040D02*
D03*
X1176020Y400050D02*
D03*
D36*
X847090Y969010D02*
D03*
D42*
X1174750Y817880D02*
Y837991D01*
X1169670Y812800D02*
X1174750Y817880D01*
X1129030Y812800D02*
X1169670D01*
X1113790Y797560D02*
X1129030Y812800D01*
X1039260Y953770D02*
Y954640D01*
X1005840Y988060D02*
X1039260Y954640D01*
X1025017Y953770D02*
X1039260D01*
X1027460Y837710D02*
Y871710D01*
X999617Y899553D02*
X1027460Y871710D01*
X936540Y988060D02*
X1005840D01*
X918210Y969730D02*
X936540Y988060D01*
X877570Y986790D02*
X901150D01*
X918210Y969730D01*
X999617Y928370D02*
X1025017Y953770D01*
X859790Y969010D02*
X877570Y986790D01*
X999617Y899553D02*
Y928370D01*
X847090Y969010D02*
X859790D01*
X1169606Y881652D02*
Y901700D01*
Y881652D02*
X1174750Y876509D01*
X1126460Y871710D02*
X1156450Y901700D01*
X1169606D01*
X1126460Y837710D02*
Y871710D01*
D43*
X1113790Y457200D02*
D03*
Y797560D02*
D03*
X986790Y772160D02*
D03*
Y746760D02*
D03*
Y721360D02*
D03*
Y695960D02*
D03*
Y670560D02*
D03*
Y645160D02*
D03*
Y619760D02*
D03*
X1113790D02*
D03*
Y645160D02*
D03*
Y772160D02*
D03*
X986790Y431800D02*
D03*
Y406400D02*
D03*
Y381000D02*
D03*
Y355600D02*
D03*
Y330200D02*
D03*
Y304800D02*
D03*
Y279400D02*
D03*
X1113790D02*
D03*
Y304800D02*
D03*
Y431800D02*
D03*
Y695960D02*
D03*
Y670560D02*
D03*
Y721360D02*
D03*
Y746760D02*
D03*
Y355600D02*
D03*
Y330200D02*
D03*
Y381000D02*
D03*
Y406400D02*
D03*
D44*
X1027460Y871710D02*
D03*
D45*
Y837710D02*
D03*
X1126460D02*
D03*
Y871710D02*
D03*
D46*
X918210Y969730D02*
D03*
D47*
X1178560Y759460D02*
D03*
X821690Y969010D02*
D03*
X1178560Y688340D02*
D03*
X1174750Y345440D02*
D03*
X1176020Y425450D02*
D03*
D48*
X1168400Y958850D02*
D03*
X50800Y965200D02*
D03*
Y50800D02*
D03*
X1174750D02*
D03*
D49*
X78739Y468631D02*
D03*
Y494031D02*
D03*
Y443231D02*
D03*
Y750571D02*
D03*
Y519431D02*
D03*
Y878841D02*
D03*
Y853441D02*
D03*
Y828041D02*
D03*
X78740Y802640D02*
D03*
X78739Y725171D02*
D03*
Y627381D02*
D03*
X78740Y652780D02*
D03*
X78739Y275591D02*
D03*
X78740Y250190D02*
D03*
Y224790D02*
D03*
Y199390D02*
D03*
D50*
Y417830D02*
D03*
X78741Y173991D02*
D03*
X78740Y601980D02*
D03*
Y699770D02*
D03*
Y775970D02*
D03*
X876301Y742951D02*
D03*
X901700Y742950D02*
D03*
Y772160D02*
D03*
X876301Y659131D02*
D03*
X901701D02*
D03*
X876301Y684531D02*
D03*
X901701D02*
D03*
X876300Y802640D02*
D03*
X901700D02*
D03*
X876301Y713741D02*
D03*
X901700Y713740D02*
D03*
X858520Y369570D02*
D03*
X883921Y369571D02*
D03*
X858521Y398781D02*
D03*
X883921D02*
D03*
X858521Y427991D02*
D03*
X883920Y427990D02*
D03*
X858521Y314961D02*
D03*
X883921D02*
D03*
X858521Y340361D02*
D03*
X883920Y340360D02*
D03*
X858520Y457200D02*
D03*
X883920D02*
D03*
X876301Y772161D02*
D03*
D51*
X945710Y947730D02*
D03*
X890710Y955730D02*
D03*
D52*
X986790Y797560D02*
D03*
Y457200D02*
D03*
D53*
X226060Y408940D02*
D03*
X200660Y535940D02*
D03*
Y408940D02*
D03*
X226060Y383540D02*
D03*
X708660Y535940D02*
D03*
X734060D02*
D03*
X708660Y408940D02*
D03*
X734060D02*
D03*
X708660Y383540D02*
D03*
X734060Y358140D02*
D03*
X708660Y205740D02*
D03*
X734060Y180340D02*
D03*
X200660Y561340D02*
D03*
X226060Y510540D02*
D03*
Y662940D02*
D03*
X200660Y637540D02*
D03*
X226060D02*
D03*
X200660Y612140D02*
D03*
X226060D02*
D03*
X200660Y586740D02*
D03*
X226060D02*
D03*
Y561340D02*
D03*
Y535940D02*
D03*
X200660Y510540D02*
D03*
Y485140D02*
D03*
X226060D02*
D03*
X200660Y459740D02*
D03*
X226060D02*
D03*
X200660Y434340D02*
D03*
X226060D02*
D03*
X200660Y383540D02*
D03*
Y358140D02*
D03*
X226060D02*
D03*
X200660Y332740D02*
D03*
X226060D02*
D03*
X200660Y307340D02*
D03*
X226060D02*
D03*
X200660Y281940D02*
D03*
X226060D02*
D03*
X200660Y256540D02*
D03*
X226060D02*
D03*
X200660Y231140D02*
D03*
X226060D02*
D03*
X200660Y205740D02*
D03*
X226060D02*
D03*
X200660Y180340D02*
D03*
X226060D02*
D03*
X200660Y154940D02*
D03*
X226060D02*
D03*
X200660Y129540D02*
D03*
X226060D02*
D03*
X200660Y104140D02*
D03*
X226060D02*
D03*
X200660Y78740D02*
D03*
X226060D02*
D03*
X200660Y53340D02*
D03*
X226060D02*
D03*
X734060Y662940D02*
D03*
X708660Y637540D02*
D03*
X734060D02*
D03*
X708660Y612140D02*
D03*
X734060D02*
D03*
X708660Y586740D02*
D03*
X734060D02*
D03*
X708660Y561340D02*
D03*
X734060D02*
D03*
X708660Y510540D02*
D03*
X734060D02*
D03*
X708660Y485140D02*
D03*
X734060D02*
D03*
X708660Y459740D02*
D03*
X734060D02*
D03*
X708660Y434340D02*
D03*
X734060D02*
D03*
Y383540D02*
D03*
X708660Y358140D02*
D03*
Y332740D02*
D03*
X734060D02*
D03*
X708660Y307340D02*
D03*
X734060D02*
D03*
X708660Y281940D02*
D03*
X734060D02*
D03*
X708660Y256540D02*
D03*
X734060D02*
D03*
X708660Y231140D02*
D03*
X734060D02*
D03*
Y205740D02*
D03*
X708660Y180340D02*
D03*
Y154940D02*
D03*
X734060D02*
D03*
X708660Y129540D02*
D03*
X734060D02*
D03*
X708660Y104140D02*
D03*
X734060D02*
D03*
X708660Y78740D02*
D03*
X734060D02*
D03*
X708660Y53340D02*
D03*
X734060D02*
D03*
X200660Y942340D02*
D03*
X734060Y815340D02*
D03*
D54*
X200660Y662940D02*
D03*
X708660D02*
D03*
X200660Y967740D02*
D03*
X734060Y840740D02*
D03*
D55*
X1210310Y900430D02*
D03*
Y812800D02*
D03*
X158750Y469900D02*
D03*
X144780Y471170D02*
D03*
X93980Y580390D02*
D03*
X49530D02*
D03*
X107950Y532130D02*
D03*
X106680Y466090D02*
D03*
X54610Y397510D02*
D03*
X118110Y416560D02*
D03*
X72390Y349250D02*
D03*
X21590Y347980D02*
D03*
X91440Y105410D02*
D03*
X26670Y113030D02*
D03*
X62230Y298450D02*
D03*
X102870Y259080D02*
D03*
X55880Y154940D02*
D03*
X123190Y166370D02*
D03*
X401320Y535940D02*
D03*
X471170Y609600D02*
D03*
X466090Y535940D02*
D03*
X538480Y608330D02*
D03*
X431800Y535940D02*
D03*
X505460Y609600D02*
D03*
X386080Y421640D02*
D03*
X514350Y397510D02*
D03*
X26670Y894080D02*
D03*
X449580Y610870D02*
D03*
X356870Y560070D02*
D03*
X313690Y574040D02*
D03*
X267970D02*
D03*
M02*
