G04*
G04 #@! TF.GenerationSoftware,Altium Limited,Altium Designer,24.6.1 (21)*
G04*
G04 Layer_Physical_Order=3*
G04 Layer_Color=128*
%FSLAX44Y44*%
%MOMM*%
G71*
G04*
G04 #@! TF.SameCoordinates,42639B8C-B182-42FF-980A-ED1702294046*
G04*
G04*
G04 #@! TF.FilePolarity,Negative*
G04*
G01*
G75*
%ADD13C,0.4000*%
%ADD57C,1.0160*%
%ADD58C,2.0360*%
G04:AMPARAMS|DCode=59|XSize=2.544mm|YSize=2.544mm|CornerRadius=0mm|HoleSize=0mm|Usage=FLASHONLY|Rotation=0.000|XOffset=0mm|YOffset=0mm|HoleType=Round|Shape=Relief|Width=0.254mm|Gap=0.254mm|Entries=4|*
%AMTHD59*
7,0,0,2.5440,2.0360,0.2540,45*
%
%ADD59THD59*%
%ADD60C,1.8160*%
%ADD61C,2.6160*%
%ADD62O,2.5160X1.8160*%
%ADD63C,2.1160*%
%ADD65C,4.2160*%
%ADD66C,2.0160*%
%ADD70C,1.9160*%
%ADD71C,2.7160*%
G04:AMPARAMS|DCode=72|XSize=2.424mm|YSize=2.424mm|CornerRadius=0mm|HoleSize=0mm|Usage=FLASHONLY|Rotation=0.000|XOffset=0mm|YOffset=0mm|HoleType=Round|Shape=Relief|Width=0.254mm|Gap=0.254mm|Entries=4|*
%AMTHD72*
7,0,0,2.4240,1.9160,0.2540,45*
%
%ADD72THD72*%
%ADD73C,1.3160*%
%ADD74O,1.8160X3.0160*%
D13*
X1139190Y275590D02*
Y656590D01*
X1042670Y642620D02*
X1056640Y656590D01*
X1034415Y634365D02*
X1042670Y642620D01*
X872490Y591820D02*
X991870D01*
X1034415Y634365D01*
X1056640Y656590D02*
X1104265D01*
X1139190D01*
X704850Y683260D02*
X781050D01*
X872490Y591820D01*
X689610Y668020D02*
X704850Y683260D01*
X702310Y243840D02*
X1107440D01*
X689610Y256540D02*
X702310Y243840D01*
X689610Y256540D02*
Y668020D01*
X1107440Y243840D02*
X1139190Y275590D01*
D57*
X0Y0D02*
X1224000D01*
Y1016000D01*
X0D02*
X1224000D01*
X0Y0D02*
Y1016000D01*
D58*
X1113790Y746760D02*
D03*
Y721360D02*
D03*
Y670560D02*
D03*
Y695960D02*
D03*
Y772160D02*
D03*
Y619760D02*
D03*
X986790D02*
D03*
Y645160D02*
D03*
Y670560D02*
D03*
Y695960D02*
D03*
Y721360D02*
D03*
Y746760D02*
D03*
Y772160D02*
D03*
Y797560D02*
D03*
X1113790D02*
D03*
Y457200D02*
D03*
X986790D02*
D03*
Y431800D02*
D03*
Y406400D02*
D03*
Y381000D02*
D03*
Y355600D02*
D03*
Y330200D02*
D03*
Y304800D02*
D03*
Y279400D02*
D03*
X1113790D02*
D03*
Y431800D02*
D03*
Y355600D02*
D03*
Y330200D02*
D03*
Y381000D02*
D03*
Y406400D02*
D03*
D59*
Y645160D02*
D03*
Y304800D02*
D03*
D60*
X1039260Y953770D02*
D03*
X1089260D02*
D03*
D61*
X1027460Y871710D02*
D03*
Y837710D02*
D03*
X1126460D02*
D03*
Y871710D02*
D03*
D62*
X922020Y887880D02*
D03*
D63*
X847090Y969010D02*
D03*
X1203960Y734060D02*
D03*
Y759460D02*
D03*
X1178560D02*
D03*
Y734060D02*
D03*
X847090Y994410D02*
D03*
X821690D02*
D03*
Y969010D02*
D03*
X1178560Y688340D02*
D03*
Y662940D02*
D03*
X1174750Y345440D02*
D03*
Y320040D02*
D03*
X1176020Y400050D02*
D03*
Y425450D02*
D03*
X1203960Y662940D02*
D03*
Y688340D02*
D03*
X1200150Y320040D02*
D03*
Y345440D02*
D03*
X1201420Y400050D02*
D03*
Y425450D02*
D03*
D65*
X1168400Y958850D02*
D03*
X50800Y965200D02*
D03*
Y50800D02*
D03*
X1174750D02*
D03*
D66*
X78739Y468631D02*
D03*
Y494031D02*
D03*
X78740Y417830D02*
D03*
X78739Y443231D02*
D03*
Y750571D02*
D03*
X78741Y173991D02*
D03*
X78740Y601980D02*
D03*
Y699770D02*
D03*
Y775970D02*
D03*
X876301Y742951D02*
D03*
X901700Y742950D02*
D03*
Y772160D02*
D03*
X876301Y659131D02*
D03*
X901701D02*
D03*
X876301Y684531D02*
D03*
X901701D02*
D03*
X876300Y802640D02*
D03*
X901700D02*
D03*
X876301Y713741D02*
D03*
X901700Y713740D02*
D03*
X858520Y369570D02*
D03*
X883921Y369571D02*
D03*
X858521Y398781D02*
D03*
X883921D02*
D03*
X858521Y427991D02*
D03*
X883920Y427990D02*
D03*
X858521Y314961D02*
D03*
X883921D02*
D03*
X858521Y340361D02*
D03*
X883920Y340360D02*
D03*
X858520Y457200D02*
D03*
X883920D02*
D03*
X876301Y772161D02*
D03*
X78739Y519431D02*
D03*
Y878841D02*
D03*
Y853441D02*
D03*
Y828041D02*
D03*
X78740Y802640D02*
D03*
X78739Y725171D02*
D03*
Y627381D02*
D03*
X78740Y652780D02*
D03*
X78739Y275591D02*
D03*
X78740Y250190D02*
D03*
Y224790D02*
D03*
Y199390D02*
D03*
D70*
X226060Y408940D02*
D03*
X200660Y535940D02*
D03*
Y408940D02*
D03*
X226060Y383540D02*
D03*
X708660Y535940D02*
D03*
X734060D02*
D03*
X708660Y408940D02*
D03*
X734060D02*
D03*
X708660Y383540D02*
D03*
X734060Y358140D02*
D03*
X708660Y205740D02*
D03*
X734060Y180340D02*
D03*
X200660Y561340D02*
D03*
X226060Y510540D02*
D03*
X200660Y662940D02*
D03*
Y637540D02*
D03*
X226060D02*
D03*
X200660Y612140D02*
D03*
X226060D02*
D03*
X200660Y586740D02*
D03*
X226060D02*
D03*
Y561340D02*
D03*
Y535940D02*
D03*
X200660Y510540D02*
D03*
Y485140D02*
D03*
X226060D02*
D03*
X200660Y459740D02*
D03*
X226060D02*
D03*
X200660Y434340D02*
D03*
X226060D02*
D03*
X200660Y383540D02*
D03*
Y358140D02*
D03*
X226060D02*
D03*
X200660Y332740D02*
D03*
X226060D02*
D03*
X200660Y307340D02*
D03*
X226060D02*
D03*
X200660Y281940D02*
D03*
X226060D02*
D03*
X200660Y256540D02*
D03*
X226060D02*
D03*
X200660Y231140D02*
D03*
X226060D02*
D03*
X200660Y205740D02*
D03*
X226060D02*
D03*
X200660Y180340D02*
D03*
X226060D02*
D03*
X200660Y154940D02*
D03*
X226060D02*
D03*
X200660Y129540D02*
D03*
X226060D02*
D03*
X200660Y104140D02*
D03*
X226060D02*
D03*
X200660Y78740D02*
D03*
X226060D02*
D03*
X200660Y53340D02*
D03*
X226060D02*
D03*
X708660Y662940D02*
D03*
Y637540D02*
D03*
X734060D02*
D03*
X708660Y612140D02*
D03*
X734060D02*
D03*
X708660Y586740D02*
D03*
X734060D02*
D03*
X708660Y561340D02*
D03*
X734060D02*
D03*
X708660Y510540D02*
D03*
X734060D02*
D03*
X708660Y485140D02*
D03*
X734060D02*
D03*
X708660Y459740D02*
D03*
X734060D02*
D03*
X708660Y434340D02*
D03*
X734060D02*
D03*
Y383540D02*
D03*
X708660Y358140D02*
D03*
Y332740D02*
D03*
X734060D02*
D03*
X708660Y307340D02*
D03*
X734060D02*
D03*
X708660Y281940D02*
D03*
X734060D02*
D03*
X708660Y256540D02*
D03*
X734060D02*
D03*
X708660Y231140D02*
D03*
X734060D02*
D03*
Y205740D02*
D03*
X708660Y180340D02*
D03*
Y154940D02*
D03*
X734060D02*
D03*
X708660Y129540D02*
D03*
X734060D02*
D03*
X708660Y104140D02*
D03*
X734060D02*
D03*
X708660Y78740D02*
D03*
X734060D02*
D03*
X708660Y53340D02*
D03*
X734060D02*
D03*
X200660Y967740D02*
D03*
Y942340D02*
D03*
X734060Y840740D02*
D03*
Y815340D02*
D03*
D71*
X922020Y969880D02*
D03*
Y914880D02*
D03*
D72*
X226060Y662940D02*
D03*
X734060D02*
D03*
D73*
X1210310Y900430D02*
D03*
Y812800D02*
D03*
X158750Y469900D02*
D03*
X144780Y471170D02*
D03*
X93980Y580390D02*
D03*
X107950Y532130D02*
D03*
X106680Y466090D02*
D03*
X54610Y397510D02*
D03*
X118110Y416560D02*
D03*
X21590Y347980D02*
D03*
X26670Y113030D02*
D03*
X62230Y298450D02*
D03*
X102870Y259080D02*
D03*
X55880Y154940D02*
D03*
X123190Y166370D02*
D03*
X401320Y535940D02*
D03*
X471170Y609600D02*
D03*
X466090Y535940D02*
D03*
X538480Y608330D02*
D03*
X431800Y535940D02*
D03*
X505460Y609600D02*
D03*
X386080Y421640D02*
D03*
X514350Y397510D02*
D03*
X449580Y610870D02*
D03*
X356870Y560070D02*
D03*
X313690Y574040D02*
D03*
X267970D02*
D03*
D74*
X894520Y909880D02*
D03*
X949520Y901880D02*
D03*
M02*
