G04*
G04 #@! TF.GenerationSoftware,Altium Limited,Altium Designer,24.6.1 (21)*
G04*
G04 Layer_Color=65535*
%FSLAX44Y44*%
%MOMM*%
G71*
G04*
G04 #@! TF.SameCoordinates,00C63F76-EF1E-4721-A94C-C499BE19EED3*
G04*
G04*
G04 #@! TF.FilePolarity,Positive*
G04*
G01*
G75*
%ADD10C,0.2500*%
%ADD11C,0.1500*%
%ADD12C,0.2000*%
%ADD13C,0.4000*%
%ADD14C,0.1270*%
%ADD15C,0.2540*%
D10*
X1179810Y712560D02*
G03*
X1179810Y712560I-1250J0D01*
G01*
X1028710Y894360D02*
G03*
X1028710Y894360I-1250J0D01*
G01*
X869840Y969010D02*
G03*
X869840Y969010I-1250J0D01*
G01*
X1179810Y641440D02*
G03*
X1179810Y641440I-1250J0D01*
G01*
X1176000Y298540D02*
G03*
X1176000Y298540I-1250J0D01*
G01*
X1177270Y378550D02*
G03*
X1177270Y378550I-1250J0D01*
G01*
D11*
X1116760Y953770D02*
G03*
X1116760Y953770I-52500J0D01*
G01*
X24360Y269470D02*
Y276968D01*
X28109D01*
X29358Y275718D01*
Y273219D01*
X28109Y271969D01*
X24360D01*
X31858Y276968D02*
Y269470D01*
X35606D01*
X36856Y270720D01*
Y275718D01*
X35606Y276968D01*
X31858D01*
X39355Y269470D02*
X41854D01*
X40605D01*
Y276968D01*
X39355Y275718D01*
X50602Y269470D02*
X45603D01*
X50602Y274468D01*
Y275718D01*
X49352Y276968D01*
X46853D01*
X45603Y275718D01*
X24360Y244070D02*
Y251568D01*
X28109D01*
X29358Y250318D01*
Y247819D01*
X28109Y246569D01*
X24360D01*
X31858Y251568D02*
Y244070D01*
X35606D01*
X36856Y245320D01*
Y250318D01*
X35606Y251568D01*
X31858D01*
X39355Y244070D02*
X41854D01*
X40605D01*
Y251568D01*
X39355Y250318D01*
X45603D02*
X46853Y251568D01*
X49352D01*
X50602Y250318D01*
Y249068D01*
X49352Y247819D01*
X48102D01*
X49352D01*
X50602Y246569D01*
Y245320D01*
X49352Y244070D01*
X46853D01*
X45603Y245320D01*
X12930Y651618D02*
X15429D01*
X14180D01*
Y644120D01*
X12930D01*
X15429D01*
X24176D02*
X19178D01*
X24176Y649118D01*
Y650368D01*
X22927Y651618D01*
X20428D01*
X19178Y650368D01*
X31674D02*
X30424Y651618D01*
X27925D01*
X26676Y650368D01*
Y645370D01*
X27925Y644120D01*
X30424D01*
X31674Y645370D01*
X46669Y650368D02*
X45420Y651618D01*
X42920D01*
X41671Y650368D01*
Y649118D01*
X42920Y647869D01*
X45420D01*
X46669Y646619D01*
Y645370D01*
X45420Y644120D01*
X42920D01*
X41671Y645370D01*
X54167Y650368D02*
X52917Y651618D01*
X50418D01*
X49168Y650368D01*
Y645370D01*
X50418Y644120D01*
X52917D01*
X54167Y645370D01*
X56666Y651618D02*
Y644120D01*
X61664D01*
X17928Y805308D02*
X16679Y806558D01*
X14180D01*
X12930Y805308D01*
Y804058D01*
X14180Y802809D01*
X16679D01*
X17928Y801559D01*
Y800310D01*
X16679Y799060D01*
X14180D01*
X12930Y800310D01*
X20428Y799060D02*
Y806558D01*
X24176D01*
X25426Y805308D01*
Y802809D01*
X24176Y801559D01*
X20428D01*
X27925Y806558D02*
X30424D01*
X29175D01*
Y799060D01*
X27925D01*
X30424D01*
X41671D02*
Y806558D01*
X44170Y804058D01*
X46669Y806558D01*
Y799060D01*
X49168Y806558D02*
X51668D01*
X50418D01*
Y799060D01*
X49168D01*
X51668D01*
X60415Y805308D02*
X59165Y806558D01*
X56666D01*
X55416Y805308D01*
Y804058D01*
X56666Y802809D01*
X59165D01*
X60415Y801559D01*
Y800310D01*
X59165Y799060D01*
X56666D01*
X55416Y800310D01*
X24360Y487910D02*
Y495408D01*
X28109D01*
X29358Y494158D01*
Y491659D01*
X28109Y490409D01*
X24360D01*
X31858Y495408D02*
Y487910D01*
X35606D01*
X36856Y489160D01*
Y490409D01*
X35606Y491659D01*
X31858D01*
X35606D01*
X36856Y492908D01*
Y494158D01*
X35606Y495408D01*
X31858D01*
X39355Y487910D02*
X41854D01*
X40605D01*
Y495408D01*
X39355Y494158D01*
X50602Y487910D02*
X45603D01*
X50602Y492908D01*
Y494158D01*
X49352Y495408D01*
X46853D01*
X45603Y494158D01*
X35708Y176658D02*
X34459Y177908D01*
X31960D01*
X30710Y176658D01*
Y171660D01*
X31960Y170410D01*
X34459D01*
X35708Y171660D01*
Y174159D01*
X33209D01*
X38208Y170410D02*
Y177908D01*
X43206Y170410D01*
Y177908D01*
X45705D02*
Y170410D01*
X49454D01*
X50704Y171660D01*
Y176658D01*
X49454Y177908D01*
X45705D01*
X24360Y218670D02*
Y226168D01*
X28109D01*
X29358Y224918D01*
Y222419D01*
X28109Y221169D01*
X24360D01*
X31858Y226168D02*
Y218670D01*
X35606D01*
X36856Y219920D01*
Y224918D01*
X35606Y226168D01*
X31858D01*
X39355Y218670D02*
X41854D01*
X40605D01*
Y226168D01*
X39355Y224918D01*
X49352Y218670D02*
Y226168D01*
X45603Y222419D01*
X50602D01*
X11660Y754488D02*
Y748240D01*
X12910Y746990D01*
X15409D01*
X16658Y748240D01*
Y754488D01*
X19158Y746990D02*
Y751988D01*
X21657Y754488D01*
X24156Y751988D01*
Y746990D01*
Y750739D01*
X19158D01*
X26655Y746990D02*
Y754488D01*
X30404D01*
X31654Y753238D01*
Y750739D01*
X30404Y749489D01*
X26655D01*
X29154D02*
X31654Y746990D01*
X34153Y754488D02*
X39151D01*
X36652D01*
Y746990D01*
X49148Y754488D02*
X54146D01*
X51647D01*
Y746990D01*
X56646Y754488D02*
X61644Y746990D01*
Y754488D02*
X56646Y746990D01*
X24360Y193270D02*
Y200768D01*
X28109D01*
X29358Y199518D01*
Y197019D01*
X28109Y195769D01*
X24360D01*
X31858Y200768D02*
Y193270D01*
X35606D01*
X36856Y194520D01*
Y199518D01*
X35606Y200768D01*
X31858D01*
X39355Y193270D02*
X41854D01*
X40605D01*
Y200768D01*
X39355Y199518D01*
X50602Y200768D02*
X45603D01*
Y197019D01*
X48102Y198268D01*
X49352D01*
X50602Y197019D01*
Y194520D01*
X49352Y193270D01*
X46853D01*
X45603Y194520D01*
X17928Y830708D02*
X16679Y831958D01*
X14180D01*
X12930Y830708D01*
Y829458D01*
X14180Y828209D01*
X16679D01*
X17928Y826959D01*
Y825710D01*
X16679Y824460D01*
X14180D01*
X12930Y825710D01*
X20428Y824460D02*
Y831958D01*
X24176D01*
X25426Y830708D01*
Y828209D01*
X24176Y826959D01*
X20428D01*
X27925Y831958D02*
X30424D01*
X29175D01*
Y824460D01*
X27925D01*
X30424D01*
X41671D02*
Y831958D01*
X44170Y829458D01*
X46669Y831958D01*
Y824460D01*
X52917Y831958D02*
X50418D01*
X49168Y830708D01*
Y825710D01*
X50418Y824460D01*
X52917D01*
X54167Y825710D01*
Y830708D01*
X52917Y831958D01*
X61664Y830708D02*
X60415Y831958D01*
X57916D01*
X56666Y830708D01*
Y829458D01*
X57916Y828209D01*
X60415D01*
X61664Y826959D01*
Y825710D01*
X60415Y824460D01*
X57916D01*
X56666Y825710D01*
X25630Y514580D02*
Y522078D01*
X29379D01*
X30628Y520828D01*
Y518329D01*
X29379Y517079D01*
X25630D01*
X33128Y522078D02*
Y514580D01*
X36876D01*
X38126Y515830D01*
Y517079D01*
X36876Y518329D01*
X33128D01*
X36876D01*
X38126Y519578D01*
Y520828D01*
X36876Y522078D01*
X33128D01*
X40625Y514580D02*
X43124D01*
X41875D01*
Y522078D01*
X40625Y520828D01*
X46873Y514580D02*
X49372D01*
X48123D01*
Y522078D01*
X46873Y520828D01*
X19198Y881508D02*
X17949Y882758D01*
X15450D01*
X14200Y881508D01*
Y880258D01*
X15450Y879009D01*
X17949D01*
X19198Y877759D01*
Y876510D01*
X17949Y875260D01*
X15450D01*
X14200Y876510D01*
X21698Y875260D02*
Y882758D01*
X25446D01*
X26696Y881508D01*
Y879009D01*
X25446Y877759D01*
X21698D01*
X29195Y882758D02*
X31694D01*
X30445D01*
Y875260D01*
X29195D01*
X31694D01*
X42941D02*
Y882758D01*
X47939Y875260D01*
Y882758D01*
X55437Y881508D02*
X54187Y882758D01*
X51688D01*
X50438Y881508D01*
Y880258D01*
X51688Y879009D01*
X54187D01*
X55437Y877759D01*
Y876510D01*
X54187Y875260D01*
X51688D01*
X50438Y876510D01*
X62934Y881508D02*
X61685Y882758D01*
X59186D01*
X57936Y881508D01*
Y880258D01*
X59186Y879009D01*
X61685D01*
X62934Y877759D01*
Y876510D01*
X61685Y875260D01*
X59186D01*
X57936Y876510D01*
X24360Y462510D02*
Y470008D01*
X28109D01*
X29358Y468758D01*
Y466259D01*
X28109Y465009D01*
X24360D01*
X31858Y470008D02*
Y462510D01*
X35606D01*
X36856Y463760D01*
Y465009D01*
X35606Y466259D01*
X31858D01*
X35606D01*
X36856Y467508D01*
Y468758D01*
X35606Y470008D01*
X31858D01*
X39355Y462510D02*
X41854D01*
X40605D01*
Y470008D01*
X39355Y468758D01*
X45603D02*
X46853Y470008D01*
X49352D01*
X50602Y468758D01*
Y467508D01*
X49352Y466259D01*
X48102D01*
X49352D01*
X50602Y465009D01*
Y463760D01*
X49352Y462510D01*
X46853D01*
X45603Y463760D01*
X40788Y778638D02*
X39539Y779888D01*
X37040D01*
X35790Y778638D01*
Y773640D01*
X37040Y772390D01*
X39539D01*
X40788Y773640D01*
Y776139D01*
X38289D01*
X43288Y772390D02*
Y779888D01*
X48286Y772390D01*
Y779888D01*
X50785D02*
Y772390D01*
X54534D01*
X55784Y773640D01*
Y778638D01*
X54534Y779888D01*
X50785D01*
X45868Y702438D02*
X44619Y703688D01*
X42120D01*
X40870Y702438D01*
Y697440D01*
X42120Y696190D01*
X44619D01*
X45868Y697440D01*
Y699939D01*
X43369D01*
X48368Y696190D02*
Y703688D01*
X53366Y696190D01*
Y703688D01*
X55865D02*
Y696190D01*
X59614D01*
X60864Y697440D01*
Y702438D01*
X59614Y703688D01*
X55865D01*
X25630Y437110D02*
Y444608D01*
X29379D01*
X30628Y443358D01*
Y440859D01*
X29379Y439609D01*
X25630D01*
X33128Y444608D02*
Y437110D01*
X36876D01*
X38126Y438360D01*
Y439609D01*
X36876Y440859D01*
X33128D01*
X36876D01*
X38126Y442108D01*
Y443358D01*
X36876Y444608D01*
X33128D01*
X40625Y437110D02*
X43124D01*
X41875D01*
Y444608D01*
X40625Y443358D01*
X50622Y437110D02*
Y444608D01*
X46873Y440859D01*
X51872D01*
X35708Y420498D02*
X34459Y421748D01*
X31960D01*
X30710Y420498D01*
Y415500D01*
X31960Y414250D01*
X34459D01*
X35708Y415500D01*
Y417999D01*
X33209D01*
X38208Y414250D02*
Y421748D01*
X43206Y414250D01*
Y421748D01*
X45705D02*
Y414250D01*
X49454D01*
X50704Y415500D01*
Y420498D01*
X49454Y421748D01*
X45705D01*
X19198Y856108D02*
X17949Y857358D01*
X15450D01*
X14200Y856108D01*
Y854858D01*
X15450Y853609D01*
X17949D01*
X19198Y852359D01*
Y851110D01*
X17949Y849860D01*
X15450D01*
X14200Y851110D01*
X21698Y849860D02*
Y857358D01*
X25446D01*
X26696Y856108D01*
Y853609D01*
X25446Y852359D01*
X21698D01*
X29195Y857358D02*
X31694D01*
X30445D01*
Y849860D01*
X29195D01*
X31694D01*
X47939Y856108D02*
X46690Y857358D01*
X44190D01*
X42941Y856108D01*
Y851110D01*
X44190Y849860D01*
X46690D01*
X47939Y851110D01*
X50438Y857358D02*
Y849860D01*
X55437D01*
X57936Y857358D02*
Y849860D01*
Y852359D01*
X62934Y857358D01*
X59186Y853609D01*
X62934Y849860D01*
X11660Y727818D02*
Y721570D01*
X12910Y720320D01*
X15409D01*
X16658Y721570D01*
Y727818D01*
X19158Y720320D02*
Y725318D01*
X21657Y727818D01*
X24156Y725318D01*
Y720320D01*
Y724069D01*
X19158D01*
X26655Y720320D02*
Y727818D01*
X30404D01*
X31654Y726568D01*
Y724069D01*
X30404Y722819D01*
X26655D01*
X29154D02*
X31654Y720320D01*
X34153Y727818D02*
X39151D01*
X36652D01*
Y720320D01*
X49148D02*
Y727818D01*
X52897D01*
X54146Y726568D01*
Y724069D01*
X52897Y722819D01*
X49148D01*
X51647D02*
X54146Y720320D01*
X56646Y727818D02*
X61644Y720320D01*
Y727818D02*
X56646Y720320D01*
X47138Y603378D02*
X45889Y604628D01*
X43390D01*
X42140Y603378D01*
Y598380D01*
X43390Y597130D01*
X45889D01*
X47138Y598380D01*
Y600879D01*
X44639D01*
X49638Y597130D02*
Y604628D01*
X54636Y597130D01*
Y604628D01*
X57135D02*
Y597130D01*
X60884D01*
X62134Y598380D01*
Y603378D01*
X60884Y604628D01*
X57135D01*
X13103Y640157D02*
X15601Y640109D01*
X14352Y640133D01*
X14208Y632637D01*
X12959Y632661D01*
X15457Y632613D01*
X24203Y632445D02*
X19205Y632541D01*
X24299Y637442D01*
X24323Y638691D01*
X23098Y639965D01*
X20599Y640013D01*
X19325Y638788D01*
X31819Y638547D02*
X30594Y639821D01*
X28095Y639869D01*
X26822Y638643D01*
X26726Y633646D01*
X27951Y632373D01*
X30450Y632324D01*
X31723Y633550D01*
X46812Y638259D02*
X45586Y639532D01*
X43088Y639580D01*
X41814Y638355D01*
X41790Y637106D01*
X43015Y635832D01*
X45514Y635784D01*
X46740Y634511D01*
X46715Y633261D01*
X45442Y632036D01*
X42943Y632084D01*
X41718Y633358D01*
X49334Y639460D02*
X49190Y631964D01*
X52938Y631892D01*
X54212Y633117D01*
X54308Y638115D01*
X53082Y639388D01*
X49334Y639460D01*
X56686Y631820D02*
X56782Y636817D01*
X59329Y639268D01*
X61780Y636721D01*
X61684Y631724D01*
X61756Y635472D01*
X56758Y635568D01*
D12*
X1208200Y958850D02*
G03*
X1208200Y958850I-39800J0D01*
G01*
X90600Y965200D02*
G03*
X90600Y965200I-39800J0D01*
G01*
Y50800D02*
G03*
X90600Y50800I-39800J0D01*
G01*
X1214550D02*
G03*
X1214550Y50800I-39800J0D01*
G01*
X967290Y803160D02*
G03*
X967290Y803160I-1000J0D01*
G01*
Y462800D02*
G03*
X967290Y462800I-1000J0D01*
G01*
X1147560Y719060D02*
X1209560D01*
X1147560D02*
Y774460D01*
X1209560D01*
Y719060D02*
Y726380D01*
Y767140D02*
Y774460D01*
X996960Y821060D02*
Y888360D01*
X1156960Y821060D02*
Y888360D01*
X996960Y821060D02*
X1156960D01*
X996960Y888360D02*
X1156960D01*
X1183781Y848763D02*
Y865737D01*
X1165719Y848763D02*
Y865737D01*
X1106510Y923770D02*
Y983770D01*
X1178197Y821550D02*
X1186670D01*
X1178197Y804050D02*
X1186670D01*
X1178134Y910450D02*
X1186606D01*
X1178134Y892950D02*
X1186606D01*
X982617Y919620D02*
X991090D01*
X982617Y937120D02*
X991090D01*
X51860Y123810D02*
X57360D01*
X69610Y128060D02*
Y137810D01*
X39610D02*
X47860D01*
X61360D02*
X69610D01*
X39610Y128060D02*
Y137810D01*
X88690Y367650D02*
X94190D01*
X106440Y371900D02*
Y381650D01*
X76440D02*
X84690D01*
X98190D02*
X106440D01*
X76440Y371900D02*
Y381650D01*
X51860Y367650D02*
X57360D01*
X69610Y371900D02*
Y381650D01*
X39610D02*
X47860D01*
X61360D02*
X69610D01*
X39610Y371900D02*
Y381650D01*
X86810Y563420D02*
X92310D01*
X74560Y549420D02*
Y559170D01*
X96310Y549420D02*
X104560D01*
X74560D02*
X82810D01*
X104560D02*
Y559170D01*
X49930Y563420D02*
X55430D01*
X37680Y549420D02*
Y559170D01*
X59430Y549420D02*
X67680D01*
X37680D02*
X45930D01*
X67680D02*
Y559170D01*
X91439Y455931D02*
Y481331D01*
X66041D02*
X91439D01*
X66039Y455931D02*
X91439D01*
X66039D02*
Y481329D01*
X66041Y481331D01*
X91439D02*
Y506731D01*
X66041D02*
X91439D01*
X66039Y481331D02*
X91439D01*
X66039D02*
Y506729D01*
X66041Y506731D01*
X91438Y430530D02*
X91440Y430528D01*
X66040Y430530D02*
X91438D01*
X66040Y405130D02*
Y430530D01*
X91440Y405130D02*
Y430528D01*
X66040Y405130D02*
X91440D01*
X91439Y430531D02*
Y455931D01*
X66041D02*
X91439D01*
X66039Y430531D02*
X91439D01*
X66039D02*
Y455929D01*
X66041Y455931D01*
X66039Y763269D02*
X66041Y763271D01*
X66039Y737871D02*
Y763269D01*
Y737871D02*
X91439D01*
X66041Y763271D02*
X91439D01*
Y737871D02*
Y763271D01*
X88080Y328470D02*
X93580D01*
X75830Y314470D02*
Y324220D01*
X97580Y314470D02*
X105830D01*
X75830D02*
X84080D01*
X105830D02*
Y324220D01*
X51860Y328310D02*
X57360D01*
X39610Y314310D02*
Y324060D01*
X61360Y314310D02*
X69610D01*
X39610D02*
X47860D01*
X69610D02*
Y324060D01*
X88690Y123810D02*
X94190D01*
X106440Y128060D02*
Y137810D01*
X76440D02*
X84690D01*
X98190D02*
X106440D01*
X76440Y128060D02*
Y137810D01*
X91439Y186691D02*
X91441Y186689D01*
X66041Y186691D02*
X91439D01*
X66041Y161291D02*
Y186691D01*
X91441Y161291D02*
Y186689D01*
X66041Y161291D02*
X91441D01*
X91438Y614680D02*
X91440Y614678D01*
X66040Y614680D02*
X91438D01*
X66040Y589280D02*
Y614680D01*
X91440Y589280D02*
Y614678D01*
X66040Y589280D02*
X91440D01*
X91438Y712470D02*
X91440Y712468D01*
X66040Y712470D02*
X91438D01*
X66040Y687070D02*
Y712470D01*
X91440Y687070D02*
Y712468D01*
X66040Y687070D02*
X91440D01*
X91438Y788670D02*
X91440Y788668D01*
X66040Y788670D02*
X91438D01*
X66040Y763270D02*
Y788670D01*
X91440Y763270D02*
Y788668D01*
X66040Y763270D02*
X91440D01*
X862090Y938010D02*
Y1000010D01*
X806690Y938010D02*
X862090D01*
X806690D02*
Y1000010D01*
X854770D02*
X862090D01*
X806690D02*
X814010D01*
X1147560Y647940D02*
X1209560D01*
X1147560D02*
Y703340D01*
X1209560D01*
Y647940D02*
Y655260D01*
Y696020D02*
Y703340D01*
X1143750Y305040D02*
X1205750D01*
X1143750D02*
Y360440D01*
X1205750D01*
Y305040D02*
Y312360D01*
Y353120D02*
Y360440D01*
X1145020Y385050D02*
X1207020D01*
X1145020D02*
Y440450D01*
X1207020D01*
Y385050D02*
Y392370D01*
Y433130D02*
Y440450D01*
X943210Y857730D02*
Y929730D01*
X893210Y857730D02*
X943210D01*
X893210D02*
Y937730D01*
X863601Y730251D02*
X889001D01*
Y755649D01*
X863601Y730251D02*
Y755651D01*
X888999D01*
X889001Y755649D01*
X889000Y730250D02*
X914400D01*
Y755648D01*
X889000Y730250D02*
Y755650D01*
X914398D01*
X914400Y755648D01*
X863601Y759461D02*
X889001D01*
Y784859D01*
X863601Y759461D02*
Y784861D01*
X888999D01*
X889001Y784859D01*
X889000Y759460D02*
X914400D01*
Y784858D01*
X889000Y759460D02*
Y784860D01*
X914398D01*
X914400Y784858D01*
X863601Y646431D02*
X889001D01*
Y671829D01*
X863601Y646431D02*
Y671831D01*
X888999D01*
X889001Y671829D01*
Y646431D02*
X914401D01*
Y671829D01*
X889001Y646431D02*
Y671831D01*
X914399D01*
X914401Y671829D01*
X863601Y671831D02*
X889001D01*
Y697229D01*
X863601Y671831D02*
Y697231D01*
X888999D01*
X889001Y697229D01*
Y671831D02*
X914401D01*
Y697229D01*
X889001Y671831D02*
Y697231D01*
X914399D01*
X914401Y697229D01*
X863600Y789940D02*
X889000D01*
Y815338D01*
X863600Y789940D02*
Y815340D01*
X888998D01*
X889000Y815338D01*
Y789940D02*
X914400D01*
Y815338D01*
X889000Y789940D02*
Y815340D01*
X914398D01*
X914400Y815338D01*
X863601Y701041D02*
X889001D01*
Y726439D01*
X863601Y701041D02*
Y726441D01*
X888999D01*
X889001Y726439D01*
X889000Y701040D02*
X914400D01*
Y726438D01*
X889000Y701040D02*
Y726440D01*
X914398D01*
X914400Y726438D01*
X871218Y382270D02*
X871220Y382268D01*
X845820Y382270D02*
X871218D01*
X845820Y356870D02*
Y382270D01*
X871220Y356870D02*
Y382268D01*
X845820Y356870D02*
X871220D01*
X896619Y382271D02*
X896621Y382269D01*
X871221Y382271D02*
X896619D01*
X871221Y356871D02*
Y382271D01*
X896621Y356871D02*
Y382269D01*
X871221Y356871D02*
X896621D01*
X871219Y411481D02*
X871221Y411479D01*
X845821Y411481D02*
X871219D01*
X845821Y386081D02*
Y411481D01*
X871221Y386081D02*
Y411479D01*
X845821Y386081D02*
X871221D01*
X896619Y411481D02*
X896621Y411479D01*
X871221Y411481D02*
X896619D01*
X871221Y386081D02*
Y411481D01*
X896621Y386081D02*
Y411479D01*
X871221Y386081D02*
X896621D01*
X871219Y440691D02*
X871221Y440689D01*
X845821Y440691D02*
X871219D01*
X845821Y415291D02*
Y440691D01*
X871221Y415291D02*
Y440689D01*
X845821Y415291D02*
X871221D01*
X896618Y440690D02*
X896620Y440688D01*
X871220Y440690D02*
X896618D01*
X871220Y415290D02*
Y440690D01*
X896620Y415290D02*
Y440688D01*
X871220Y415290D02*
X896620D01*
X871219Y327661D02*
X871221Y327659D01*
X845821Y327661D02*
X871219D01*
X845821Y302261D02*
Y327661D01*
X871221Y302261D02*
Y327659D01*
X845821Y302261D02*
X871221D01*
X896619Y327661D02*
X896621Y327659D01*
X871221Y327661D02*
X896619D01*
X871221Y302261D02*
Y327661D01*
X896621Y302261D02*
Y327659D01*
X871221Y302261D02*
X896621D01*
X871219Y353061D02*
X871221Y353059D01*
X845821Y353061D02*
X871219D01*
X845821Y327661D02*
Y353061D01*
X871221Y327661D02*
Y353059D01*
X845821Y327661D02*
X871221D01*
X896618Y353060D02*
X896620Y353058D01*
X871220Y353060D02*
X896618D01*
X871220Y327660D02*
Y353060D01*
X896620Y327660D02*
Y353058D01*
X871220Y327660D02*
X896620D01*
X871218Y469900D02*
X871220Y469898D01*
X845820Y469900D02*
X871218D01*
X845820Y444500D02*
Y469900D01*
X871220Y444500D02*
Y469898D01*
X845820Y444500D02*
X871220D01*
X896618Y469900D02*
X896620Y469898D01*
X871220Y469900D02*
X896618D01*
X871220Y444500D02*
Y469900D01*
X896620Y444500D02*
Y469898D01*
X871220Y444500D02*
X896620D01*
X66039Y532129D02*
X66041Y532131D01*
X66039Y506731D02*
Y532129D01*
Y506731D02*
X91439D01*
X66041Y532131D02*
X91439D01*
Y506731D02*
Y532131D01*
X66040Y212088D02*
X66042Y212090D01*
X66040Y186690D02*
Y212088D01*
Y186690D02*
X91440D01*
X66042Y212090D02*
X91440D01*
Y186690D02*
Y212090D01*
X66040Y237488D02*
X66042Y237490D01*
X66040Y212090D02*
Y237488D01*
Y212090D02*
X91440D01*
X66042Y237490D02*
X91440D01*
Y212090D02*
Y237490D01*
X66040Y262888D02*
X66042Y262890D01*
X66040Y237490D02*
Y262888D01*
Y237490D02*
X91440D01*
X66042Y262890D02*
X91440D01*
Y237490D02*
Y262890D01*
X66039Y288289D02*
X66041Y288291D01*
X66039Y262891D02*
Y288289D01*
Y262891D02*
X91439D01*
X66041Y288291D02*
X91439D01*
Y262891D02*
Y288291D01*
X66039Y891539D02*
X66041Y891541D01*
X66039Y866141D02*
Y891539D01*
Y866141D02*
X91439D01*
X66041Y891541D02*
X91439D01*
Y866141D02*
Y891541D01*
X66039Y866139D02*
X66041Y866141D01*
X66039Y840741D02*
Y866139D01*
Y840741D02*
X91439D01*
X66041Y866141D02*
X91439D01*
Y840741D02*
Y866141D01*
X66039Y840739D02*
X66041Y840741D01*
X66039Y815341D02*
Y840739D01*
Y815341D02*
X91439D01*
X66041Y840741D02*
X91439D01*
Y815341D02*
Y840741D01*
X66040Y815338D02*
X66042Y815340D01*
X66040Y789940D02*
Y815338D01*
Y789940D02*
X91440D01*
X66042Y815340D02*
X91440D01*
Y789940D02*
Y815340D01*
X91439Y614681D02*
Y640081D01*
X66041D02*
X91439D01*
X66039Y614681D02*
X91439D01*
X66039D02*
Y640079D01*
X66041Y640081D01*
X91440Y640080D02*
Y665480D01*
X66042D02*
X91440D01*
X66040Y640080D02*
X91440D01*
X66040D02*
Y665478D01*
X66042Y665480D01*
X91439Y712471D02*
Y737871D01*
X66041D02*
X91439D01*
X66039Y712471D02*
X91439D01*
X66039D02*
Y737869D01*
X66041Y737871D01*
D13*
X115360Y666140D02*
G03*
X115360Y666140I-2000J0D01*
G01*
X821880Y152417D02*
Y134923D01*
X830627D01*
X833543Y137839D01*
Y140755D01*
X830627Y143670D01*
X821880D01*
X830627D01*
X833543Y146586D01*
Y149502D01*
X830627Y152417D01*
X821880D01*
X839374Y134923D02*
X845206D01*
X842290D01*
Y152417D01*
X839374D01*
X856869Y134923D02*
X862700D01*
X865616Y137839D01*
Y143670D01*
X862700Y146586D01*
X856869D01*
X853953Y143670D01*
Y137839D01*
X856869Y134923D01*
X874363D02*
X880194D01*
X883110Y137839D01*
Y143670D01*
X880194Y146586D01*
X874363D01*
X871447Y143670D01*
Y137839D01*
X874363Y134923D01*
X900604Y152417D02*
Y134923D01*
X891857D01*
X888942Y137839D01*
Y143670D01*
X891857Y146586D01*
X900604D01*
X935593Y152417D02*
X923930D01*
Y143670D01*
X929762D01*
X923930D01*
Y134923D01*
X941425D02*
X947256D01*
X944340D01*
Y152417D01*
X941425D01*
X958919Y134923D02*
X964750D01*
X967666Y137839D01*
Y143670D01*
X964750Y146586D01*
X958919D01*
X956003Y143670D01*
Y137839D01*
X958919Y134923D01*
X973497Y146586D02*
Y137839D01*
X976413Y134923D01*
X979329Y137839D01*
X982245Y134923D01*
X985160Y137839D01*
Y146586D01*
X1008486Y134923D02*
Y152417D01*
X1017233D01*
X1020149Y149502D01*
Y143670D01*
X1017233Y140755D01*
X1008486D01*
X1025981Y152417D02*
Y134923D01*
Y143670D01*
X1028896Y146586D01*
X1034728D01*
X1037643Y143670D01*
Y134923D01*
X1046391Y146586D02*
X1052222D01*
X1055138Y143670D01*
Y134923D01*
X1046391D01*
X1043475Y137839D01*
X1046391Y140755D01*
X1055138D01*
X1060969Y134923D02*
Y146586D01*
X1069716D01*
X1072632Y143670D01*
Y134923D01*
X1081379Y149502D02*
Y146586D01*
X1078464D01*
X1084295D01*
X1081379D01*
Y137839D01*
X1084295Y134923D01*
X1095958D02*
X1101789D01*
X1104705Y137839D01*
Y143670D01*
X1101789Y146586D01*
X1095958D01*
X1093042Y143670D01*
Y137839D01*
X1095958Y134923D01*
X1110536D02*
Y146586D01*
X1113452D01*
X1116368Y143670D01*
Y134923D01*
Y143670D01*
X1119284Y146586D01*
X1122199Y143670D01*
Y134923D01*
X1145525Y146586D02*
X1151357Y134923D01*
X1157188Y146586D01*
X1163019Y134923D02*
X1168851D01*
X1165935D01*
Y152417D01*
X1163019Y149502D01*
X1177598Y134923D02*
Y137839D01*
X1180514D01*
Y134923D01*
X1177598D01*
X1192177Y149502D02*
X1195092Y152417D01*
X1200924D01*
X1203839Y149502D01*
Y137839D01*
X1200924Y134923D01*
X1195092D01*
X1192177Y137839D01*
Y149502D01*
X821880Y104330D02*
Y115993D01*
X827711Y121824D01*
X833543Y115993D01*
Y104330D01*
Y113077D01*
X821880D01*
X839374Y115993D02*
Y107246D01*
X842290Y104330D01*
X851037D01*
Y115993D01*
X859784Y118909D02*
Y115993D01*
X856869D01*
X862700D01*
X859784D01*
Y107246D01*
X862700Y104330D01*
X871447Y121824D02*
Y104330D01*
Y113077D01*
X874363Y115993D01*
X880194D01*
X883110Y113077D01*
Y104330D01*
X891857D02*
X897689D01*
X900604Y107246D01*
Y113077D01*
X897689Y115993D01*
X891857D01*
X888942Y113077D01*
Y107246D01*
X891857Y104330D01*
X906436Y115993D02*
Y104330D01*
Y110161D01*
X909352Y113077D01*
X912267Y115993D01*
X915183D01*
X923930D02*
X926846D01*
Y113077D01*
X923930D01*
Y115993D01*
Y107246D02*
X926846D01*
Y104330D01*
X923930D01*
Y107246D01*
X956003Y121824D02*
X961835D01*
X958919D01*
Y104330D01*
X956003D01*
X961835D01*
X970582D02*
X976413D01*
X973497D01*
Y121824D01*
X970582D01*
X985160Y104330D02*
X990992D01*
X988076D01*
Y115993D01*
X985160D01*
X1002655D02*
X1008486D01*
X1011402Y113077D01*
Y104330D01*
X1002655D01*
X999739Y107246D01*
X1002655Y110161D01*
X1011402D01*
X1034728Y104330D02*
Y121824D01*
X1046391Y104330D01*
Y121824D01*
X1055138Y115993D02*
X1060969D01*
X1063885Y113077D01*
Y104330D01*
X1055138D01*
X1052222Y107246D01*
X1055138Y110161D01*
X1063885D01*
X1069716Y115993D02*
X1081379D01*
X1069716Y104330D01*
X1081379D01*
X1095958D02*
X1090126D01*
X1087211Y107246D01*
Y113077D01*
X1090126Y115993D01*
X1095958D01*
X1098874Y113077D01*
Y110161D01*
X1087211D01*
X1104705Y104330D02*
Y115993D01*
X1107621D01*
X1110536Y113077D01*
Y104330D01*
Y113077D01*
X1113452Y115993D01*
X1116368Y113077D01*
Y104330D01*
X1125115Y118909D02*
Y115993D01*
X1122199D01*
X1128031D01*
X1125115D01*
Y107246D01*
X1128031Y104330D01*
X1136778D02*
X1145525D01*
X1148441Y107246D01*
X1145525Y110161D01*
X1139694D01*
X1136778Y113077D01*
X1139694Y115993D01*
X1148441D01*
X1163019Y104330D02*
X1157188D01*
X1154272Y107246D01*
Y113077D01*
X1157188Y115993D01*
X1163019D01*
X1165935Y113077D01*
Y110161D01*
X1154272D01*
X1171767Y115993D02*
X1177598Y104330D01*
X1183429Y115993D01*
D14*
X974090Y607060D02*
Y810260D01*
Y607060D02*
X1126490D01*
Y810260D01*
X974090D02*
X1126490D01*
X974090Y266700D02*
Y469900D01*
Y266700D02*
X1126490D01*
Y469900D01*
X974090D02*
X1126490D01*
X137360Y31140D02*
Y1001140D01*
X797360D01*
Y31140D02*
Y1001140D01*
X137360Y31140D02*
X797360D01*
D15*
X957586Y866137D02*
X967742Y850902D01*
Y866137D02*
X957586Y850902D01*
X982978Y866137D02*
X972821D01*
Y858520D01*
X977899D01*
X972821D01*
Y850902D01*
X988056D02*
X993134D01*
X990595D01*
Y866137D01*
X988056Y863598D01*
X95256Y181607D02*
X105413Y166373D01*
Y181607D02*
X95256Y166373D01*
X120648D02*
X110491D01*
X120648Y176529D01*
Y179068D01*
X118108Y181607D01*
X113030D01*
X110491Y179068D01*
X125726Y166373D02*
X130804D01*
X128265D01*
Y181607D01*
X125726Y179068D01*
X95256Y425448D02*
X105413Y410213D01*
Y425448D02*
X95256Y410213D01*
X110491D02*
X115570D01*
X113030D01*
Y425448D01*
X110491Y422908D01*
X133344Y425448D02*
X128265Y422908D01*
X123187Y417830D01*
Y412752D01*
X125726Y410213D01*
X130805D01*
X133344Y412752D01*
Y415291D01*
X130805Y417830D01*
X123187D01*
X95255Y609598D02*
X105412Y594362D01*
Y609598D02*
X95255Y594362D01*
X110490D02*
X115569D01*
X113030D01*
Y609598D01*
X110490Y607058D01*
X123186Y594362D02*
X128265D01*
X125725D01*
Y609598D01*
X123186Y607058D01*
X102874Y708658D02*
X113031Y693422D01*
Y708658D02*
X102874Y693422D01*
X118109Y706118D02*
X120648Y708658D01*
X125727D01*
X128266Y706118D01*
Y703579D01*
X125727Y701040D01*
X128266Y698501D01*
Y695962D01*
X125727Y693422D01*
X120648D01*
X118109Y695962D01*
Y698501D01*
X120648Y701040D01*
X118109Y703579D01*
Y706118D01*
X120648Y701040D02*
X125727D01*
X102874Y783587D02*
X113031Y768353D01*
Y783587D02*
X102874Y768353D01*
X128266Y783587D02*
X118109D01*
Y775970D01*
X123188Y778509D01*
X125727D01*
X128266Y775970D01*
Y770892D01*
X125727Y768353D01*
X120648D01*
X118109Y770892D01*
X1209037Y864867D02*
Y875024D01*
X1201420D01*
Y869946D01*
Y875024D01*
X1193802D01*
X1209037Y859789D02*
X1193802D01*
Y852172D01*
X1196342Y849632D01*
X1198881D01*
X1201420Y852172D01*
Y859789D01*
Y852172D01*
X1203959Y849632D01*
X1206498D01*
X1209037Y852172D01*
Y859789D01*
X1193802Y844554D02*
Y839476D01*
Y842015D01*
X1209037D01*
X1206498Y844554D01*
X1007110Y911858D02*
X996953D01*
Y904240D01*
X1002032D01*
X996953D01*
Y896622D01*
X1012188D02*
X1017267D01*
X1014728D01*
Y911858D01*
X1012188Y909318D01*
X102874Y356867D02*
Y341632D01*
X110492D01*
X113031Y344172D01*
Y354328D01*
X110492Y356867D01*
X102874D01*
X118109Y354328D02*
X120648Y356867D01*
X125727D01*
X128266Y354328D01*
Y351789D01*
X125727Y349250D01*
X128266Y346711D01*
Y344172D01*
X125727Y341632D01*
X120648D01*
X118109Y344172D01*
Y346711D01*
X120648Y349250D01*
X118109Y351789D01*
Y354328D01*
X120648Y349250D02*
X125727D01*
X8894Y380998D02*
Y365762D01*
X16512D01*
X19051Y368302D01*
Y378458D01*
X16512Y380998D01*
X8894D01*
X24129D02*
X34286D01*
Y378458D01*
X24129Y368302D01*
Y365762D01*
X109224Y565148D02*
Y549912D01*
X116842D01*
X119381Y552452D01*
Y562608D01*
X116842Y565148D01*
X109224D01*
X134616D02*
X129537Y562608D01*
X124459Y557530D01*
Y552452D01*
X126998Y549912D01*
X132077D01*
X134616Y552452D01*
Y554991D01*
X132077Y557530D01*
X124459D01*
X7624Y565148D02*
Y549912D01*
X15242D01*
X17781Y552452D01*
Y562608D01*
X15242Y565148D01*
X7624D01*
X33016D02*
X22859D01*
Y557530D01*
X27938Y560069D01*
X30477D01*
X33016Y557530D01*
Y552452D01*
X30477Y549912D01*
X25398D01*
X22859Y552452D01*
X109884Y329087D02*
Y313853D01*
X117502D01*
X120041Y316392D01*
Y326548D01*
X117502Y329087D01*
X109884D01*
X132737Y313853D02*
Y329087D01*
X125119Y321470D01*
X135276D01*
X8894Y330197D02*
Y314963D01*
X16512D01*
X19051Y317502D01*
Y327658D01*
X16512Y330197D01*
X8894D01*
X24129Y327658D02*
X26668Y330197D01*
X31747D01*
X34286Y327658D01*
Y325119D01*
X31747Y322580D01*
X29207D01*
X31747D01*
X34286Y320041D01*
Y317502D01*
X31747Y314963D01*
X26668D01*
X24129Y317502D01*
X8894Y139698D02*
Y124462D01*
X16512D01*
X19051Y127002D01*
Y137158D01*
X16512Y139698D01*
X8894D01*
X34286Y124462D02*
X24129D01*
X34286Y134619D01*
Y137158D01*
X31747Y139698D01*
X26668D01*
X24129Y137158D01*
X112373Y138588D02*
Y123352D01*
X119991D01*
X122530Y125892D01*
Y136048D01*
X119991Y138588D01*
X112373D01*
X127608Y123352D02*
X132687D01*
X130148D01*
Y138588D01*
X127608Y136048D01*
X1197611Y795018D02*
X1195072Y797558D01*
X1189993D01*
X1187454Y795018D01*
Y784862D01*
X1189993Y782322D01*
X1195072D01*
X1197611Y784862D01*
X1210307Y782322D02*
Y797558D01*
X1202689Y789940D01*
X1212846D01*
X1140461Y906778D02*
X1137922Y909317D01*
X1132843D01*
X1130304Y906778D01*
Y896622D01*
X1132843Y894082D01*
X1137922D01*
X1140461Y896622D01*
X1145539Y906778D02*
X1148078Y909317D01*
X1153157D01*
X1155696Y906778D01*
Y904239D01*
X1153157Y901700D01*
X1150618D01*
X1153157D01*
X1155696Y899161D01*
Y896622D01*
X1153157Y894082D01*
X1148078D01*
X1145539Y896622D01*
X971551Y909318D02*
X969012Y911858D01*
X963933D01*
X961394Y909318D01*
Y899162D01*
X963933Y896622D01*
X969012D01*
X971551Y899162D01*
X986786Y896622D02*
X976629D01*
X986786Y906779D01*
Y909318D01*
X984247Y911858D01*
X979168D01*
X976629Y909318D01*
X1113790Y1003298D02*
X1111251Y1005837D01*
X1106172D01*
X1103633Y1003298D01*
Y993142D01*
X1106172Y990602D01*
X1111251D01*
X1113790Y993142D01*
X1118868Y990602D02*
X1123947D01*
X1121408D01*
Y1005837D01*
X1118868Y1003298D01*
X815341Y933447D02*
X810263D01*
X812802D01*
Y920752D01*
X810263Y918213D01*
X807723D01*
X805184Y920752D01*
X830576Y933447D02*
X825498Y930908D01*
X820419Y925830D01*
Y920752D01*
X822958Y918213D01*
X828037D01*
X830576Y920752D01*
Y923291D01*
X828037Y925830D01*
X820419D01*
X1159510Y638807D02*
X1154432D01*
X1156971D01*
Y626112D01*
X1154432Y623573D01*
X1151892D01*
X1149353Y626112D01*
X1164588Y623573D02*
X1169667D01*
X1167128D01*
Y638807D01*
X1164588Y636268D01*
X1159511Y797558D02*
X1154433D01*
X1156972D01*
Y784862D01*
X1154433Y782322D01*
X1151893D01*
X1149354Y784862D01*
X1174746Y782322D02*
X1164589D01*
X1174746Y792479D01*
Y795018D01*
X1172207Y797558D01*
X1167128D01*
X1164589Y795018D01*
X1162051Y288288D02*
X1156973D01*
X1159512D01*
Y275592D01*
X1156973Y273053D01*
X1154433D01*
X1151894Y275592D01*
X1167129Y285748D02*
X1169668Y288288D01*
X1174747D01*
X1177286Y285748D01*
Y283209D01*
X1174747Y280670D01*
X1172207D01*
X1174747D01*
X1177286Y278131D01*
Y275592D01*
X1174747Y273053D01*
X1169668D01*
X1167129Y275592D01*
X1156459Y464561D02*
X1151380D01*
X1153920D01*
Y451865D01*
X1151380Y449326D01*
X1148841D01*
X1146302Y451865D01*
X1169155Y449326D02*
Y464561D01*
X1161537Y456944D01*
X1171694D01*
X913131Y849628D02*
X908053D01*
X910592D01*
Y836932D01*
X908053Y834392D01*
X905513D01*
X902974Y836932D01*
X928366Y849628D02*
X918209D01*
Y842010D01*
X923288Y844549D01*
X925827D01*
X928366Y842010D01*
Y836932D01*
X925827Y834392D01*
X920748D01*
X918209Y836932D01*
X966724Y835909D02*
Y823213D01*
X969263Y820674D01*
X974342D01*
X976881Y823213D01*
Y835909D01*
X981959Y820674D02*
X987037D01*
X984498D01*
Y835909D01*
X981959Y833370D01*
X966724Y495549D02*
Y482853D01*
X969263Y480314D01*
X974342D01*
X976881Y482853D01*
Y495549D01*
X992116Y480314D02*
X981959D01*
X992116Y490471D01*
Y493010D01*
X989577Y495549D01*
X984498D01*
X981959Y493010D01*
X815347Y763268D02*
X825503Y748033D01*
Y763268D02*
X815347Y748033D01*
X840738D02*
X830582D01*
X840738Y758189D01*
Y760728D01*
X838199Y763268D01*
X833121D01*
X830582Y760728D01*
X855973Y748033D02*
X845817D01*
X855973Y758189D01*
Y760728D01*
X853434Y763268D01*
X848356D01*
X845817Y760728D01*
X922027Y765807D02*
X932183Y750573D01*
Y765807D02*
X922027Y750573D01*
X947418D02*
X937262D01*
X947418Y760729D01*
Y763268D01*
X944879Y765807D01*
X939801D01*
X937262Y763268D01*
X952497D02*
X955036Y765807D01*
X960114D01*
X962653Y763268D01*
Y760729D01*
X960114Y758190D01*
X957575D01*
X960114D01*
X962653Y755651D01*
Y753112D01*
X960114Y750573D01*
X955036D01*
X952497Y753112D01*
X815347Y791208D02*
X825503Y775973D01*
Y791208D02*
X815347Y775973D01*
X840738D02*
X830582D01*
X840738Y786129D01*
Y788668D01*
X838199Y791208D01*
X833121D01*
X830582Y788668D01*
X853434Y775973D02*
Y791208D01*
X845817Y783590D01*
X855973D01*
X922027Y792477D02*
X932183Y777243D01*
Y792477D02*
X922027Y777243D01*
X947418D02*
X937262D01*
X947418Y787399D01*
Y789938D01*
X944879Y792477D01*
X939801D01*
X937262Y789938D01*
X962653Y792477D02*
X952497D01*
Y784860D01*
X957575Y787399D01*
X960114D01*
X962653Y784860D01*
Y779782D01*
X960114Y777243D01*
X955036D01*
X952497Y779782D01*
X816617Y668018D02*
X826773Y652783D01*
Y668018D02*
X816617Y652783D01*
X842008D02*
X831852D01*
X842008Y662939D01*
Y665478D01*
X839469Y668018D01*
X834391D01*
X831852Y665478D01*
X857243Y668018D02*
X852165Y665478D01*
X847087Y660400D01*
Y655322D01*
X849626Y652783D01*
X854704D01*
X857243Y655322D01*
Y657861D01*
X854704Y660400D01*
X847087D01*
X923297Y678177D02*
X933453Y662943D01*
Y678177D02*
X923297Y662943D01*
X948688D02*
X938532D01*
X948688Y673099D01*
Y675638D01*
X946149Y678177D01*
X941071D01*
X938532Y675638D01*
X953767Y678177D02*
X963923D01*
Y675638D01*
X953767Y665482D01*
Y662943D01*
X817887Y693418D02*
X828043Y678183D01*
Y693418D02*
X817887Y678183D01*
X843278D02*
X833122D01*
X843278Y688339D01*
Y690878D01*
X840739Y693418D01*
X835661D01*
X833122Y690878D01*
X848357D02*
X850896Y693418D01*
X855974D01*
X858513Y690878D01*
Y688339D01*
X855974Y685800D01*
X858513Y683261D01*
Y680722D01*
X855974Y678183D01*
X850896D01*
X848357Y680722D01*
Y683261D01*
X850896Y685800D01*
X848357Y688339D01*
Y690878D01*
X850896Y685800D02*
X855974D01*
X923297Y703577D02*
X933453Y688343D01*
Y703577D02*
X923297Y688343D01*
X948688D02*
X938532D01*
X948688Y698499D01*
Y701038D01*
X946149Y703577D01*
X941071D01*
X938532Y701038D01*
X953767Y690882D02*
X956306Y688343D01*
X961384D01*
X963923Y690882D01*
Y701038D01*
X961384Y703577D01*
X956306D01*
X953767Y701038D01*
Y698499D01*
X956306Y695960D01*
X963923D01*
X815347Y816608D02*
X825503Y801373D01*
Y816608D02*
X815347Y801373D01*
X830582Y814068D02*
X833121Y816608D01*
X838199D01*
X840738Y814068D01*
Y811529D01*
X838199Y808990D01*
X835660D01*
X838199D01*
X840738Y806451D01*
Y803912D01*
X838199Y801373D01*
X833121D01*
X830582Y803912D01*
X845817Y814068D02*
X848356Y816608D01*
X853434D01*
X855973Y814068D01*
Y803912D01*
X853434Y801373D01*
X848356D01*
X845817Y803912D01*
Y814068D01*
X922026Y822958D02*
X932182Y807722D01*
Y822958D02*
X922026Y807722D01*
X937261Y820418D02*
X939800Y822958D01*
X944878D01*
X947418Y820418D01*
Y817879D01*
X944878Y815340D01*
X942339D01*
X944878D01*
X947418Y812801D01*
Y810262D01*
X944878Y807722D01*
X939800D01*
X937261Y810262D01*
X952496Y807722D02*
X957574D01*
X955035D01*
Y822958D01*
X952496Y820418D01*
X815347Y732787D02*
X825503Y717552D01*
Y732787D02*
X815347Y717552D01*
X830582Y730248D02*
X833121Y732787D01*
X838199D01*
X840738Y730248D01*
Y727709D01*
X838199Y725170D01*
X835660D01*
X838199D01*
X840738Y722631D01*
Y720092D01*
X838199Y717552D01*
X833121D01*
X830582Y720092D01*
X855973Y717552D02*
X845817D01*
X855973Y727709D01*
Y730248D01*
X853434Y732787D01*
X848356D01*
X845817Y730248D01*
X923297Y734057D02*
X933453Y718822D01*
Y734057D02*
X923297Y718822D01*
X938532Y731518D02*
X941071Y734057D01*
X946149D01*
X948688Y731518D01*
Y728979D01*
X946149Y726440D01*
X943610D01*
X946149D01*
X948688Y723901D01*
Y721362D01*
X946149Y718822D01*
X941071D01*
X938532Y721362D01*
X953767Y731518D02*
X956306Y734057D01*
X961384D01*
X963923Y731518D01*
Y728979D01*
X961384Y726440D01*
X958845D01*
X961384D01*
X963923Y723901D01*
Y721362D01*
X961384Y718822D01*
X956306D01*
X953767Y721362D01*
X801377Y378457D02*
X811533Y363223D01*
Y378457D02*
X801377Y363223D01*
X816612Y375918D02*
X819151Y378457D01*
X824229D01*
X826768Y375918D01*
Y373379D01*
X824229Y370840D01*
X821690D01*
X824229D01*
X826768Y368301D01*
Y365762D01*
X824229Y363223D01*
X819151D01*
X816612Y365762D01*
X839464Y363223D02*
Y378457D01*
X831847Y370840D01*
X842003D01*
X914407Y388618D02*
X924563Y373382D01*
Y388618D02*
X914407Y373382D01*
X929642Y386078D02*
X932181Y388618D01*
X937259D01*
X939798Y386078D01*
Y383539D01*
X937259Y381000D01*
X934720D01*
X937259D01*
X939798Y378461D01*
Y375922D01*
X937259Y373382D01*
X932181D01*
X929642Y375922D01*
X955033Y388618D02*
X944877D01*
Y381000D01*
X949955Y383539D01*
X952494D01*
X955033Y381000D01*
Y375922D01*
X952494Y373382D01*
X947416D01*
X944877Y375922D01*
X801377Y414017D02*
X811533Y398783D01*
Y414017D02*
X801377Y398783D01*
X816612Y411478D02*
X819151Y414017D01*
X824229D01*
X826768Y411478D01*
Y408939D01*
X824229Y406400D01*
X821690D01*
X824229D01*
X826768Y403861D01*
Y401322D01*
X824229Y398783D01*
X819151D01*
X816612Y401322D01*
X842003Y414017D02*
X836925Y411478D01*
X831847Y406400D01*
Y401322D01*
X834386Y398783D01*
X839464D01*
X842003Y401322D01*
Y403861D01*
X839464Y406400D01*
X831847D01*
X913137Y419098D02*
X923293Y403862D01*
Y419098D02*
X913137Y403862D01*
X928372Y416558D02*
X930911Y419098D01*
X935989D01*
X938528Y416558D01*
Y414019D01*
X935989Y411480D01*
X933450D01*
X935989D01*
X938528Y408941D01*
Y406402D01*
X935989Y403862D01*
X930911D01*
X928372Y406402D01*
X943607Y419098D02*
X953763D01*
Y416558D01*
X943607Y406402D01*
Y403862D01*
X801377Y438148D02*
X811533Y422912D01*
Y438148D02*
X801377Y422912D01*
X816612Y435608D02*
X819151Y438148D01*
X824229D01*
X826768Y435608D01*
Y433069D01*
X824229Y430530D01*
X821690D01*
X824229D01*
X826768Y427991D01*
Y425452D01*
X824229Y422912D01*
X819151D01*
X816612Y425452D01*
X831847Y435608D02*
X834386Y438148D01*
X839464D01*
X842003Y435608D01*
Y433069D01*
X839464Y430530D01*
X842003Y427991D01*
Y425452D01*
X839464Y422912D01*
X834386D01*
X831847Y425452D01*
Y427991D01*
X834386Y430530D01*
X831847Y433069D01*
Y435608D01*
X834386Y430530D02*
X839464D01*
X911867Y450848D02*
X922023Y435612D01*
Y450848D02*
X911867Y435612D01*
X927102Y448308D02*
X929641Y450848D01*
X934719D01*
X937258Y448308D01*
Y445769D01*
X934719Y443230D01*
X932180D01*
X934719D01*
X937258Y440691D01*
Y438152D01*
X934719Y435612D01*
X929641D01*
X927102Y438152D01*
X942337D02*
X944876Y435612D01*
X949954D01*
X952493Y438152D01*
Y448308D01*
X949954Y450848D01*
X944876D01*
X942337Y448308D01*
Y445769D01*
X944876Y443230D01*
X952493D01*
X801377Y321307D02*
X811533Y306073D01*
Y321307D02*
X801377Y306073D01*
X824229D02*
Y321307D01*
X816612Y313690D01*
X826768D01*
X831847Y318768D02*
X834386Y321307D01*
X839464D01*
X842003Y318768D01*
Y308612D01*
X839464Y306073D01*
X834386D01*
X831847Y308612D01*
Y318768D01*
X915676Y335277D02*
X925833Y320042D01*
Y335277D02*
X915676Y320042D01*
X938528D02*
Y335277D01*
X930911Y327660D01*
X941068D01*
X946146Y320042D02*
X951224D01*
X948685D01*
Y335277D01*
X946146Y332738D01*
X801377Y347977D02*
X811533Y332743D01*
Y347977D02*
X801377Y332743D01*
X824229D02*
Y347977D01*
X816612Y340360D01*
X826768D01*
X842003Y332743D02*
X831847D01*
X842003Y342899D01*
Y345438D01*
X839464Y347977D01*
X834386D01*
X831847Y345438D01*
X915677Y360677D02*
X925833Y345443D01*
Y360677D02*
X915677Y345443D01*
X938529D02*
Y360677D01*
X930912Y353060D01*
X941068D01*
X946147Y358138D02*
X948686Y360677D01*
X953764D01*
X956303Y358138D01*
Y355599D01*
X953764Y353060D01*
X951225D01*
X953764D01*
X956303Y350521D01*
Y347982D01*
X953764Y345443D01*
X948686D01*
X946147Y347982D01*
X801377Y476247D02*
X811533Y461012D01*
Y476247D02*
X801377Y461012D01*
X824229D02*
Y476247D01*
X816612Y468630D01*
X826768D01*
X839464Y461012D02*
Y476247D01*
X831847Y468630D01*
X842003D01*
X910597Y477518D02*
X920753Y462282D01*
Y477518D02*
X910597Y462282D01*
X933449D02*
Y477518D01*
X925832Y469900D01*
X935988D01*
X951223Y477518D02*
X941067D01*
Y469900D01*
X946145Y472439D01*
X948684D01*
X951223Y469900D01*
Y464822D01*
X948684Y462282D01*
X943606D01*
X941067Y464822D01*
X73664Y908053D02*
Y923288D01*
X81282D01*
X83821Y920748D01*
Y915670D01*
X81282Y913131D01*
X73664D01*
X78742D02*
X83821Y908053D01*
X88899Y920748D02*
X91438Y923288D01*
X96517D01*
X99056Y920748D01*
Y918209D01*
X96517Y915670D01*
X93977D01*
X96517D01*
X99056Y913131D01*
Y910592D01*
X96517Y908053D01*
X91438D01*
X88899Y910592D01*
X11434Y588013D02*
Y603247D01*
X19052D01*
X21591Y600708D01*
Y595630D01*
X19052Y593091D01*
X11434D01*
X16513D02*
X21591Y588013D01*
X36826D02*
X26669D01*
X36826Y598169D01*
Y600708D01*
X34287Y603247D01*
X29208D01*
X26669Y600708D01*
X11433Y680723D02*
Y695957D01*
X19051D01*
X21590Y693418D01*
Y688340D01*
X19051Y685801D01*
X11433D01*
X16512D02*
X21590Y680723D01*
X26668D02*
X31747D01*
X29208D01*
Y695957D01*
X26668Y693418D01*
X93987Y205737D02*
X104144Y190502D01*
Y205737D02*
X93987Y190502D01*
X119379D02*
X109222D01*
X119379Y200658D01*
Y203197D01*
X116840Y205737D01*
X111762D01*
X109222Y203197D01*
X124458D02*
X126997Y205737D01*
X132075D01*
X134614Y203197D01*
Y193041D01*
X132075Y190502D01*
X126997D01*
X124458Y193041D01*
Y203197D01*
X96526Y231138D02*
X106683Y215903D01*
Y231138D02*
X96526Y215903D01*
X111761D02*
X116840D01*
X114300D01*
Y231138D01*
X111761Y228598D01*
X124457Y218442D02*
X126996Y215903D01*
X132075D01*
X134614Y218442D01*
Y228598D01*
X132075Y231138D01*
X126996D01*
X124457Y228598D01*
Y226059D01*
X126996Y223520D01*
X134614D01*
X96527Y256537D02*
X106684Y241302D01*
Y256537D02*
X96527Y241302D01*
X111762D02*
X116840D01*
X114301D01*
Y256537D01*
X111762Y253997D01*
X124458D02*
X126997Y256537D01*
X132076D01*
X134615Y253997D01*
Y251458D01*
X132076Y248919D01*
X134615Y246380D01*
Y243841D01*
X132076Y241302D01*
X126997D01*
X124458Y243841D01*
Y246380D01*
X126997Y248919D01*
X124458Y251458D01*
Y253997D01*
X126997Y248919D02*
X132076D01*
X96526Y281938D02*
X106683Y266702D01*
Y281938D02*
X96526Y266702D01*
X111761D02*
X116840D01*
X114300D01*
Y281938D01*
X111761Y279398D01*
X124457Y281938D02*
X134614D01*
Y279398D01*
X124457Y269242D01*
Y266702D01*
X95256Y449577D02*
X105413Y434342D01*
Y449577D02*
X95256Y434342D01*
X110491D02*
X115570D01*
X113030D01*
Y449577D01*
X110491Y447038D01*
X133344Y449577D02*
X123187D01*
Y441960D01*
X128265Y444499D01*
X130805D01*
X133344Y441960D01*
Y436882D01*
X130805Y434342D01*
X125726D01*
X123187Y436882D01*
X95256Y474977D02*
X105413Y459743D01*
Y474977D02*
X95256Y459743D01*
X110491D02*
X115570D01*
X113030D01*
Y474977D01*
X110491Y472438D01*
X130805Y459743D02*
Y474977D01*
X123187Y467360D01*
X133344D01*
X95256Y500378D02*
X105413Y485143D01*
Y500378D02*
X95256Y485143D01*
X110491D02*
X115570D01*
X113030D01*
Y500378D01*
X110491Y497838D01*
X123187D02*
X125726Y500378D01*
X130805D01*
X133344Y497838D01*
Y495299D01*
X130805Y492760D01*
X128265D01*
X130805D01*
X133344Y490221D01*
Y487682D01*
X130805Y485143D01*
X125726D01*
X123187Y487682D01*
X95256Y527048D02*
X105413Y511813D01*
Y527048D02*
X95256Y511813D01*
X110491D02*
X115570D01*
X113030D01*
Y527048D01*
X110491Y524508D01*
X133344Y511813D02*
X123187D01*
X133344Y521969D01*
Y524508D01*
X130805Y527048D01*
X125726D01*
X123187Y524508D01*
X102874Y732787D02*
X113031Y717552D01*
Y732787D02*
X102874Y717552D01*
X118109Y732787D02*
X128266D01*
Y730248D01*
X118109Y720092D01*
Y717552D01*
X102873Y761998D02*
X113030Y746763D01*
Y761998D02*
X102873Y746763D01*
X128265Y761998D02*
X123187Y759459D01*
X118108Y754381D01*
Y749303D01*
X120648Y746763D01*
X125726D01*
X128265Y749303D01*
Y751842D01*
X125726Y754381D01*
X118108D01*
X95256Y636268D02*
X105413Y621032D01*
Y636268D02*
X95256Y621032D01*
X110491D02*
X115570D01*
X113030D01*
Y636268D01*
X110491Y633728D01*
X123187D02*
X125726Y636268D01*
X130805D01*
X133344Y633728D01*
Y623572D01*
X130805Y621032D01*
X125726D01*
X123187Y623572D01*
Y633728D01*
X95254Y660397D02*
X105411Y645163D01*
Y660397D02*
X95254Y645163D01*
X110489Y647702D02*
X113028Y645163D01*
X118107D01*
X120646Y647702D01*
Y657858D01*
X118107Y660397D01*
X113028D01*
X110489Y657858D01*
Y655319D01*
X113028Y652780D01*
X120646D01*
X102874Y810257D02*
X113031Y795023D01*
Y810257D02*
X102874Y795023D01*
X125727D02*
Y810257D01*
X118109Y802640D01*
X128266D01*
X102874Y834388D02*
X113031Y819153D01*
Y834388D02*
X102874Y819153D01*
X118109Y831848D02*
X120648Y834388D01*
X125727D01*
X128266Y831848D01*
Y829309D01*
X125727Y826770D01*
X123188D01*
X125727D01*
X128266Y824231D01*
Y821692D01*
X125727Y819153D01*
X120648D01*
X118109Y821692D01*
X102874Y861058D02*
X113031Y845823D01*
Y861058D02*
X102874Y845823D01*
X128266D02*
X118109D01*
X128266Y855979D01*
Y858518D01*
X125727Y861058D01*
X120648D01*
X118109Y858518D01*
X104143Y887728D02*
X114300Y872493D01*
Y887728D02*
X104143Y872493D01*
X119378D02*
X124457D01*
X121918D01*
Y887728D01*
X119378Y885188D01*
X96524Y996947D02*
X106681D01*
X101602D01*
Y981712D01*
X111759Y996947D02*
Y981712D01*
X119377D01*
X121916Y984252D01*
Y986791D01*
X119377Y989330D01*
X111759D01*
X119377D01*
X121916Y991869D01*
Y994408D01*
X119377Y996947D01*
X111759D01*
M02*
