G04*
G04 #@! TF.GenerationSoftware,Altium Limited,Altium Designer,24.6.1 (21)*
G04*
G04 Layer_Color=8421504*
%FSLAX44Y44*%
%MOMM*%
G71*
G04*
G04 #@! TF.SameCoordinates,00C63F76-EF1E-4721-A94C-C499BE19EED3*
G04*
G04*
G04 #@! TF.FilePolarity,Positive*
G04*
G01*
G75*
%ADD16R,0.5000X0.6000*%
%ADD17R,1.8062X1.5544*%
%ADD18R,1.1055X1.6582*%
%ADD19R,1.1500X1.4500*%
D16*
X64103Y120810D02*
D03*
X45103D02*
D03*
X54603Y140810D02*
D03*
X100943Y364650D02*
D03*
X81943D02*
D03*
X91443Y384650D02*
D03*
X64109Y364650D02*
D03*
X45109D02*
D03*
X54609Y384650D02*
D03*
X80054Y566425D02*
D03*
X99054D02*
D03*
X89554Y546425D02*
D03*
X43171Y566430D02*
D03*
X62171D02*
D03*
X52671Y546430D02*
D03*
X81334Y331472D02*
D03*
X100335D02*
D03*
X90835Y311472D02*
D03*
X45110Y331313D02*
D03*
X64110D02*
D03*
X54610Y311313D02*
D03*
X100947Y120810D02*
D03*
X81947D02*
D03*
X91447Y140810D02*
D03*
D17*
X1174750Y837991D02*
D03*
Y876509D02*
D03*
D18*
X1169670Y812800D02*
D03*
X999617Y928370D02*
D03*
X1195197Y812800D02*
D03*
X1195134Y901700D02*
D03*
X1169606D02*
D03*
X974090Y928370D02*
D03*
D19*
X50660Y668020D02*
D03*
X33160D02*
D03*
X44590Y904240D02*
D03*
X62090D02*
D03*
X32030Y617220D02*
D03*
X49530D02*
D03*
M02*
